<svg width="797" height="316" viewBox="0 0 797 316" fill="none" xmlns="http://www.w3.org/2000/svg">
<rect width="797" height="316" fill="white"/>
<path d="M266.5 165.7H286.7C292.1 165.7 299.8 169 299.8 175.3C299.8 181.9 292.1 183.7 286.7 183.7H266.5V165.7ZM266.5 138H286.7C295.1 138 297.7 143.4 297.7 146.6C297.7 150.6 295 154.1 286.7 154.1H266.5V138ZM286.7 126C275.6 126 264.5 126 253.5 126V196C264.6 196 275.6 196 286.7 196C301.2 196 312.9 191 312.9 175.4C312.9 171 309.9 162.3 301.7 159.8C308.2 156.9 310.8 151.7 310.8 146.3C310.8 132.2 300.5 126 286.7 126ZM321.262 146.7V196H333.462V170C333.462 160.9 339.362 157.5 345.762 157.5C349.762 157.5 352.062 158.6 354.562 160.7L360.062 150.1C357.362 147.4 352.462 145.4 347.362 145.4C342.362 145.4 337.262 146.3 333.462 152.4L332.562 146.7H321.262ZM376.821 146.5V196H364.621V146.5H376.821ZM363.521 132.8C363.521 142.3 377.921 142.3 377.921 132.8C377.921 123.3 363.521 123.3 363.521 132.8ZM411.763 156.9C419.463 156.9 426.063 162.7 426.063 171.3C426.063 180.2 419.463 185.8 411.763 185.8C403.963 185.8 397.763 179.9 397.763 171.3C397.763 162.4 403.963 156.9 411.763 156.9ZM426.863 126.1V153.4C423.963 148.3 415.863 145.5 410.663 145.5C396.263 145.5 385.563 154.3 385.563 171.3C385.563 187.5 396.463 197.1 410.963 197.1C416.963 197.1 423.063 195.1 426.863 189.2L427.663 196H439.063V126.1H426.863ZM483.48 147.9C480.08 145.6 476.08 145.1 472.18 145.1C458.38 145.1 447.18 154.7 447.18 170.1C447.18 185.5 456.78 194.9 472.18 194.9C478.28 194.9 484.68 198 484.68 204.8C484.68 211.6 479.18 215.4 472.18 215.4C465.18 215.4 459.28 211.2 459.28 204.8H447.18C447.18 218.1 457.88 226.8 472.18 226.8C486.48 226.8 496.88 218.4 496.88 204.8C496.88 198.5 494.88 192.6 486.68 188.5C494.78 184.8 497.08 176.2 497.08 170.1C497.08 164.7 495.68 159.8 491.88 155.5L497.38 148.5L488.38 141.7L483.48 147.9ZM472.18 156.2C479.18 156.2 484.98 161.6 484.98 170.1C484.98 178.6 479.18 183.8 472.18 183.8C465.08 183.8 459.28 178.7 459.28 170.1C459.28 161.5 465.08 156.2 472.18 156.2ZM553.755 175.7C555.655 155.4 545.355 145.2 528.855 145.2C512.855 145.2 502.655 156 502.655 171C502.655 186.8 512.755 197.3 529.755 197.3C537.255 197.3 545.755 194.7 550.955 189.3L543.155 181.6C540.355 184.5 534.455 186.2 529.955 186.2C521.355 186.2 516.055 181.8 515.255 175.7H553.755ZM515.455 165.6C517.255 159.2 522.655 156 529.255 156C536.255 156 541.255 159.2 542.055 165.6H515.455ZM582.156 196H595.356V138H617.556V126C597.256 126 580.156 126 559.956 126V138H582.156V196ZM679.28 137.5C673.98 126.7 662.68 123.6 651.78 123.6C638.88 123.7 624.68 129.6 624.68 144C624.68 159.7 637.88 163.5 652.18 165.2C661.48 166.2 668.38 168.9 668.38 175.5C668.38 183.1 660.58 186 652.28 186C643.78 186 635.68 182.6 632.58 174.9L621.58 180.6C626.78 193.4 637.78 197.8 652.08 197.8C667.68 197.8 681.48 191.1 681.48 175.5C681.48 158.8 667.88 155 653.28 153.2C644.88 152.2 637.68 150.5 637.68 144.4C637.68 139.2 642.38 135.1 652.18 135.1C659.78 135.1 666.38 138.9 668.78 142.9L679.28 137.5Z" fill="#0E141B"/>
<path d="M90 195.5L178 95L158.5 195.5H90Z" fill="#0E141B"/>
<path d="M180 195.5L124.5 112.5L218.5 195.5H180Z" fill="#0E141B"/>
</svg>
