<svg width="877" height="396" viewBox="0 0 877 396" fill="none" xmlns="http://www.w3.org/2000/svg">
<rect width="797" height="316" transform="translate(40 40)" fill="black"/>
<path d="M306.5 205.7H326.7C332.1 205.7 339.8 209 339.8 215.3C339.8 221.9 332.1 223.7 326.7 223.7H306.5V205.7ZM306.5 178H326.7C335.1 178 337.7 183.4 337.7 186.6C337.7 190.6 335 194.1 326.7 194.1H306.5V178ZM326.7 166C315.6 166 304.5 166 293.5 166V236C304.6 236 315.6 236 326.7 236C341.2 236 352.9 231 352.9 215.4C352.9 211 349.9 202.3 341.7 199.8C348.2 196.9 350.8 191.7 350.8 186.3C350.8 172.2 340.5 166 326.7 166ZM361.262 186.7V236H373.462V210C373.462 200.9 379.362 197.5 385.762 197.5C389.762 197.5 392.062 198.6 394.562 200.7L400.062 190.1C397.362 187.4 392.462 185.4 387.362 185.4C382.362 185.4 377.262 186.3 373.462 192.4L372.562 186.7H361.262ZM416.821 186.5V236H404.621V186.5H416.821ZM403.521 172.8C403.521 182.3 417.921 182.3 417.921 172.8C417.921 163.3 403.521 163.3 403.521 172.8ZM451.763 196.9C459.463 196.9 466.063 202.7 466.063 211.3C466.063 220.2 459.463 225.8 451.763 225.8C443.963 225.8 437.763 219.9 437.763 211.3C437.763 202.4 443.963 196.9 451.763 196.9ZM466.863 166.1V193.4C463.963 188.3 455.863 185.5 450.663 185.5C436.263 185.5 425.563 194.3 425.563 211.3C425.563 227.5 436.463 237.1 450.963 237.1C456.963 237.1 463.063 235.1 466.863 229.2L467.663 236H479.063V166.1H466.863ZM523.48 187.9C520.08 185.6 516.08 185.1 512.18 185.1C498.38 185.1 487.18 194.7 487.18 210.1C487.18 225.5 496.78 234.9 512.18 234.9C518.28 234.9 524.68 238 524.68 244.8C524.68 251.6 519.18 255.4 512.18 255.4C505.18 255.4 499.28 251.2 499.28 244.8H487.18C487.18 258.1 497.88 266.8 512.18 266.8C526.48 266.8 536.88 258.4 536.88 244.8C536.88 238.5 534.88 232.6 526.68 228.5C534.78 224.8 537.08 216.2 537.08 210.1C537.08 204.7 535.68 199.8 531.88 195.5L537.38 188.5L528.38 181.7L523.48 187.9ZM512.18 196.2C519.18 196.2 524.98 201.6 524.98 210.1C524.98 218.6 519.18 223.8 512.18 223.8C505.08 223.8 499.28 218.7 499.28 210.1C499.28 201.5 505.08 196.2 512.18 196.2ZM593.755 215.7C595.655 195.4 585.355 185.2 568.855 185.2C552.855 185.2 542.655 196 542.655 211C542.655 226.8 552.755 237.3 569.755 237.3C577.255 237.3 585.755 234.7 590.955 229.3L583.155 221.6C580.355 224.5 574.455 226.2 569.955 226.2C561.355 226.2 556.055 221.8 555.255 215.7H593.755ZM555.455 205.6C557.255 199.2 562.655 196 569.255 196C576.255 196 581.255 199.2 582.055 205.6H555.455ZM622.156 236H635.356V178H657.556V166C637.256 166 620.156 166 599.956 166V178H622.156V236ZM719.28 177.5C713.98 166.7 702.68 163.6 691.78 163.6C678.88 163.7 664.68 169.6 664.68 184C664.68 199.7 677.88 203.5 692.18 205.2C701.48 206.2 708.38 208.9 708.38 215.5C708.38 223.1 700.58 226 692.28 226C683.78 226 675.68 222.6 672.58 214.9L661.58 220.6C666.78 233.4 677.78 237.8 692.08 237.8C707.68 237.8 721.48 231.1 721.48 215.5C721.48 198.8 707.88 195 693.28 193.2C684.88 192.2 677.68 190.5 677.68 184.4C677.68 179.2 682.38 175.1 692.18 175.1C699.78 175.1 706.38 178.9 708.78 182.9L719.28 177.5Z" fill="white"/>
<path d="M130 235.5L218 135L198.5 235.5H130Z" fill="white"/>
<path d="M220 235.5L164.5 152.5L258.5 235.5H220Z" fill="white"/>
<rect x="40" y="8" width="64.875" height="26" rx="2" fill="black"/>
<rect x="40.5" y="8.5" width="63.875" height="25" rx="1.5" stroke="black" stroke-opacity="0.14902"/>
<path d="M44.9688 24V16H45.9375V23.1406H49.6563V24H44.9688ZM53.4688 24.125C52.9271 24.125 52.4518 23.9961 52.043 23.7383C51.6367 23.4805 51.319 23.1198 51.0898 22.6562C50.8633 22.1927 50.75 21.651 50.75 21.0312C50.75 20.4062 50.8633 19.8607 51.0898 19.3945C51.319 18.9284 51.6367 18.5664 52.043 18.3086C52.4518 18.0508 52.9271 17.9219 53.4688 17.9219C54.0104 17.9219 54.4844 18.0508 54.8906 18.3086C55.2995 18.5664 55.6172 18.9284 55.8438 19.3945C56.0729 19.8607 56.1875 20.4062 56.1875 21.0312C56.1875 21.651 56.0729 22.1927 55.8438 22.6562C55.6172 23.1198 55.2995 23.4805 54.8906 23.7383C54.4844 23.9961 54.0104 24.125 53.4688 24.125ZM53.4688 23.2969C53.8802 23.2969 54.2187 23.1914 54.4844 22.9805C54.75 22.7695 54.9466 22.4922 55.0742 22.1484C55.2018 21.8047 55.2656 21.4323 55.2656 21.0312C55.2656 20.6302 55.2018 20.2565 55.0742 19.9102C54.9466 19.5638 54.75 19.2839 54.4844 19.0703C54.2187 18.8568 53.8802 18.75 53.4688 18.75C53.0573 18.75 52.7188 18.8568 52.4531 19.0703C52.1875 19.2839 51.9909 19.5638 51.8633 19.9102C51.7357 20.2565 51.6719 20.6302 51.6719 21.0312C51.6719 21.4323 51.7357 21.8047 51.8633 22.1484C51.9909 22.4922 52.1875 22.7695 52.4531 22.9805C52.7188 23.1914 53.0573 23.2969 53.4688 23.2969ZM60.0166 26.375C59.5713 26.375 59.1885 26.3177 58.8682 26.2031C58.5479 26.0911 58.2809 25.9427 58.0674 25.7578C57.8564 25.5755 57.6885 25.3802 57.5635 25.1719L58.2979 24.6563C58.3812 24.7656 58.4867 24.8906 58.6143 25.0312C58.7419 25.1745 58.9163 25.2982 59.1377 25.4023C59.3617 25.5091 59.6546 25.5625 60.0166 25.5625C60.501 25.5625 60.9007 25.4453 61.2158 25.2109C61.5309 24.9766 61.6885 24.6094 61.6885 24.1094V22.8906H61.6104C61.5426 23 61.4463 23.1354 61.3213 23.2969C61.1989 23.4557 61.0218 23.5977 60.79 23.7227C60.5609 23.8451 60.251 23.9062 59.8604 23.9062C59.376 23.9062 58.9411 23.7917 58.5557 23.5625C58.1729 23.3333 57.8695 23 57.6455 22.5625C57.4242 22.125 57.3135 21.5937 57.3135 20.9687C57.3135 20.3542 57.4215 19.819 57.6377 19.3633C57.8538 18.9049 58.1546 18.5508 58.54 18.3008C58.9255 18.0482 59.3708 17.9219 59.876 17.9219C60.2666 17.9219 60.5765 17.987 60.8057 18.1172C61.0374 18.2448 61.2145 18.3906 61.3369 18.5547C61.4619 18.7161 61.5583 18.849 61.626 18.9531H61.7197V18H62.6104V24.1719C62.6104 24.6875 62.4932 25.1068 62.2588 25.4297C62.027 25.7552 61.7145 25.9935 61.3213 26.1445C60.9307 26.2982 60.4958 26.375 60.0166 26.375ZM59.9854 23.0781C60.3551 23.0781 60.6676 22.9935 60.9229 22.8242C61.1781 22.6549 61.3721 22.4115 61.5049 22.0938C61.6377 21.776 61.7041 21.3958 61.7041 20.9531C61.7041 20.5208 61.639 20.1393 61.5088 19.8086C61.3786 19.4779 61.1859 19.2187 60.9307 19.0312C60.6755 18.8437 60.3604 18.75 59.9854 18.75C59.5947 18.75 59.2692 18.849 59.0088 19.0469C58.751 19.2448 58.557 19.5104 58.4268 19.8438C58.2992 20.1771 58.2354 20.5469 58.2354 20.9531C58.2354 21.3698 58.3005 21.7383 58.4307 22.0586C58.5635 22.3763 58.7588 22.6263 59.0166 22.8086C59.277 22.9883 59.5999 23.0781 59.9854 23.0781ZM66.7354 24.125C66.1937 24.125 65.7184 23.9961 65.3096 23.7383C64.9033 23.4805 64.5856 23.1198 64.3564 22.6562C64.1299 22.1927 64.0166 21.651 64.0166 21.0312C64.0166 20.4062 64.1299 19.8607 64.3564 19.3945C64.5856 18.9284 64.9033 18.5664 65.3096 18.3086C65.7184 18.0508 66.1937 17.9219 66.7354 17.9219C67.277 17.9219 67.751 18.0508 68.1572 18.3086C68.5661 18.5664 68.8838 18.9284 69.1104 19.3945C69.3395 19.8607 69.4541 20.4062 69.4541 21.0312C69.4541 21.651 69.3395 22.1927 69.1104 22.6562C68.8838 23.1198 68.5661 23.4805 68.1572 23.7383C67.751 23.9961 67.277 24.125 66.7354 24.125ZM66.7354 23.2969C67.1468 23.2969 67.4854 23.1914 67.751 22.9805C68.0166 22.7695 68.2132 22.4922 68.3408 22.1484C68.4684 21.8047 68.5322 21.4323 68.5322 21.0312C68.5322 20.6302 68.4684 20.2565 68.3408 19.9102C68.2132 19.5638 68.0166 19.2839 67.751 19.0703C67.4854 18.8568 67.1468 18.75 66.7354 18.75C66.3239 18.75 65.9854 18.8568 65.7197 19.0703C65.4541 19.2839 65.2575 19.5638 65.1299 19.9102C65.0023 20.2565 64.9385 20.6302 64.9385 21.0312C64.9385 21.4323 65.0023 21.8047 65.1299 22.1484C65.2575 22.4922 65.4541 22.7695 65.7197 22.9805C65.9854 23.1914 66.3239 23.2969 66.7354 23.2969ZM74.0801 24V16H75.002V18.9531H75.0801C75.1478 18.849 75.2415 18.7161 75.3613 18.5547C75.4837 18.3906 75.6582 18.2448 75.8848 18.1172C76.1139 17.987 76.4238 17.9219 76.8145 17.9219C77.3197 17.9219 77.765 18.0482 78.1504 18.3008C78.5358 18.5534 78.8366 18.9115 79.0527 19.375C79.2689 19.8385 79.377 20.3854 79.377 21.0156C79.377 21.651 79.2689 22.2018 79.0527 22.668C78.8366 23.1315 78.5371 23.4909 78.1543 23.7461C77.7715 23.9987 77.3301 24.125 76.8301 24.125C76.4447 24.125 76.1361 24.0612 75.9043 23.9336C75.6725 23.8034 75.4941 23.6562 75.3691 23.4922C75.2441 23.3255 75.1478 23.1875 75.0801 23.0781H74.9707V24H74.0801ZM74.9863 21C74.9863 21.4531 75.0527 21.8529 75.1855 22.1992C75.3184 22.543 75.5124 22.8125 75.7676 23.0078C76.0228 23.2005 76.3353 23.2969 76.7051 23.2969C77.0905 23.2969 77.4121 23.1953 77.6699 22.9922C77.9303 22.7865 78.1257 22.5104 78.2559 22.1641C78.3887 21.8151 78.4551 21.4271 78.4551 21C78.4551 20.5781 78.39 20.1979 78.2598 19.8594C78.1322 19.5182 77.9382 19.2487 77.6777 19.0508C77.4199 18.8503 77.0957 18.75 76.7051 18.75C76.3301 18.75 76.015 18.8451 75.7598 19.0352C75.5046 19.2227 75.3118 19.4857 75.1816 19.8242C75.0514 20.1602 74.9863 20.5521 74.9863 21ZM81.709 16V24H80.7871V16H81.709ZM85.1631 24.1406C84.7829 24.1406 84.4378 24.069 84.1279 23.9258C83.818 23.7799 83.5719 23.5703 83.3896 23.2969C83.2074 23.0208 83.1162 22.6875 83.1162 22.2969C83.1162 21.9531 83.1839 21.6745 83.3193 21.4609C83.4548 21.2448 83.6357 21.0755 83.8623 20.9531C84.0889 20.8307 84.3389 20.7396 84.6123 20.6797C84.8883 20.6172 85.1657 20.5677 85.4443 20.5313C85.8089 20.4844 86.1045 20.4492 86.3311 20.4258C86.5602 20.3997 86.7269 20.3568 86.8311 20.2969C86.9378 20.237 86.9912 20.1328 86.9912 19.9844V19.9531C86.9912 19.5677 86.8857 19.2682 86.6748 19.0547C86.4665 18.8411 86.1501 18.7344 85.7256 18.7344C85.2855 18.7344 84.9404 18.8307 84.6904 19.0234C84.4404 19.2161 84.2646 19.4219 84.1631 19.6406L83.2881 19.3281C83.4443 18.9635 83.6527 18.6797 83.9131 18.4766C84.1761 18.2708 84.4626 18.1276 84.7725 18.0469C85.085 17.9635 85.3923 17.9219 85.6943 17.9219C85.887 17.9219 86.1084 17.9453 86.3584 17.9922C86.611 18.0365 86.8545 18.1289 87.0889 18.2695C87.3258 18.4102 87.5225 18.6224 87.6787 18.9062C87.835 19.1901 87.9131 19.5703 87.9131 20.0469V24H86.9912V23.1875H86.9443C86.8818 23.3177 86.7777 23.457 86.6318 23.6055C86.486 23.7539 86.292 23.8802 86.0498 23.9844C85.8076 24.0885 85.512 24.1406 85.1631 24.1406ZM85.3037 23.3125C85.6683 23.3125 85.9756 23.2409 86.2256 23.0977C86.4782 22.9544 86.6683 22.7695 86.7959 22.543C86.9261 22.3164 86.9912 22.0781 86.9912 21.8281V20.9844C86.9521 21.0312 86.8662 21.0742 86.7334 21.1133C86.6032 21.1497 86.4521 21.1823 86.2803 21.2109C86.111 21.237 85.9456 21.2604 85.7842 21.2812C85.6253 21.2995 85.4964 21.3151 85.3975 21.3281C85.1579 21.3594 84.9339 21.4102 84.7256 21.4805C84.5199 21.5482 84.3532 21.651 84.2256 21.7891C84.1006 21.9245 84.0381 22.1094 84.0381 22.3437C84.0381 22.6641 84.1566 22.9062 84.3936 23.0703C84.6331 23.2318 84.9365 23.3125 85.3037 23.3125ZM92.0332 24.125C91.4707 24.125 90.9863 23.9922 90.5801 23.7266C90.1738 23.4609 89.8613 23.0951 89.6426 22.6289C89.4238 22.1628 89.3145 21.6302 89.3145 21.0312C89.3145 20.4219 89.4264 19.8841 89.6504 19.418C89.877 18.9492 90.1921 18.5833 90.5957 18.3203C91.002 18.0547 91.4759 17.9219 92.0176 17.9219C92.4395 17.9219 92.8197 18 93.1582 18.1562C93.4967 18.3125 93.7741 18.5312 93.9902 18.8125C94.2064 19.0937 94.3405 19.4219 94.3926 19.7969H93.4707C93.4004 19.5234 93.2441 19.2812 93.002 19.0703C92.7624 18.8568 92.4395 18.75 92.0332 18.75C91.6738 18.75 91.3587 18.8437 91.0879 19.0312C90.8197 19.2161 90.61 19.4779 90.459 19.8164C90.3105 20.1523 90.2363 20.5469 90.2363 21C90.2363 21.4635 90.3092 21.8672 90.4551 22.2109C90.6035 22.5547 90.8118 22.8216 91.0801 23.0117C91.3509 23.2018 91.6686 23.2969 92.0332 23.2969C92.2728 23.2969 92.4902 23.2552 92.6855 23.1719C92.8809 23.0885 93.0462 22.9688 93.1816 22.8125C93.3171 22.6562 93.4134 22.4687 93.4707 22.25H94.3926C94.3405 22.6042 94.2116 22.9232 94.0059 23.207C93.8027 23.4883 93.5332 23.7122 93.1973 23.8789C92.8639 24.043 92.4759 24.125 92.0332 24.125ZM96.5996 21.8125L96.584 20.6719H96.7715L99.3965 18H100.537L97.7402 20.8281H97.6621L96.5996 21.8125ZM95.7402 24V16H96.6621V24H95.7402ZM99.5527 24L97.209 21.0312L97.8652 20.3906L100.725 24H99.5527Z" fill="white"/>
</svg>
