<svg width="520" height="46" viewBox="0 0 520 46" fill="none" xmlns="http://www.w3.org/2000/svg">
<g filter="url(#filter0_b_837_716)">
<rect width="520" height="46" rx="8" fill="white" fill-opacity="0.03"/>
<path d="M21.0596 27H22.6934V21.7227C22.7663 21.5996 22.8506 21.4857 22.9463 21.3809C23.042 21.276 23.1445 21.1872 23.2539 21.1143C23.3952 21.0186 23.5524 20.9456 23.7256 20.8955C23.8988 20.8408 24.0856 20.8135 24.2861 20.8135C24.5277 20.8135 24.7419 20.8408 24.9287 20.8955C25.1156 20.9456 25.2751 21.0322 25.4072 21.1553C25.5394 21.2783 25.6396 21.4424 25.708 21.6475C25.7764 21.8525 25.8105 22.1077 25.8105 22.4131V27H27.4443V22.3857C27.4443 21.8662 27.3828 21.4242 27.2598 21.0596C27.1367 20.6904 26.9635 20.3874 26.7402 20.1504C26.5169 19.9134 26.248 19.7402 25.9336 19.6309C25.6191 19.5215 25.2728 19.4668 24.8945 19.4668C24.6074 19.4668 24.334 19.5078 24.0742 19.5898C23.8145 19.6719 23.5752 19.7881 23.3564 19.9385C23.2197 20.0342 23.0898 20.1436 22.9668 20.2666C22.8483 20.3851 22.7389 20.515 22.6387 20.6562L22.5361 19.6035H21.0596V27ZM29.4814 29.8438H31.1152V26.3301C31.2018 26.4258 31.2952 26.5146 31.3955 26.5967C31.4958 26.6787 31.6006 26.7516 31.71 26.8154C31.8968 26.9202 32.0996 27 32.3184 27.0547C32.5417 27.1094 32.7855 27.1367 33.0498 27.1367C33.5146 27.1367 33.9271 27.041 34.2871 26.8496C34.6471 26.6582 34.9502 26.3939 35.1963 26.0566C35.4424 25.724 35.627 25.3275 35.75 24.8672C35.8776 24.4069 35.9414 23.9102 35.9414 23.377V23.2334C35.9414 22.6774 35.8776 22.1693 35.75 21.709C35.6224 21.2441 35.4378 20.8454 35.1963 20.5127C34.9502 20.18 34.6449 19.9225 34.2803 19.7402C33.9202 19.5579 33.5033 19.4668 33.0293 19.4668C32.7878 19.4668 32.5599 19.4941 32.3457 19.5488C32.1315 19.599 31.9355 19.6719 31.7578 19.7676C31.6211 19.8405 31.4935 19.9271 31.375 20.0273C31.2565 20.1276 31.1471 20.2393 31.0469 20.3623L30.9854 19.6035H29.4814V29.8438ZM34.3076 23.2334V23.377C34.3076 23.7051 34.2757 24.0173 34.2119 24.3135C34.1481 24.6051 34.0456 24.8649 33.9043 25.0928C33.7676 25.3161 33.5898 25.4938 33.3711 25.626C33.1569 25.7536 32.8971 25.8174 32.5918 25.8174C32.4049 25.8174 32.234 25.7969 32.0791 25.7559C31.9242 25.7103 31.7852 25.651 31.6621 25.5781C31.5436 25.5007 31.4388 25.4095 31.3477 25.3047C31.2565 25.1999 31.179 25.0837 31.1152 24.9561V21.668C31.1882 21.5312 31.2725 21.4082 31.3682 21.2988C31.4684 21.1895 31.5846 21.0983 31.7168 21.0254C31.8307 20.957 31.9606 20.9046 32.1064 20.8682C32.2523 20.8317 32.4095 20.8135 32.5781 20.8135C32.8835 20.8135 33.1455 20.8773 33.3643 21.0049C33.583 21.1325 33.763 21.3057 33.9043 21.5244C34.041 21.7432 34.1413 22.0007 34.2051 22.2969C34.2734 22.5885 34.3076 22.9007 34.3076 23.2334ZM41.123 22.0918L39.373 19.6035H37.5752L40.166 23.2471L37.4863 27H39.2979L41.1367 24.416L42.9824 27H44.7871L42.1074 23.2471L44.7051 19.6035H42.8936L41.123 22.0918Z" fill="#BD9769"/>
<path d="M56.5518 27H58.1924V20.8271H60.9336V19.6035H58.1924V19.1523C58.1924 18.8926 58.2243 18.6647 58.2881 18.4688C58.3564 18.2728 58.4567 18.1087 58.5889 17.9766C58.7301 17.8353 58.9102 17.7282 59.1289 17.6553C59.3522 17.5824 59.6165 17.5459 59.9219 17.5459C60.2135 17.5459 60.4733 17.5641 60.7012 17.6006C60.9336 17.637 61.141 17.6803 61.3232 17.7305L61.4531 16.4248C61.3164 16.3975 61.182 16.3724 61.0498 16.3496C60.9176 16.3223 60.7878 16.2995 60.6602 16.2812C60.5052 16.2585 60.3457 16.2402 60.1816 16.2266C60.0221 16.2083 59.8581 16.1992 59.6895 16.1992C59.2109 16.1992 58.778 16.263 58.3906 16.3906C58.0078 16.5182 57.6797 16.7051 57.4062 16.9512C57.1328 17.2018 56.9209 17.5117 56.7705 17.8809C56.6247 18.2454 56.5518 18.6693 56.5518 19.1523V19.6035H54.5693V20.8271H56.5518V27ZM66.5527 27.1367C67.2728 27.1367 67.8857 26.9954 68.3916 26.7129C68.902 26.4303 69.2803 26.1113 69.5264 25.7559L68.6514 24.9082C68.4235 25.1999 68.1341 25.4255 67.7832 25.585C67.4323 25.7399 67.054 25.8174 66.6484 25.8174C66.3522 25.8174 66.0788 25.7673 65.8281 25.667C65.582 25.5667 65.3678 25.4255 65.1855 25.2432C65.0033 25.07 64.8597 24.874 64.7549 24.6553C64.6501 24.4365 64.5726 24.1654 64.5225 23.8418V23.8076H69.6494V23.1035C69.6494 22.5749 69.5788 22.0872 69.4375 21.6406C69.2962 21.194 69.0866 20.8089 68.8086 20.4854C68.5306 20.1663 68.1865 19.918 67.7764 19.7402C67.3662 19.5579 66.8945 19.4668 66.3613 19.4668C65.8828 19.4668 65.4316 19.5579 65.0078 19.7402C64.5885 19.918 64.2194 20.1732 63.9004 20.5059C63.5814 20.8385 63.3307 21.2396 63.1484 21.709C62.9661 22.1784 62.875 22.7025 62.875 23.2812V23.5615C62.875 24.0674 62.9616 24.5391 63.1348 24.9766C63.3125 25.4095 63.5632 25.7855 63.8867 26.1045C64.2103 26.4281 64.5977 26.681 65.0488 26.8633C65.5046 27.0456 66.0059 27.1367 66.5527 27.1367ZM66.3545 20.793C66.6279 20.793 66.8672 20.8408 67.0723 20.9365C67.2819 21.0277 67.4551 21.1507 67.5918 21.3057C67.7331 21.4652 67.8424 21.652 67.9199 21.8662C67.9974 22.0758 68.0361 22.2878 68.0361 22.502V22.6113H64.5566C64.6068 22.3288 64.6842 22.0758 64.7891 21.8525C64.8939 21.6292 65.0238 21.4378 65.1787 21.2783C65.3337 21.1234 65.5091 21.0049 65.7051 20.9229C65.9056 20.8363 66.1221 20.793 66.3545 20.793ZM74.79 17.7988H73.1494V19.6035H71.3584V20.8271H73.1494V24.4639C73.1494 24.9378 73.2109 25.3434 73.334 25.6807C73.4616 26.0179 73.637 26.2936 73.8604 26.5078C74.0837 26.7266 74.3503 26.8883 74.6602 26.9932C74.9746 27.0934 75.3187 27.1436 75.6924 27.1436C75.8975 27.1436 76.1025 27.1322 76.3076 27.1094C76.5173 27.0911 76.7178 27.0638 76.9092 27.0273C77.1006 26.9909 77.2783 26.9476 77.4424 26.8975C77.611 26.8428 77.7546 26.779 77.873 26.7061L77.6953 25.5781C77.6133 25.5964 77.5107 25.6191 77.3877 25.6465C77.2692 25.6693 77.1416 25.6898 77.0049 25.708C76.8636 25.7308 76.7178 25.749 76.5674 25.7627C76.417 25.7764 76.2712 25.7832 76.1299 25.7832C75.9339 25.7832 75.7539 25.7604 75.5898 25.7148C75.4258 25.6693 75.2845 25.5918 75.166 25.4824C75.0475 25.3776 74.9541 25.234 74.8857 25.0518C74.8219 24.8649 74.79 24.6348 74.79 24.3613V20.8271H77.5723V19.6035H74.79V17.7988ZM83.1367 25.8242C82.7949 25.8242 82.5101 25.7559 82.2822 25.6191C82.0544 25.4824 81.8743 25.3001 81.7422 25.0723C81.6055 24.8535 81.5075 24.6006 81.4482 24.3135C81.3936 24.0218 81.3662 23.7256 81.3662 23.4248V23.1855C81.3662 22.8893 81.3936 22.5977 81.4482 22.3105C81.5075 22.0234 81.6077 21.7682 81.749 21.5449C81.8812 21.3216 82.0589 21.1416 82.2822 21.0049C82.5101 20.8636 82.7949 20.793 83.1367 20.793C83.36 20.793 83.5674 20.8317 83.7588 20.9092C83.9548 20.9867 84.1234 21.0915 84.2646 21.2236C84.4014 21.3558 84.5062 21.5107 84.5791 21.6885C84.6566 21.8662 84.6953 22.0553 84.6953 22.2559H86.2334C86.238 21.8457 86.1628 21.4697 86.0078 21.1279C85.8574 20.7861 85.6455 20.4922 85.3721 20.2461C85.0986 20 84.7705 19.8086 84.3877 19.6719C84.0094 19.5352 83.597 19.4668 83.1504 19.4668C82.5853 19.4668 82.0885 19.5671 81.6602 19.7676C81.2363 19.9635 80.8809 20.2301 80.5938 20.5674C80.3066 20.9046 80.0902 21.2988 79.9443 21.75C79.8031 22.2012 79.7324 22.6797 79.7324 23.1855V23.4248C79.7324 23.9352 79.8053 24.416 79.9512 24.8672C80.097 25.3138 80.3135 25.7057 80.6006 26.043C80.8831 26.3802 81.2363 26.6491 81.6602 26.8496C82.0885 27.0456 82.5876 27.1436 83.1572 27.1436C83.5674 27.1436 83.957 27.0775 84.3262 26.9453C84.6999 26.8086 85.0303 26.6217 85.3174 26.3848C85.5999 26.1569 85.8232 25.8857 85.9873 25.5713C86.1559 25.2523 86.238 24.9128 86.2334 24.5527H84.6953C84.6953 24.7396 84.652 24.9105 84.5654 25.0654C84.4834 25.2204 84.3717 25.3548 84.2305 25.4688C84.0846 25.5827 83.916 25.6715 83.7246 25.7354C83.5378 25.7946 83.3418 25.8242 83.1367 25.8242ZM89.959 20.6562V16.5H88.3252V27H89.959V21.6475C90.0365 21.529 90.1253 21.4219 90.2256 21.3262C90.3304 21.2305 90.4421 21.1484 90.5605 21.0801C90.7018 20.9935 90.8568 20.9274 91.0254 20.8818C91.1986 20.8363 91.3809 20.8135 91.5723 20.8135C91.8184 20.8135 92.0348 20.8477 92.2217 20.916C92.4131 20.9798 92.5749 21.0801 92.707 21.2168C92.8346 21.3444 92.9303 21.5107 92.9941 21.7158C93.0625 21.9209 93.0967 22.1602 93.0967 22.4336V27H94.7305V22.4473C94.7305 21.9232 94.6667 21.4743 94.5391 21.1006C94.416 20.7223 94.2406 20.4124 94.0127 20.1709C93.7848 19.9294 93.5091 19.7516 93.1855 19.6377C92.8665 19.5238 92.5133 19.4668 92.126 19.4668C91.848 19.4668 91.5837 19.5078 91.333 19.5898C91.0869 19.6673 90.8613 19.7812 90.6562 19.9316C90.5241 20.0228 90.3988 20.1299 90.2803 20.2529C90.1618 20.376 90.0547 20.5104 89.959 20.6562ZM102.92 23.2881V21.9619H97.417V23.2881H102.92ZM111.643 23.377V23.2334C111.643 22.8141 111.604 22.4176 111.526 22.0439C111.453 21.6702 111.344 21.3307 111.198 21.0254C111.089 20.8066 110.961 20.6061 110.815 20.4238C110.674 20.237 110.512 20.0798 110.33 19.9521C110.116 19.7972 109.874 19.6787 109.605 19.5967C109.341 19.5101 109.049 19.4668 108.73 19.4668C108.489 19.4668 108.263 19.4919 108.054 19.542C107.849 19.5876 107.66 19.6582 107.486 19.7539C107.354 19.8268 107.231 19.9111 107.117 20.0068C107.003 20.1025 106.898 20.2096 106.803 20.3281V16.5H105.169V27H106.646L106.721 26.1934C106.803 26.2936 106.887 26.387 106.974 26.4736C107.065 26.5557 107.16 26.6331 107.261 26.7061C107.457 26.8473 107.678 26.9544 107.924 27.0273C108.17 27.1003 108.443 27.1367 108.744 27.1367C109.04 27.1367 109.314 27.098 109.564 27.0205C109.82 26.9476 110.05 26.8428 110.255 26.7061C110.51 26.5374 110.729 26.3255 110.911 26.0703C111.093 25.8151 111.239 25.5303 111.349 25.2158C111.444 24.9515 111.517 24.6644 111.567 24.3545C111.618 24.0446 111.643 23.7188 111.643 23.377ZM110.009 23.2334V23.377C110.009 23.582 109.997 23.7803 109.975 23.9717C109.952 24.1631 109.918 24.3408 109.872 24.5049C109.817 24.7236 109.738 24.9219 109.633 25.0996C109.533 25.2728 109.403 25.4163 109.243 25.5303C109.125 25.6123 108.99 25.6784 108.84 25.7285C108.689 25.7741 108.521 25.7969 108.334 25.7969C108.129 25.7969 107.942 25.7718 107.773 25.7217C107.609 25.667 107.464 25.5941 107.336 25.5029C107.222 25.4163 107.119 25.3184 107.028 25.209C106.942 25.0951 106.867 24.9697 106.803 24.833V21.7705C106.857 21.652 106.921 21.5426 106.994 21.4424C107.072 21.3376 107.158 21.2464 107.254 21.1689C107.386 21.055 107.541 20.9684 107.719 20.9092C107.896 20.8454 108.097 20.8135 108.32 20.8135C108.503 20.8135 108.667 20.834 108.812 20.875C108.958 20.916 109.088 20.9775 109.202 21.0596C109.375 21.1781 109.512 21.3239 109.612 21.4971C109.717 21.6657 109.801 21.8548 109.865 22.0645C109.911 22.2376 109.945 22.4245 109.968 22.625C109.995 22.821 110.009 23.0238 110.009 23.2334ZM118.663 19.4668C118.153 19.4668 117.686 19.5853 117.262 19.8223C116.842 20.0592 116.482 20.3851 116.182 20.7998L116.175 20.6289L116.106 19.6035H114.575V27H116.209V22.4336C116.296 22.2148 116.403 22.0212 116.53 21.8525C116.658 21.6839 116.813 21.5449 116.995 21.4355C117.164 21.3216 117.357 21.2373 117.576 21.1826C117.795 21.1279 118.041 21.1006 118.314 21.1006C118.556 21.1006 118.798 21.1143 119.039 21.1416C119.285 21.1689 119.534 21.21 119.784 21.2646L120.017 19.6514C119.875 19.6012 119.679 19.5579 119.429 19.5215C119.183 19.485 118.927 19.4668 118.663 19.4668ZM122.334 19.6035V20.9639H124.61V25.6465H122.334V27H128.432V25.6465H126.258V19.6035H122.334ZM124.46 17.6895C124.46 17.8626 124.501 18.0153 124.583 18.1475C124.67 18.2751 124.795 18.3639 124.959 18.4141C125.118 18.4642 125.264 18.4756 125.396 18.4482C125.529 18.4209 125.643 18.3639 125.738 18.2773C125.93 18.2272 126.076 18.1292 126.176 17.9834C126.276 17.833 126.31 17.6576 126.278 17.457C126.256 17.2611 126.167 17.1016 126.012 16.9785C125.861 16.8509 125.663 16.7871 125.417 16.7871C125.271 16.7871 125.139 16.8099 125.021 16.8555C124.907 16.8965 124.809 16.9557 124.727 17.0332C124.64 17.1152 124.574 17.2132 124.528 17.3271C124.483 17.4365 124.46 17.5573 124.46 17.6895ZM130.147 23.2471V23.3906C130.147 23.9238 130.216 24.4206 130.353 24.8809C130.489 25.3366 130.683 25.7308 130.934 26.0635C131.184 26.4007 131.49 26.665 131.85 26.8564C132.21 27.0433 132.615 27.1367 133.066 27.1367C133.495 27.1367 133.873 27.0592 134.201 26.9043C134.529 26.7448 134.812 26.5192 135.049 26.2275L135.124 27H136.607V16.5H134.974V20.2939C134.737 20.0296 134.463 19.8268 134.153 19.6855C133.848 19.5397 133.49 19.4668 133.08 19.4668C132.624 19.4668 132.214 19.5602 131.85 19.7471C131.49 19.9294 131.184 20.1868 130.934 20.5195C130.678 20.8522 130.482 21.251 130.346 21.7158C130.214 22.1761 130.147 22.6865 130.147 23.2471ZM131.781 23.3906V23.2471C131.781 22.9144 131.813 22.6022 131.877 22.3105C131.941 22.0143 132.043 21.7546 132.185 21.5312C132.317 21.3079 132.49 21.1325 132.704 21.0049C132.923 20.8773 133.185 20.8135 133.49 20.8135C133.855 20.8135 134.156 20.8955 134.393 21.0596C134.634 21.2191 134.828 21.4355 134.974 21.709V24.8877C134.828 25.1657 134.634 25.3867 134.393 25.5508C134.151 25.7103 133.846 25.79 133.477 25.79C133.176 25.79 132.918 25.7285 132.704 25.6055C132.49 25.4779 132.314 25.3024 132.178 25.0791C132.041 24.8649 131.941 24.612 131.877 24.3203C131.813 24.0286 131.781 23.7188 131.781 23.3906ZM138.562 23.2471V23.3906C138.562 23.9238 138.631 24.4206 138.768 24.8809C138.909 25.3366 139.107 25.7308 139.362 26.0635C139.622 26.4007 139.934 26.665 140.299 26.8564C140.663 27.0433 141.074 27.1367 141.529 27.1367C141.78 27.1367 142.012 27.1094 142.227 27.0547C142.441 27.0046 142.637 26.9294 142.814 26.8291C142.933 26.7653 143.042 26.6901 143.143 26.6035C143.247 26.5169 143.348 26.4235 143.443 26.3232V26.8359C143.443 27.1139 143.402 27.3623 143.32 27.5811C143.243 27.7998 143.131 27.9844 142.985 28.1348C142.826 28.2897 142.632 28.4082 142.404 28.4902C142.181 28.5723 141.924 28.6133 141.632 28.6133C141.463 28.6133 141.297 28.5951 141.133 28.5586C140.969 28.5267 140.807 28.4743 140.647 28.4014C140.488 28.3285 140.331 28.2327 140.176 28.1143C140.025 28.0003 139.884 27.8636 139.752 27.7041L138.979 28.6953C139.144 28.9141 139.34 29.1009 139.567 29.2559C139.795 29.4108 140.035 29.5361 140.285 29.6318C140.536 29.7275 140.786 29.7982 141.037 29.8438C141.288 29.8893 141.518 29.9121 141.728 29.9121C142.224 29.9121 142.678 29.8415 143.088 29.7002C143.503 29.5635 143.858 29.363 144.154 29.0986C144.446 28.8298 144.672 28.5016 144.831 28.1143C144.995 27.7314 145.077 27.2917 145.077 26.7949V19.6035H143.594L143.525 20.3486C143.434 20.2393 143.336 20.139 143.231 20.0479C143.127 19.9521 143.015 19.8701 142.896 19.8018C142.714 19.6924 142.511 19.6104 142.288 19.5557C142.065 19.4964 141.816 19.4668 141.543 19.4668C141.083 19.4668 140.668 19.5602 140.299 19.7471C139.934 19.9294 139.622 20.1868 139.362 20.5195C139.103 20.8522 138.904 21.251 138.768 21.7158C138.631 22.1761 138.562 22.6865 138.562 23.2471ZM140.203 23.3906V23.2471C140.203 22.9144 140.237 22.6022 140.306 22.3105C140.374 22.0143 140.481 21.7546 140.627 21.5312C140.768 21.3079 140.948 21.1325 141.167 21.0049C141.386 20.8773 141.648 20.8135 141.953 20.8135C142.126 20.8135 142.286 20.834 142.432 20.875C142.577 20.9115 142.71 20.9616 142.828 21.0254C142.96 21.1029 143.076 21.1963 143.177 21.3057C143.282 21.415 143.37 21.5381 143.443 21.6748V24.915C143.37 25.0472 143.286 25.168 143.19 25.2773C143.095 25.3867 142.985 25.4801 142.862 25.5576C142.739 25.6305 142.6 25.6875 142.445 25.7285C142.295 25.7695 142.126 25.79 141.939 25.79C141.639 25.79 141.379 25.7285 141.16 25.6055C140.941 25.4779 140.761 25.3024 140.62 25.0791C140.474 24.8649 140.367 24.612 140.299 24.3203C140.235 24.0286 140.203 23.7188 140.203 23.3906ZM150.635 27.1367C151.355 27.1367 151.968 26.9954 152.474 26.7129C152.984 26.4303 153.362 26.1113 153.608 25.7559L152.733 24.9082C152.506 25.1999 152.216 25.4255 151.865 25.585C151.514 25.7399 151.136 25.8174 150.73 25.8174C150.434 25.8174 150.161 25.7673 149.91 25.667C149.664 25.5667 149.45 25.4255 149.268 25.2432C149.085 25.07 148.942 24.874 148.837 24.6553C148.732 24.4365 148.655 24.1654 148.604 23.8418V23.8076H153.731V23.1035C153.731 22.5749 153.661 22.0872 153.52 21.6406C153.378 21.194 153.169 20.8089 152.891 20.4854C152.613 20.1663 152.269 19.918 151.858 19.7402C151.448 19.5579 150.977 19.4668 150.443 19.4668C149.965 19.4668 149.514 19.5579 149.09 19.7402C148.671 19.918 148.301 20.1732 147.982 20.5059C147.663 20.8385 147.413 21.2396 147.23 21.709C147.048 22.1784 146.957 22.7025 146.957 23.2812V23.5615C146.957 24.0674 147.044 24.5391 147.217 24.9766C147.395 25.4095 147.645 25.7855 147.969 26.1045C148.292 26.4281 148.68 26.681 149.131 26.8633C149.587 27.0456 150.088 27.1367 150.635 27.1367ZM150.437 20.793C150.71 20.793 150.949 20.8408 151.154 20.9365C151.364 21.0277 151.537 21.1507 151.674 21.3057C151.815 21.4652 151.924 21.652 152.002 21.8662C152.079 22.0758 152.118 22.2878 152.118 22.502V22.6113H148.639C148.689 22.3288 148.766 22.0758 148.871 21.8525C148.976 21.6292 149.106 21.4378 149.261 21.2783C149.416 21.1234 149.591 21.0049 149.787 20.9229C149.988 20.8363 150.204 20.793 150.437 20.793ZM161.777 23.2881V21.9619H156.274V23.2881H161.777ZM168.832 24.9971C168.832 25.1156 168.805 25.2249 168.75 25.3252C168.7 25.4209 168.622 25.5098 168.518 25.5918C168.39 25.6921 168.219 25.7718 168.005 25.8311C167.795 25.8903 167.549 25.9199 167.267 25.9199C167.057 25.9199 166.85 25.8994 166.645 25.8584C166.439 25.8128 166.257 25.7399 166.098 25.6396C165.934 25.5439 165.797 25.4186 165.688 25.2637C165.583 25.1042 165.523 24.9105 165.51 24.6826H163.924C163.924 24.988 163.997 25.2887 164.143 25.585C164.288 25.8812 164.503 26.1432 164.785 26.3711C165.063 26.6035 165.407 26.7904 165.817 26.9316C166.232 27.0729 166.706 27.1436 167.239 27.1436C167.718 27.1436 168.153 27.0889 168.545 26.9795C168.937 26.8701 169.274 26.7174 169.557 26.5215C169.835 26.3255 170.049 26.0908 170.199 25.8174C170.354 25.5439 170.432 25.2432 170.432 24.915C170.432 24.5778 170.359 24.2861 170.213 24.04C170.067 23.7939 169.862 23.5798 169.598 23.3975C169.333 23.2243 169.014 23.0785 168.641 22.96C168.267 22.8415 167.854 22.7412 167.403 22.6592C167.08 22.6045 166.811 22.543 166.597 22.4746C166.387 22.4062 166.223 22.3311 166.104 22.249C165.977 22.1715 165.888 22.0827 165.838 21.9824C165.788 21.8776 165.763 21.7614 165.763 21.6338C165.763 21.5107 165.792 21.3945 165.852 21.2852C165.911 21.1712 166 21.0732 166.118 20.9912C166.237 20.9001 166.387 20.8294 166.569 20.7793C166.756 20.7246 166.973 20.6973 167.219 20.6973C167.488 20.6973 167.722 20.7337 167.923 20.8066C168.123 20.875 168.287 20.9684 168.415 21.0869C168.524 21.1872 168.606 21.3011 168.661 21.4287C168.72 21.5518 168.75 21.6816 168.75 21.8184H170.384C170.384 21.4857 170.311 21.1758 170.165 20.8887C170.019 20.6016 169.812 20.3532 169.543 20.1436C169.27 19.9339 168.937 19.7699 168.545 19.6514C168.153 19.5283 167.711 19.4668 167.219 19.4668C166.758 19.4668 166.339 19.526 165.961 19.6445C165.587 19.763 165.268 19.9248 165.004 20.1299C164.735 20.335 164.528 20.5742 164.382 20.8477C164.241 21.1165 164.17 21.4014 164.17 21.7021C164.17 22.0166 164.241 22.2923 164.382 22.5293C164.523 22.7663 164.719 22.9714 164.97 23.1445C165.225 23.3268 165.528 23.4818 165.879 23.6094C166.234 23.737 166.626 23.8441 167.055 23.9307C167.396 23.9945 167.681 24.0628 167.909 24.1357C168.137 24.2087 168.322 24.2861 168.463 24.3682C168.595 24.4593 168.688 24.555 168.743 24.6553C168.802 24.7555 168.832 24.8695 168.832 24.9971ZM172.188 23.2471V23.3906C172.188 23.9238 172.257 24.4206 172.394 24.8809C172.53 25.3366 172.724 25.7308 172.975 26.0635C173.225 26.4007 173.531 26.665 173.891 26.8564C174.251 27.0433 174.656 27.1367 175.107 27.1367C175.536 27.1367 175.914 27.0592 176.242 26.9043C176.57 26.7448 176.853 26.5192 177.09 26.2275L177.165 27H178.648V16.5H177.015V20.2939C176.778 20.0296 176.504 19.8268 176.194 19.6855C175.889 19.5397 175.531 19.4668 175.121 19.4668C174.665 19.4668 174.255 19.5602 173.891 19.7471C173.531 19.9294 173.225 20.1868 172.975 20.5195C172.719 20.8522 172.523 21.251 172.387 21.7158C172.255 22.1761 172.188 22.6865 172.188 23.2471ZM173.822 23.3906V23.2471C173.822 22.9144 173.854 22.6022 173.918 22.3105C173.982 22.0143 174.084 21.7546 174.226 21.5312C174.358 21.3079 174.531 21.1325 174.745 21.0049C174.964 20.8773 175.226 20.8135 175.531 20.8135C175.896 20.8135 176.197 20.8955 176.434 21.0596C176.675 21.2191 176.869 21.4355 177.015 21.709V24.8877C176.869 25.1657 176.675 25.3867 176.434 25.5508C176.192 25.7103 175.887 25.79 175.518 25.79C175.217 25.79 174.959 25.7285 174.745 25.6055C174.531 25.4779 174.355 25.3024 174.219 25.0791C174.082 24.8649 173.982 24.612 173.918 24.3203C173.854 24.0286 173.822 23.7188 173.822 23.3906ZM183.358 23.7803L185.717 27H187.74L184.445 22.6865L187.323 19.6035H185.354L183.146 21.9277L182.47 22.6797V16.5H180.829V27H182.47V24.6211L183.358 23.7803ZM204.133 23.377V23.2334C204.133 22.8141 204.094 22.4176 204.017 22.0439C203.944 21.6702 203.834 21.3307 203.688 21.0254C203.579 20.8066 203.451 20.6061 203.306 20.4238C203.164 20.237 203.003 20.0798 202.82 19.9521C202.606 19.7972 202.365 19.6787 202.096 19.5967C201.831 19.5101 201.54 19.4668 201.221 19.4668C200.979 19.4668 200.754 19.4919 200.544 19.542C200.339 19.5876 200.15 19.6582 199.977 19.7539C199.844 19.8268 199.721 19.9111 199.607 20.0068C199.493 20.1025 199.389 20.2096 199.293 20.3281V16.5H197.659V27H199.136L199.211 26.1934C199.293 26.2936 199.377 26.387 199.464 26.4736C199.555 26.5557 199.651 26.6331 199.751 26.7061C199.947 26.8473 200.168 26.9544 200.414 27.0273C200.66 27.1003 200.934 27.1367 201.234 27.1367C201.531 27.1367 201.804 27.098 202.055 27.0205C202.31 26.9476 202.54 26.8428 202.745 26.7061C203 26.5374 203.219 26.3255 203.401 26.0703C203.584 25.8151 203.729 25.5303 203.839 25.2158C203.935 24.9515 204.007 24.6644 204.058 24.3545C204.108 24.0446 204.133 23.7188 204.133 23.377ZM202.499 23.2334V23.377C202.499 23.582 202.488 23.7803 202.465 23.9717C202.442 24.1631 202.408 24.3408 202.362 24.5049C202.308 24.7236 202.228 24.9219 202.123 25.0996C202.023 25.2728 201.893 25.4163 201.733 25.5303C201.615 25.6123 201.48 25.6784 201.33 25.7285C201.18 25.7741 201.011 25.7969 200.824 25.7969C200.619 25.7969 200.432 25.7718 200.264 25.7217C200.1 25.667 199.954 25.5941 199.826 25.5029C199.712 25.4163 199.61 25.3184 199.519 25.209C199.432 25.0951 199.357 24.9697 199.293 24.833V21.7705C199.348 21.652 199.411 21.5426 199.484 21.4424C199.562 21.3376 199.648 21.2464 199.744 21.1689C199.876 21.055 200.031 20.9684 200.209 20.9092C200.387 20.8454 200.587 20.8135 200.811 20.8135C200.993 20.8135 201.157 20.834 201.303 20.875C201.449 20.916 201.578 20.9775 201.692 21.0596C201.866 21.1781 202.002 21.3239 202.103 21.4971C202.207 21.6657 202.292 21.8548 202.355 22.0645C202.401 22.2376 202.435 22.4245 202.458 22.625C202.485 22.821 202.499 23.0238 202.499 23.2334ZM211.153 19.4668C210.643 19.4668 210.176 19.5853 209.752 19.8223C209.333 20.0592 208.973 20.3851 208.672 20.7998L208.665 20.6289L208.597 19.6035H207.065V27H208.699V22.4336C208.786 22.2148 208.893 22.0212 209.021 21.8525C209.148 21.6839 209.303 21.5449 209.485 21.4355C209.654 21.3216 209.848 21.2373 210.066 21.1826C210.285 21.1279 210.531 21.1006 210.805 21.1006C211.046 21.1006 211.288 21.1143 211.529 21.1416C211.775 21.1689 212.024 21.21 212.274 21.2646L212.507 19.6514C212.366 19.6012 212.17 19.5579 211.919 19.5215C211.673 19.485 211.418 19.4668 211.153 19.4668ZM214.824 19.6035V20.9639H217.101V25.6465H214.824V27H220.922V25.6465H218.748V19.6035H214.824ZM216.95 17.6895C216.95 17.8626 216.991 18.0153 217.073 18.1475C217.16 18.2751 217.285 18.3639 217.449 18.4141C217.609 18.4642 217.755 18.4756 217.887 18.4482C218.019 18.4209 218.133 18.3639 218.229 18.2773C218.42 18.2272 218.566 18.1292 218.666 17.9834C218.766 17.833 218.8 17.6576 218.769 17.457C218.746 17.2611 218.657 17.1016 218.502 16.9785C218.352 16.8509 218.153 16.7871 217.907 16.7871C217.761 16.7871 217.629 16.8099 217.511 16.8555C217.397 16.8965 217.299 16.9557 217.217 17.0332C217.13 17.1152 217.064 17.2132 217.019 17.3271C216.973 17.4365 216.95 17.5573 216.95 17.6895ZM222.638 23.2471V23.3906C222.638 23.9238 222.706 24.4206 222.843 24.8809C222.979 25.3366 223.173 25.7308 223.424 26.0635C223.674 26.4007 223.98 26.665 224.34 26.8564C224.7 27.0433 225.105 27.1367 225.557 27.1367C225.985 27.1367 226.363 27.0592 226.691 26.9043C227.02 26.7448 227.302 26.5192 227.539 26.2275L227.614 27H229.098V16.5H227.464V20.2939C227.227 20.0296 226.953 19.8268 226.644 19.6855C226.338 19.5397 225.98 19.4668 225.57 19.4668C225.115 19.4668 224.704 19.5602 224.34 19.7471C223.98 19.9294 223.674 20.1868 223.424 20.5195C223.169 20.8522 222.973 21.251 222.836 21.7158C222.704 22.1761 222.638 22.6865 222.638 23.2471ZM224.271 23.3906V23.2471C224.271 22.9144 224.303 22.6022 224.367 22.3105C224.431 22.0143 224.534 21.7546 224.675 21.5312C224.807 21.3079 224.98 21.1325 225.194 21.0049C225.413 20.8773 225.675 20.8135 225.98 20.8135C226.345 20.8135 226.646 20.8955 226.883 21.0596C227.124 21.2191 227.318 21.4355 227.464 21.709V24.8877C227.318 25.1657 227.124 25.3867 226.883 25.5508C226.641 25.7103 226.336 25.79 225.967 25.79C225.666 25.79 225.409 25.7285 225.194 25.6055C224.98 25.4779 224.805 25.3024 224.668 25.0791C224.531 24.8649 224.431 24.612 224.367 24.3203C224.303 24.0286 224.271 23.7188 224.271 23.3906ZM231.053 23.2471V23.3906C231.053 23.9238 231.121 24.4206 231.258 24.8809C231.399 25.3366 231.597 25.7308 231.853 26.0635C232.112 26.4007 232.424 26.665 232.789 26.8564C233.154 27.0433 233.564 27.1367 234.02 27.1367C234.27 27.1367 234.503 27.1094 234.717 27.0547C234.931 27.0046 235.127 26.9294 235.305 26.8291C235.423 26.7653 235.533 26.6901 235.633 26.6035C235.738 26.5169 235.838 26.4235 235.934 26.3232V26.8359C235.934 27.1139 235.893 27.3623 235.811 27.5811C235.733 27.7998 235.621 27.9844 235.476 28.1348C235.316 28.2897 235.122 28.4082 234.895 28.4902C234.671 28.5723 234.414 28.6133 234.122 28.6133C233.953 28.6133 233.787 28.5951 233.623 28.5586C233.459 28.5267 233.297 28.4743 233.138 28.4014C232.978 28.3285 232.821 28.2327 232.666 28.1143C232.516 28.0003 232.374 27.8636 232.242 27.7041L231.47 28.6953C231.634 28.9141 231.83 29.1009 232.058 29.2559C232.285 29.4108 232.525 29.5361 232.775 29.6318C233.026 29.7275 233.277 29.7982 233.527 29.8438C233.778 29.8893 234.008 29.9121 234.218 29.9121C234.715 29.9121 235.168 29.8415 235.578 29.7002C235.993 29.5635 236.348 29.363 236.645 29.0986C236.936 28.8298 237.162 28.5016 237.321 28.1143C237.485 27.7314 237.567 27.2917 237.567 26.7949V19.6035H236.084L236.016 20.3486C235.924 20.2393 235.826 20.139 235.722 20.0479C235.617 19.9521 235.505 19.8701 235.387 19.8018C235.204 19.6924 235.002 19.6104 234.778 19.5557C234.555 19.4964 234.307 19.4668 234.033 19.4668C233.573 19.4668 233.158 19.5602 232.789 19.7471C232.424 19.9294 232.112 20.1868 231.853 20.5195C231.593 20.8522 231.395 21.251 231.258 21.7158C231.121 22.1761 231.053 22.6865 231.053 23.2471ZM232.693 23.3906V23.2471C232.693 22.9144 232.728 22.6022 232.796 22.3105C232.864 22.0143 232.971 21.7546 233.117 21.5312C233.258 21.3079 233.438 21.1325 233.657 21.0049C233.876 20.8773 234.138 20.8135 234.443 20.8135C234.617 20.8135 234.776 20.834 234.922 20.875C235.068 20.9115 235.2 20.9616 235.318 21.0254C235.451 21.1029 235.567 21.1963 235.667 21.3057C235.772 21.415 235.861 21.5381 235.934 21.6748V24.915C235.861 25.0472 235.776 25.168 235.681 25.2773C235.585 25.3867 235.476 25.4801 235.353 25.5576C235.229 25.6305 235.09 25.6875 234.936 25.7285C234.785 25.7695 234.617 25.79 234.43 25.79C234.129 25.79 233.869 25.7285 233.65 25.6055C233.432 25.4779 233.252 25.3024 233.11 25.0791C232.965 24.8649 232.857 24.612 232.789 24.3203C232.725 24.0286 232.693 23.7188 232.693 23.3906ZM243.125 27.1367C243.845 27.1367 244.458 26.9954 244.964 26.7129C245.474 26.4303 245.853 26.1113 246.099 25.7559L245.224 24.9082C244.996 25.1999 244.706 25.4255 244.355 25.585C244.005 25.7399 243.626 25.8174 243.221 25.8174C242.924 25.8174 242.651 25.7673 242.4 25.667C242.154 25.5667 241.94 25.4255 241.758 25.2432C241.576 25.07 241.432 24.874 241.327 24.6553C241.222 24.4365 241.145 24.1654 241.095 23.8418V23.8076H246.222V23.1035C246.222 22.5749 246.151 22.0872 246.01 21.6406C245.868 21.194 245.659 20.8089 245.381 20.4854C245.103 20.1663 244.759 19.918 244.349 19.7402C243.938 19.5579 243.467 19.4668 242.934 19.4668C242.455 19.4668 242.004 19.5579 241.58 19.7402C241.161 19.918 240.792 20.1732 240.473 20.5059C240.154 20.8385 239.903 21.2396 239.721 21.709C239.538 22.1784 239.447 22.7025 239.447 23.2812V23.5615C239.447 24.0674 239.534 24.5391 239.707 24.9766C239.885 25.4095 240.135 25.7855 240.459 26.1045C240.783 26.4281 241.17 26.681 241.621 26.8633C242.077 27.0456 242.578 27.1367 243.125 27.1367ZM242.927 20.793C243.2 20.793 243.439 20.8408 243.645 20.9365C243.854 21.0277 244.027 21.1507 244.164 21.3057C244.305 21.4652 244.415 21.652 244.492 21.8662C244.57 22.0758 244.608 22.2878 244.608 22.502V22.6113H241.129C241.179 22.3288 241.257 22.0758 241.361 21.8525C241.466 21.6292 241.596 21.4378 241.751 21.2783C241.906 21.1234 242.081 21.0049 242.277 20.9229C242.478 20.8363 242.694 20.793 242.927 20.793ZM254.268 23.2881V21.9619H248.765V23.2881H254.268ZM259.709 25.8242C259.367 25.8242 259.082 25.7559 258.854 25.6191C258.627 25.4824 258.447 25.3001 258.314 25.0723C258.178 24.8535 258.08 24.6006 258.021 24.3135C257.966 24.0218 257.938 23.7256 257.938 23.4248V23.1855C257.938 22.8893 257.966 22.5977 258.021 22.3105C258.08 22.0234 258.18 21.7682 258.321 21.5449C258.453 21.3216 258.631 21.1416 258.854 21.0049C259.082 20.8636 259.367 20.793 259.709 20.793C259.932 20.793 260.14 20.8317 260.331 20.9092C260.527 20.9867 260.696 21.0915 260.837 21.2236C260.974 21.3558 261.078 21.5107 261.151 21.6885C261.229 21.8662 261.268 22.0553 261.268 22.2559H262.806C262.81 21.8457 262.735 21.4697 262.58 21.1279C262.43 20.7861 262.218 20.4922 261.944 20.2461C261.671 20 261.343 19.8086 260.96 19.6719C260.582 19.5352 260.169 19.4668 259.723 19.4668C259.158 19.4668 258.661 19.5671 258.232 19.7676C257.809 19.9635 257.453 20.2301 257.166 20.5674C256.879 20.9046 256.662 21.2988 256.517 21.75C256.375 22.2012 256.305 22.6797 256.305 23.1855V23.4248C256.305 23.9352 256.378 24.416 256.523 24.8672C256.669 25.3138 256.886 25.7057 257.173 26.043C257.455 26.3802 257.809 26.6491 258.232 26.8496C258.661 27.0456 259.16 27.1436 259.729 27.1436C260.14 27.1436 260.529 27.0775 260.898 26.9453C261.272 26.8086 261.603 26.6217 261.89 26.3848C262.172 26.1569 262.396 25.8857 262.56 25.5713C262.728 25.2523 262.81 24.9128 262.806 24.5527H261.268C261.268 24.7396 261.224 24.9105 261.138 25.0654C261.056 25.2204 260.944 25.3548 260.803 25.4688C260.657 25.5827 260.488 25.6715 260.297 25.7354C260.11 25.7946 259.914 25.8242 259.709 25.8242ZM264.597 23.2334V23.377C264.597 23.9193 264.674 24.4183 264.829 24.874C264.984 25.3298 265.21 25.7262 265.506 26.0635C265.798 26.4007 266.158 26.665 266.586 26.8564C267.014 27.0479 267.5 27.1436 268.042 27.1436C268.58 27.1436 269.061 27.0479 269.484 26.8564C269.913 26.665 270.273 26.4007 270.564 26.0635C270.856 25.7262 271.079 25.3298 271.234 24.874C271.389 24.4183 271.467 23.9193 271.467 23.377V23.2334C271.467 22.6956 271.389 22.1989 271.234 21.7432C271.079 21.2829 270.856 20.8841 270.564 20.5469C270.268 20.2096 269.906 19.9453 269.478 19.7539C269.054 19.5625 268.571 19.4668 268.028 19.4668C267.486 19.4668 267.003 19.5625 266.579 19.7539C266.155 19.9453 265.798 20.2096 265.506 20.5469C265.21 20.8841 264.984 21.2829 264.829 21.7432C264.674 22.1989 264.597 22.6956 264.597 23.2334ZM266.23 23.377V23.2334C266.23 22.9098 266.265 22.5999 266.333 22.3037C266.406 22.0075 266.518 21.7477 266.668 21.5244C266.814 21.3011 266.998 21.1234 267.222 20.9912C267.45 20.859 267.718 20.793 268.028 20.793C268.343 20.793 268.612 20.859 268.835 20.9912C269.063 21.1234 269.252 21.3011 269.402 21.5244C269.544 21.7477 269.651 22.0075 269.724 22.3037C269.797 22.5999 269.833 22.9098 269.833 23.2334V23.377C269.833 23.7096 269.797 24.0241 269.724 24.3203C269.655 24.6165 269.548 24.8763 269.402 25.0996C269.257 25.3229 269.07 25.5007 268.842 25.6328C268.614 25.7604 268.347 25.8242 268.042 25.8242C267.728 25.8242 267.456 25.7604 267.229 25.6328C267.001 25.5007 266.814 25.3229 266.668 25.0996C266.518 24.8763 266.406 24.6165 266.333 24.3203C266.265 24.0241 266.23 23.7096 266.23 23.377ZM273.087 23.2471V23.3906C273.087 23.9238 273.155 24.4206 273.292 24.8809C273.429 25.3366 273.622 25.7308 273.873 26.0635C274.124 26.4007 274.429 26.665 274.789 26.8564C275.149 27.0433 275.555 27.1367 276.006 27.1367C276.434 27.1367 276.812 27.0592 277.141 26.9043C277.469 26.7448 277.751 26.5192 277.988 26.2275L278.063 27H279.547V16.5H277.913V20.2939C277.676 20.0296 277.403 19.8268 277.093 19.6855C276.787 19.5397 276.43 19.4668 276.02 19.4668C275.564 19.4668 275.154 19.5602 274.789 19.7471C274.429 19.9294 274.124 20.1868 273.873 20.5195C273.618 20.8522 273.422 21.251 273.285 21.7158C273.153 22.1761 273.087 22.6865 273.087 23.2471ZM274.721 23.3906V23.2471C274.721 22.9144 274.753 22.6022 274.816 22.3105C274.88 22.0143 274.983 21.7546 275.124 21.5312C275.256 21.3079 275.429 21.1325 275.644 21.0049C275.862 20.8773 276.124 20.8135 276.43 20.8135C276.794 20.8135 277.095 20.8955 277.332 21.0596C277.574 21.2191 277.767 21.4355 277.913 21.709V24.8877C277.767 25.1657 277.574 25.3867 277.332 25.5508C277.09 25.7103 276.785 25.79 276.416 25.79C276.115 25.79 275.858 25.7285 275.644 25.6055C275.429 25.4779 275.254 25.3024 275.117 25.0791C274.98 24.8649 274.88 24.612 274.816 24.3203C274.753 24.0286 274.721 23.7188 274.721 23.3906ZM285.166 27.1367C285.886 27.1367 286.499 26.9954 287.005 26.7129C287.515 26.4303 287.894 26.1113 288.14 25.7559L287.265 24.9082C287.037 25.1999 286.747 25.4255 286.396 25.585C286.046 25.7399 285.667 25.8174 285.262 25.8174C284.965 25.8174 284.692 25.7673 284.441 25.667C284.195 25.5667 283.981 25.4255 283.799 25.2432C283.617 25.07 283.473 24.874 283.368 24.6553C283.263 24.4365 283.186 24.1654 283.136 23.8418V23.8076H288.263V23.1035C288.263 22.5749 288.192 22.0872 288.051 21.6406C287.91 21.194 287.7 20.8089 287.422 20.4854C287.144 20.1663 286.8 19.918 286.39 19.7402C285.979 19.5579 285.508 19.4668 284.975 19.4668C284.496 19.4668 284.045 19.5579 283.621 19.7402C283.202 19.918 282.833 20.1732 282.514 20.5059C282.195 20.8385 281.944 21.2396 281.762 21.709C281.579 22.1784 281.488 22.7025 281.488 23.2812V23.5615C281.488 24.0674 281.575 24.5391 281.748 24.9766C281.926 25.4095 282.176 25.7855 282.5 26.1045C282.824 26.4281 283.211 26.681 283.662 26.8633C284.118 27.0456 284.619 27.1367 285.166 27.1367ZM284.968 20.793C285.241 20.793 285.48 20.8408 285.686 20.9365C285.895 21.0277 286.068 21.1507 286.205 21.3057C286.346 21.4652 286.456 21.652 286.533 21.8662C286.611 22.0758 286.649 22.2878 286.649 22.502V22.6113H283.17C283.22 22.3288 283.298 22.0758 283.402 21.8525C283.507 21.6292 283.637 21.4378 283.792 21.2783C283.947 21.1234 284.122 21.0049 284.318 20.9229C284.519 20.8363 284.735 20.793 284.968 20.793ZM294.955 24.9971C294.955 25.1156 294.928 25.2249 294.873 25.3252C294.823 25.4209 294.745 25.5098 294.641 25.5918C294.513 25.6921 294.342 25.7718 294.128 25.8311C293.918 25.8903 293.672 25.9199 293.39 25.9199C293.18 25.9199 292.973 25.8994 292.768 25.8584C292.562 25.8128 292.38 25.7399 292.221 25.6396C292.057 25.5439 291.92 25.4186 291.811 25.2637C291.706 25.1042 291.646 24.9105 291.633 24.6826H290.047C290.047 24.988 290.12 25.2887 290.266 25.585C290.411 25.8812 290.626 26.1432 290.908 26.3711C291.186 26.6035 291.53 26.7904 291.94 26.9316C292.355 27.0729 292.829 27.1436 293.362 27.1436C293.841 27.1436 294.276 27.0889 294.668 26.9795C295.06 26.8701 295.397 26.7174 295.68 26.5215C295.958 26.3255 296.172 26.0908 296.322 25.8174C296.477 25.5439 296.555 25.2432 296.555 24.915C296.555 24.5778 296.482 24.2861 296.336 24.04C296.19 23.7939 295.985 23.5798 295.721 23.3975C295.456 23.2243 295.137 23.0785 294.764 22.96C294.39 22.8415 293.978 22.7412 293.526 22.6592C293.203 22.6045 292.934 22.543 292.72 22.4746C292.51 22.4062 292.346 22.3311 292.228 22.249C292.1 22.1715 292.011 22.0827 291.961 21.9824C291.911 21.8776 291.886 21.7614 291.886 21.6338C291.886 21.5107 291.915 21.3945 291.975 21.2852C292.034 21.1712 292.123 21.0732 292.241 20.9912C292.36 20.9001 292.51 20.8294 292.692 20.7793C292.879 20.7246 293.096 20.6973 293.342 20.6973C293.611 20.6973 293.845 20.7337 294.046 20.8066C294.246 20.875 294.41 20.9684 294.538 21.0869C294.647 21.1872 294.729 21.3011 294.784 21.4287C294.843 21.5518 294.873 21.6816 294.873 21.8184H296.507C296.507 21.4857 296.434 21.1758 296.288 20.8887C296.142 20.6016 295.935 20.3532 295.666 20.1436C295.393 19.9339 295.06 19.7699 294.668 19.6514C294.276 19.5283 293.834 19.4668 293.342 19.4668C292.882 19.4668 292.462 19.526 292.084 19.6445C291.71 19.763 291.391 19.9248 291.127 20.1299C290.858 20.335 290.651 20.5742 290.505 20.8477C290.364 21.1165 290.293 21.4014 290.293 21.7021C290.293 22.0166 290.364 22.2923 290.505 22.5293C290.646 22.7663 290.842 22.9714 291.093 23.1445C291.348 23.3268 291.651 23.4818 292.002 23.6094C292.357 23.737 292.749 23.8441 293.178 23.9307C293.52 23.9945 293.804 24.0628 294.032 24.1357C294.26 24.2087 294.445 24.2861 294.586 24.3682C294.718 24.4593 294.812 24.555 294.866 24.6553C294.925 24.7555 294.955 24.8695 294.955 24.9971ZM300.567 27.8545L304.471 17.0469H302.974L299.063 27.8545H300.567ZM311.771 24.9971C311.771 25.1156 311.744 25.2249 311.689 25.3252C311.639 25.4209 311.562 25.5098 311.457 25.5918C311.329 25.6921 311.159 25.7718 310.944 25.8311C310.735 25.8903 310.489 25.9199 310.206 25.9199C309.996 25.9199 309.789 25.8994 309.584 25.8584C309.379 25.8128 309.197 25.7399 309.037 25.6396C308.873 25.5439 308.736 25.4186 308.627 25.2637C308.522 25.1042 308.463 24.9105 308.449 24.6826H306.863C306.863 24.988 306.936 25.2887 307.082 25.585C307.228 25.8812 307.442 26.1432 307.725 26.3711C308.003 26.6035 308.347 26.7904 308.757 26.9316C309.172 27.0729 309.646 27.1436 310.179 27.1436C310.657 27.1436 311.092 27.0889 311.484 26.9795C311.876 26.8701 312.214 26.7174 312.496 26.5215C312.774 26.3255 312.988 26.0908 313.139 25.8174C313.294 25.5439 313.371 25.2432 313.371 24.915C313.371 24.5778 313.298 24.2861 313.152 24.04C313.007 23.7939 312.801 23.5798 312.537 23.3975C312.273 23.2243 311.954 23.0785 311.58 22.96C311.206 22.8415 310.794 22.7412 310.343 22.6592C310.019 22.6045 309.75 22.543 309.536 22.4746C309.326 22.4062 309.162 22.3311 309.044 22.249C308.916 22.1715 308.827 22.0827 308.777 21.9824C308.727 21.8776 308.702 21.7614 308.702 21.6338C308.702 21.5107 308.732 21.3945 308.791 21.2852C308.85 21.1712 308.939 21.0732 309.058 20.9912C309.176 20.9001 309.326 20.8294 309.509 20.7793C309.696 20.7246 309.912 20.6973 310.158 20.6973C310.427 20.6973 310.662 20.7337 310.862 20.8066C311.063 20.875 311.227 20.9684 311.354 21.0869C311.464 21.1872 311.546 21.3011 311.601 21.4287C311.66 21.5518 311.689 21.6816 311.689 21.8184H313.323C313.323 21.4857 313.25 21.1758 313.104 20.8887C312.959 20.6016 312.751 20.3532 312.482 20.1436C312.209 19.9339 311.876 19.7699 311.484 19.6514C311.092 19.5283 310.65 19.4668 310.158 19.4668C309.698 19.4668 309.279 19.526 308.9 19.6445C308.527 19.763 308.208 19.9248 307.943 20.1299C307.674 20.335 307.467 20.5742 307.321 20.8477C307.18 21.1165 307.109 21.4014 307.109 21.7021C307.109 22.0166 307.18 22.2923 307.321 22.5293C307.463 22.7663 307.659 22.9714 307.909 23.1445C308.164 23.3268 308.467 23.4818 308.818 23.6094C309.174 23.737 309.566 23.8441 309.994 23.9307C310.336 23.9945 310.621 24.0628 310.849 24.1357C311.076 24.2087 311.261 24.2861 311.402 24.3682C311.535 24.4593 311.628 24.555 311.683 24.6553C311.742 24.7555 311.771 24.8695 311.771 24.9971ZM318.799 27.1367C319.519 27.1367 320.132 26.9954 320.638 26.7129C321.148 26.4303 321.526 26.1113 321.772 25.7559L320.897 24.9082C320.67 25.1999 320.38 25.4255 320.029 25.585C319.678 25.7399 319.3 25.8174 318.895 25.8174C318.598 25.8174 318.325 25.7673 318.074 25.667C317.828 25.5667 317.614 25.4255 317.432 25.2432C317.249 25.07 317.106 24.874 317.001 24.6553C316.896 24.4365 316.819 24.1654 316.769 23.8418V23.8076H321.896V23.1035C321.896 22.5749 321.825 22.0872 321.684 21.6406C321.542 21.194 321.333 20.8089 321.055 20.4854C320.777 20.1663 320.433 19.918 320.022 19.7402C319.612 19.5579 319.141 19.4668 318.607 19.4668C318.129 19.4668 317.678 19.5579 317.254 19.7402C316.835 19.918 316.465 20.1732 316.146 20.5059C315.827 20.8385 315.577 21.2396 315.395 21.709C315.212 22.1784 315.121 22.7025 315.121 23.2812V23.5615C315.121 24.0674 315.208 24.5391 315.381 24.9766C315.559 25.4095 315.809 25.7855 316.133 26.1045C316.456 26.4281 316.844 26.681 317.295 26.8633C317.751 27.0456 318.252 27.1367 318.799 27.1367ZM318.601 20.793C318.874 20.793 319.113 20.8408 319.318 20.9365C319.528 21.0277 319.701 21.1507 319.838 21.3057C319.979 21.4652 320.089 21.652 320.166 21.8662C320.243 22.0758 320.282 22.2878 320.282 22.502V22.6113H316.803C316.853 22.3288 316.93 22.0758 317.035 21.8525C317.14 21.6292 317.27 21.4378 317.425 21.2783C317.58 21.1234 317.755 21.0049 317.951 20.9229C318.152 20.8363 318.368 20.793 318.601 20.793ZM328.868 19.4668C328.358 19.4668 327.891 19.5853 327.467 19.8223C327.048 20.0592 326.688 20.3851 326.387 20.7998L326.38 20.6289L326.312 19.6035H324.78V27H326.414V22.4336C326.501 22.2148 326.608 22.0212 326.735 21.8525C326.863 21.6839 327.018 21.5449 327.2 21.4355C327.369 21.3216 327.562 21.2373 327.781 21.1826C328 21.1279 328.246 21.1006 328.52 21.1006C328.761 21.1006 329.003 21.1143 329.244 21.1416C329.49 21.1689 329.739 21.21 329.989 21.2646L330.222 19.6514C330.08 19.6012 329.884 19.5579 329.634 19.5215C329.388 19.485 329.132 19.4668 328.868 19.4668ZM334.583 27H336.025L338.924 19.6035H337.229L335.417 24.9697L335.308 25.4619L335.198 24.9697L333.366 19.6035H331.671L334.583 27ZM344.023 27.1367C344.743 27.1367 345.356 26.9954 345.862 26.7129C346.373 26.4303 346.751 26.1113 346.997 25.7559L346.122 24.9082C345.894 25.1999 345.605 25.4255 345.254 25.585C344.903 25.7399 344.525 25.8174 344.119 25.8174C343.823 25.8174 343.549 25.7673 343.299 25.667C343.053 25.5667 342.839 25.4255 342.656 25.2432C342.474 25.07 342.33 24.874 342.226 24.6553C342.121 24.4365 342.043 24.1654 341.993 23.8418V23.8076H347.12V23.1035C347.12 22.5749 347.049 22.0872 346.908 21.6406C346.767 21.194 346.557 20.8089 346.279 20.4854C346.001 20.1663 345.657 19.918 345.247 19.7402C344.837 19.5579 344.365 19.4668 343.832 19.4668C343.354 19.4668 342.902 19.5579 342.479 19.7402C342.059 19.918 341.69 20.1732 341.371 20.5059C341.052 20.8385 340.801 21.2396 340.619 21.709C340.437 22.1784 340.346 22.7025 340.346 23.2812V23.5615C340.346 24.0674 340.432 24.5391 340.605 24.9766C340.783 25.4095 341.034 25.7855 341.357 26.1045C341.681 26.4281 342.068 26.681 342.52 26.8633C342.975 27.0456 343.477 27.1367 344.023 27.1367ZM343.825 20.793C344.099 20.793 344.338 20.8408 344.543 20.9365C344.753 21.0277 344.926 21.1507 345.062 21.3057C345.204 21.4652 345.313 21.652 345.391 21.8662C345.468 22.0758 345.507 22.2878 345.507 22.502V22.6113H342.027C342.077 22.3288 342.155 22.0758 342.26 21.8525C342.365 21.6292 342.494 21.4378 342.649 21.2783C342.804 21.1234 342.98 21.0049 343.176 20.9229C343.376 20.8363 343.593 20.793 343.825 20.793ZM354.093 19.4668C353.582 19.4668 353.115 19.5853 352.691 19.8223C352.272 20.0592 351.912 20.3851 351.611 20.7998L351.604 20.6289L351.536 19.6035H350.005V27H351.639V22.4336C351.725 22.2148 351.832 22.0212 351.96 21.8525C352.088 21.6839 352.243 21.5449 352.425 21.4355C352.593 21.3216 352.787 21.2373 353.006 21.1826C353.225 21.1279 353.471 21.1006 353.744 21.1006C353.986 21.1006 354.227 21.1143 354.469 21.1416C354.715 21.1689 354.963 21.21 355.214 21.2646L355.446 19.6514C355.305 19.6012 355.109 19.5579 354.858 19.5215C354.612 19.485 354.357 19.4668 354.093 19.4668ZM363.574 23.2881V21.9619H358.071V23.2881H363.574ZM370.52 27H372.188V26.8838C372.096 26.6924 372.026 26.4645 371.976 26.2002C371.93 25.9313 371.907 25.6305 371.907 25.2979V22.0098C371.907 21.5905 371.83 21.2214 371.675 20.9023C371.52 20.5788 371.306 20.3122 371.032 20.1025C370.759 19.8929 370.433 19.7357 370.055 19.6309C369.681 19.5215 369.278 19.4668 368.845 19.4668C368.362 19.4668 367.931 19.5306 367.553 19.6582C367.179 19.7812 366.865 19.9499 366.609 20.1641C366.345 20.3737 366.145 20.6152 366.008 20.8887C365.871 21.1621 365.8 21.4469 365.796 21.7432H367.437C367.437 21.6019 367.462 21.4697 367.512 21.3467C367.566 21.2191 367.648 21.112 367.758 21.0254C367.867 20.9297 368.004 20.8545 368.168 20.7998C368.337 20.7451 368.533 20.7178 368.756 20.7178C369.002 20.7178 369.218 20.7497 369.405 20.8135C369.597 20.8727 369.758 20.9593 369.891 21.0732C370.014 21.1872 370.107 21.3216 370.171 21.4766C370.239 21.6315 370.273 21.8047 370.273 21.9961V22.4951H369.084C368.551 22.4951 368.072 22.5452 367.648 22.6455C367.229 22.7458 366.876 22.8916 366.589 23.083C366.279 23.2881 366.042 23.5479 365.878 23.8623C365.718 24.1722 365.639 24.5299 365.639 24.9355C365.639 25.25 365.7 25.5439 365.823 25.8174C365.951 26.0863 366.129 26.3164 366.356 26.5078C366.58 26.7038 366.849 26.8587 367.163 26.9727C367.482 27.082 367.833 27.1367 368.216 27.1367C368.453 27.1367 368.674 27.1139 368.879 27.0684C369.084 27.0228 369.275 26.959 369.453 26.877C369.631 26.7995 369.79 26.7083 369.932 26.6035C370.077 26.4941 370.207 26.3802 370.321 26.2617C370.344 26.403 370.369 26.5397 370.396 26.6719C370.428 26.7995 370.469 26.9089 370.52 27ZM368.53 25.8242C368.321 25.8242 368.138 25.7992 367.983 25.749C367.828 25.6943 367.699 25.6214 367.594 25.5303C367.489 25.4391 367.409 25.3298 367.354 25.2021C367.3 25.07 367.272 24.9287 367.272 24.7783C367.272 24.596 367.304 24.432 367.368 24.2861C367.437 24.1403 367.539 24.015 367.676 23.9102C367.831 23.7871 368.038 23.6937 368.298 23.6299C368.558 23.5615 368.865 23.5273 369.221 23.5273H370.273V24.8945C370.214 25.013 370.13 25.127 370.021 25.2363C369.911 25.3457 369.781 25.4437 369.631 25.5303C369.48 25.6169 369.312 25.6875 369.125 25.7422C368.943 25.7969 368.744 25.8242 368.53 25.8242ZM374.218 29.8438H375.852V26.3301C375.938 26.4258 376.032 26.5146 376.132 26.5967C376.232 26.6787 376.337 26.7516 376.446 26.8154C376.633 26.9202 376.836 27 377.055 27.0547C377.278 27.1094 377.522 27.1367 377.786 27.1367C378.251 27.1367 378.663 27.041 379.023 26.8496C379.383 26.6582 379.687 26.3939 379.933 26.0566C380.179 25.724 380.363 25.3275 380.486 24.8672C380.614 24.4069 380.678 23.9102 380.678 23.377V23.2334C380.678 22.6774 380.614 22.1693 380.486 21.709C380.359 21.2441 380.174 20.8454 379.933 20.5127C379.687 20.18 379.381 19.9225 379.017 19.7402C378.657 19.5579 378.24 19.4668 377.766 19.4668C377.524 19.4668 377.296 19.4941 377.082 19.5488C376.868 19.599 376.672 19.6719 376.494 19.7676C376.357 19.8405 376.23 19.9271 376.111 20.0273C375.993 20.1276 375.883 20.2393 375.783 20.3623L375.722 19.6035H374.218V29.8438ZM379.044 23.2334V23.377C379.044 23.7051 379.012 24.0173 378.948 24.3135C378.884 24.6051 378.782 24.8649 378.641 25.0928C378.504 25.3161 378.326 25.4938 378.107 25.626C377.893 25.7536 377.633 25.8174 377.328 25.8174C377.141 25.8174 376.97 25.7969 376.815 25.7559C376.66 25.7103 376.521 25.651 376.398 25.5781C376.28 25.5007 376.175 25.4095 376.084 25.3047C375.993 25.1999 375.915 25.0837 375.852 24.9561V21.668C375.924 21.5312 376.009 21.4082 376.104 21.2988C376.205 21.1895 376.321 21.0983 376.453 21.0254C376.567 20.957 376.697 20.9046 376.843 20.8682C376.989 20.8317 377.146 20.8135 377.314 20.8135C377.62 20.8135 377.882 20.8773 378.101 21.0049C378.319 21.1325 378.499 21.3057 378.641 21.5244C378.777 21.7432 378.878 22.0007 378.941 22.2969C379.01 22.5885 379.044 22.9007 379.044 23.2334ZM382.988 19.6035V20.9639H385.265V25.6465H382.988V27H389.086V25.6465H386.912V19.6035H382.988ZM385.114 17.6895C385.114 17.8626 385.155 18.0153 385.237 18.1475C385.324 18.2751 385.449 18.3639 385.613 18.4141C385.773 18.4642 385.919 18.4756 386.051 18.4482C386.183 18.4209 386.297 18.3639 386.393 18.2773C386.584 18.2272 386.73 18.1292 386.83 17.9834C386.93 17.833 386.965 17.6576 386.933 17.457C386.91 17.2611 386.821 17.1016 386.666 16.9785C386.516 16.8509 386.317 16.7871 386.071 16.7871C385.925 16.7871 385.793 16.8099 385.675 16.8555C385.561 16.8965 385.463 16.9557 385.381 17.0332C385.294 17.1152 385.228 17.2132 385.183 17.3271C385.137 17.4365 385.114 17.5573 385.114 17.6895Z" fill="white" fill-opacity="0.75"/>
<rect x="0.5" y="0.5" width="519" height="45" rx="7.5" stroke="white" stroke-opacity="0.1"/>
</g>
<defs>
<filter id="filter0_b_837_716" x="-4" y="-4" width="528" height="54" filterUnits="userSpaceOnUse" color-interpolation-filters="sRGB">
<feFlood flood-opacity="0" result="BackgroundImageFix"/>
<feGaussianBlur in="BackgroundImageFix" stdDeviation="2"/>
<feComposite in2="SourceAlpha" operator="in" result="effect1_backgroundBlur_837_716"/>
<feBlend mode="normal" in="SourceGraphic" in2="effect1_backgroundBlur_837_716" result="shape"/>
</filter>
</defs>
</svg>
