<svg width="1187" height="337" viewBox="0 0 1187 337" fill="none" xmlns="http://www.w3.org/2000/svg">
<path d="M640 181L689.5 110H733" stroke="url(#paint0_linear_863_27)" stroke-width="3"/>
<g filter="url(#filter0_b_863_27)">
<rect x="545" y="138" width="96" height="96" rx="8" fill="#1B1A1C" fill-opacity="0.5"/>
<rect x="545.5" y="138.5" width="95" height="95" rx="7.5" stroke="white" stroke-opacity="0.03"/>
</g>
<path d="M545.032 186H501.5L452 119" stroke="url(#paint1_linear_863_27)" stroke-width="3"/>
<g filter="url(#filter1_b_863_27)">
<g clip-path="url(#clip0_863_27)">
<rect y="68" width="454" height="142" rx="12" fill="#1B1A1C" fill-opacity="0.1"/>
<path d="M43.5781 111.348C43.5099 110.743 43.2287 110.274 42.7344 109.942C42.2401 109.605 41.6179 109.437 40.8679 109.437C40.331 109.437 39.8665 109.522 39.4744 109.692C39.0824 109.859 38.7777 110.089 38.5604 110.383C38.3473 110.673 38.2408 111.003 38.2408 111.374C38.2408 111.685 38.3132 111.953 38.4581 112.179C38.6072 112.405 38.8011 112.594 39.0398 112.748C39.2827 112.897 39.5426 113.023 39.8196 113.125C40.0966 113.223 40.3629 113.304 40.6186 113.368L41.897 113.7C42.3146 113.803 42.7429 113.941 43.1818 114.116C43.6207 114.29 44.0277 114.521 44.4027 114.806C44.7777 115.092 45.0803 115.445 45.3104 115.867C45.5447 116.289 45.6619 116.794 45.6619 117.382C45.6619 118.124 45.4702 118.782 45.0866 119.357C44.7074 119.933 44.1555 120.386 43.4311 120.719C42.7109 121.051 41.8395 121.217 40.8168 121.217C39.8366 121.217 38.9886 121.062 38.2727 120.751C37.5568 120.44 36.9964 119.999 36.5916 119.428C36.1868 118.852 35.9631 118.17 35.9205 117.382H37.902C37.9403 117.855 38.0938 118.249 38.3622 118.565C38.6349 118.876 38.9822 119.108 39.4041 119.261C39.8303 119.411 40.2969 119.485 40.804 119.485C41.3622 119.485 41.8587 119.398 42.2933 119.223C42.7322 119.044 43.0774 118.797 43.3288 118.482C43.5803 118.162 43.706 117.789 43.706 117.363C43.706 116.975 43.5952 116.658 43.3736 116.411C43.1563 116.163 42.8601 115.959 42.4851 115.797C42.1143 115.635 41.6946 115.492 41.2259 115.369L39.679 114.947C38.6307 114.661 37.7997 114.241 37.1861 113.688C36.5767 113.134 36.272 112.401 36.272 111.489C36.272 110.734 36.4766 110.076 36.8857 109.513C37.2947 108.951 37.8487 108.514 38.5476 108.203C39.2464 107.888 40.0348 107.73 40.9126 107.73C41.799 107.73 42.581 107.886 43.2585 108.197C43.9403 108.508 44.4773 108.936 44.8693 109.482C45.2614 110.023 45.4659 110.645 45.483 111.348H43.5781ZM52.2601 121H48.0222V107.909H52.3944C53.677 107.909 54.7786 108.171 55.699 108.695C56.6195 109.215 57.3248 109.963 57.8148 110.939C58.3091 111.911 58.5563 113.076 58.5563 114.435C58.5563 115.799 58.307 116.971 57.8084 117.951C57.3141 118.931 56.5982 119.685 55.6607 120.214C54.7232 120.738 53.5897 121 52.2601 121ZM49.9973 119.274H52.1515C53.1486 119.274 53.9775 119.087 54.638 118.712C55.2985 118.332 55.7928 117.785 56.1209 117.069C56.449 116.349 56.6131 115.471 56.6131 114.435C56.6131 113.408 56.449 112.537 56.1209 111.821C55.7971 111.105 55.3134 110.562 54.6699 110.191C54.0265 109.82 53.2275 109.635 52.2729 109.635H49.9973V119.274ZM61.0124 121V107.909H62.9876V114.161H63.1474L68.6381 107.909H71.1246L65.8448 113.803L71.1438 121H68.766L64.5344 115.151L62.9876 116.928V121H61.0124ZM81.6923 124.886C80.9125 124.886 80.2413 124.784 79.6788 124.58C79.1206 124.375 78.6646 124.104 78.3109 123.768C77.9572 123.431 77.693 123.063 77.5183 122.662L79.161 121.984C79.2761 122.172 79.4295 122.37 79.6213 122.579C79.8173 122.792 80.0815 122.973 80.4139 123.122C80.7505 123.271 81.1831 123.346 81.7115 123.346C82.4359 123.346 83.0346 123.169 83.5076 122.815C83.9806 122.466 84.2172 121.908 84.2172 121.141V119.21H84.0957C83.9806 119.419 83.8145 119.651 83.5971 119.907C83.3841 120.163 83.09 120.384 82.715 120.572C82.34 120.759 81.8521 120.853 81.2512 120.853C80.4757 120.853 79.7768 120.672 79.1547 120.31C78.5368 119.943 78.0467 119.404 77.6845 118.692C77.3265 117.977 77.1475 117.097 77.1475 116.053C77.1475 115.009 77.3244 114.114 77.6781 113.368C78.036 112.622 78.5261 112.051 79.1483 111.655C79.7704 111.254 80.4757 111.054 81.264 111.054C81.8734 111.054 82.3656 111.156 82.7406 111.361C83.1156 111.561 83.4075 111.795 83.6163 112.064C83.8294 112.332 83.9934 112.569 84.1085 112.773H84.2491V111.182H86.122V121.217C86.122 122.061 85.926 122.754 85.5339 123.295C85.1419 123.836 84.6113 124.237 83.9423 124.496C83.2775 124.756 82.5275 124.886 81.6923 124.886ZM81.6731 119.268C82.2228 119.268 82.6873 119.14 83.0666 118.884C83.4501 118.624 83.7399 118.254 83.9359 117.772C84.1362 117.286 84.2363 116.705 84.2363 116.027C84.2363 115.366 84.1383 114.785 83.9423 114.282C83.7463 113.779 83.4586 113.387 83.0794 113.106C82.7001 112.82 82.2314 112.678 81.6731 112.678C81.0978 112.678 80.6184 112.827 80.2349 113.125C79.8514 113.419 79.5616 113.82 79.3656 114.327C79.1738 114.834 79.0779 115.401 79.0779 116.027C79.0779 116.67 79.176 117.235 79.372 117.721C79.568 118.207 79.8578 118.586 80.2413 118.859C80.6291 119.131 81.1064 119.268 81.6731 119.268ZM92.9167 121.198C91.9494 121.198 91.1163 120.991 90.4174 120.578C89.7228 120.161 89.1859 119.575 88.8066 118.82C88.4316 118.062 88.2441 117.173 88.2441 116.155C88.2441 115.149 88.4316 114.263 88.8066 113.496C89.1859 112.729 89.7143 112.13 90.3919 111.7C91.0737 111.269 91.8706 111.054 92.7825 111.054C93.3365 111.054 93.8734 111.146 94.3933 111.329C94.9132 111.512 95.3798 111.8 95.7931 112.192C96.2065 112.584 96.5325 113.093 96.7711 113.719C97.0098 114.342 97.1291 115.098 97.1291 115.989V116.666H89.3244V115.234H95.2562C95.2562 114.732 95.1539 114.286 94.9494 113.898C94.7449 113.506 94.4572 113.197 94.0865 112.972C93.72 112.746 93.2896 112.633 92.7953 112.633C92.2583 112.633 91.7896 112.765 91.389 113.029C90.9927 113.289 90.6859 113.63 90.4686 114.052C90.2555 114.469 90.149 114.923 90.149 115.413V116.532C90.149 117.188 90.264 117.746 90.4941 118.207C90.7285 118.667 91.0545 119.018 91.4721 119.261C91.8897 119.5 92.3777 119.619 92.9359 119.619C93.2981 119.619 93.6284 119.568 93.9267 119.466C94.225 119.359 94.4828 119.202 94.7001 118.993C94.9174 118.784 95.0836 118.526 95.1987 118.219L97.0076 118.545C96.8627 119.078 96.6028 119.545 96.2278 119.945C95.8571 120.342 95.3904 120.651 94.8279 120.872C94.2697 121.089 93.6326 121.198 92.9167 121.198ZM101.161 115.17V121H99.2496V111.182H101.084V112.78H101.206C101.431 112.26 101.785 111.842 102.267 111.527C102.752 111.212 103.364 111.054 104.101 111.054C104.77 111.054 105.356 111.195 105.859 111.476C106.362 111.753 106.752 112.166 107.029 112.716C107.306 113.266 107.444 113.945 107.444 114.755V121H105.533V114.985C105.533 114.273 105.348 113.717 104.977 113.317C104.606 112.912 104.097 112.71 103.449 112.71C103.006 112.71 102.612 112.805 102.267 112.997C101.926 113.189 101.655 113.47 101.455 113.841C101.259 114.207 101.161 114.651 101.161 115.17ZM114.239 121.198C113.272 121.198 112.439 120.991 111.74 120.578C111.045 120.161 110.508 119.575 110.129 118.82C109.754 118.062 109.566 117.173 109.566 116.155C109.566 115.149 109.754 114.263 110.129 113.496C110.508 112.729 111.037 112.13 111.714 111.7C112.396 111.269 113.193 111.054 114.105 111.054C114.659 111.054 115.196 111.146 115.716 111.329C116.235 111.512 116.702 111.8 117.115 112.192C117.529 112.584 117.855 113.093 118.093 113.719C118.332 114.342 118.451 115.098 118.451 115.989V116.666H110.647V115.234H116.578C116.578 114.732 116.476 114.286 116.272 113.898C116.067 113.506 115.779 113.197 115.409 112.972C115.042 112.746 114.612 112.633 114.118 112.633C113.581 112.633 113.112 112.765 112.711 113.029C112.315 113.289 112.008 113.63 111.791 114.052C111.578 114.469 111.471 114.923 111.471 115.413V116.532C111.471 117.188 111.586 117.746 111.816 118.207C112.051 118.667 112.377 119.018 112.794 119.261C113.212 119.5 113.7 119.619 114.258 119.619C114.62 119.619 114.951 119.568 115.249 119.466C115.547 119.359 115.805 119.202 116.022 118.993C116.24 118.784 116.406 118.526 116.521 118.219L118.33 118.545C118.185 119.078 117.925 119.545 117.55 119.945C117.179 120.342 116.713 120.651 116.15 120.872C115.592 121.089 114.955 121.198 114.239 121.198ZM120.572 121V111.182H122.419V112.741H122.521C122.7 112.213 123.016 111.798 123.468 111.495C123.923 111.188 124.439 111.035 125.014 111.035C125.134 111.035 125.274 111.039 125.436 111.048C125.602 111.056 125.732 111.067 125.826 111.08V112.908C125.749 112.886 125.613 112.863 125.417 112.837C125.221 112.808 125.025 112.793 124.829 112.793C124.377 112.793 123.975 112.888 123.621 113.08C123.271 113.268 122.994 113.53 122.79 113.866C122.585 114.199 122.483 114.578 122.483 115.004V121H120.572ZM130.249 121.217C129.627 121.217 129.065 121.102 128.562 120.872C128.059 120.638 127.661 120.299 127.367 119.856C127.077 119.413 126.932 118.869 126.932 118.226C126.932 117.672 127.039 117.216 127.252 116.858C127.465 116.5 127.752 116.217 128.115 116.008C128.477 115.799 128.882 115.641 129.329 115.535C129.776 115.428 130.232 115.347 130.697 115.292C131.285 115.224 131.762 115.168 132.129 115.126C132.495 115.079 132.762 115.004 132.928 114.902C133.094 114.8 133.177 114.634 133.177 114.403V114.359C133.177 113.8 133.019 113.368 132.704 113.061C132.393 112.754 131.928 112.601 131.311 112.601C130.667 112.601 130.16 112.744 129.789 113.029C129.423 113.31 129.169 113.624 129.029 113.969L127.232 113.56C127.445 112.963 127.757 112.482 128.166 112.115C128.579 111.744 129.054 111.476 129.591 111.31C130.128 111.139 130.693 111.054 131.285 111.054C131.677 111.054 132.093 111.101 132.531 111.195C132.975 111.284 133.388 111.45 133.771 111.693C134.159 111.936 134.477 112.283 134.724 112.735C134.971 113.183 135.095 113.764 135.095 114.48V121H133.228V119.658H133.151C133.028 119.905 132.843 120.148 132.595 120.386C132.348 120.625 132.031 120.823 131.643 120.981C131.255 121.138 130.791 121.217 130.249 121.217ZM130.665 119.683C131.193 119.683 131.645 119.579 132.02 119.37C132.399 119.161 132.687 118.888 132.883 118.552C133.083 118.211 133.183 117.847 133.183 117.459V116.193C133.115 116.261 132.983 116.325 132.787 116.385C132.595 116.44 132.376 116.489 132.129 116.532C131.882 116.57 131.641 116.607 131.406 116.641C131.172 116.67 130.976 116.696 130.818 116.717C130.448 116.764 130.109 116.843 129.802 116.954C129.499 117.065 129.257 117.224 129.073 117.433C128.894 117.638 128.805 117.911 128.805 118.251C128.805 118.724 128.98 119.082 129.329 119.325C129.678 119.564 130.124 119.683 130.665 119.683ZM142.223 111.182V112.716H136.86V111.182H142.223ZM138.299 108.83H140.21V118.117C140.21 118.488 140.265 118.767 140.376 118.955C140.487 119.138 140.63 119.263 140.804 119.332C140.983 119.396 141.177 119.428 141.386 119.428C141.539 119.428 141.674 119.417 141.789 119.396C141.904 119.374 141.993 119.357 142.057 119.344L142.402 120.923C142.292 120.966 142.134 121.009 141.929 121.051C141.725 121.098 141.469 121.124 141.162 121.128C140.659 121.136 140.191 121.047 139.756 120.859C139.321 120.672 138.97 120.382 138.701 119.99C138.433 119.598 138.299 119.106 138.299 118.513V108.83ZM144.338 121V111.182H146.249V121H144.338ZM145.303 109.667C144.97 109.667 144.685 109.556 144.446 109.335C144.212 109.109 144.095 108.84 144.095 108.529C144.095 108.214 144.212 107.945 144.446 107.724C144.685 107.498 144.97 107.385 145.303 107.385C145.635 107.385 145.919 107.498 146.153 107.724C146.392 107.945 146.511 108.214 146.511 108.529C146.511 108.84 146.392 109.109 146.153 109.335C145.919 109.556 145.635 109.667 145.303 109.667ZM152.956 121.198C152.035 121.198 151.232 120.987 150.546 120.565C149.86 120.143 149.327 119.553 148.948 118.795C148.569 118.036 148.379 117.15 148.379 116.136C148.379 115.117 148.569 114.227 148.948 113.464C149.327 112.701 149.86 112.109 150.546 111.687C151.232 111.265 152.035 111.054 152.956 111.054C153.876 111.054 154.679 111.265 155.365 111.687C156.051 112.109 156.584 112.701 156.963 113.464C157.343 114.227 157.532 115.117 157.532 116.136C157.532 117.15 157.343 118.036 156.963 118.795C156.584 119.553 156.051 120.143 155.365 120.565C154.679 120.987 153.876 121.198 152.956 121.198ZM152.962 119.594C153.559 119.594 154.053 119.436 154.445 119.121C154.837 118.805 155.127 118.386 155.314 117.862C155.506 117.337 155.602 116.76 155.602 116.129C155.602 115.503 155.506 114.928 155.314 114.403C155.127 113.875 154.837 113.451 154.445 113.131C154.053 112.812 153.559 112.652 152.962 112.652C152.361 112.652 151.863 112.812 151.466 113.131C151.074 113.451 150.782 113.875 150.591 114.403C150.403 114.928 150.309 115.503 150.309 116.129C150.309 116.76 150.403 117.337 150.591 117.862C150.782 118.386 151.074 118.805 151.466 119.121C151.863 119.436 152.361 119.594 152.962 119.594ZM161.577 115.17V121H159.666V111.182H161.5V112.78H161.622C161.847 112.26 162.201 111.842 162.683 111.527C163.169 111.212 163.78 111.054 164.517 111.054C165.186 111.054 165.772 111.195 166.275 111.476C166.778 111.753 167.168 112.166 167.445 112.716C167.722 113.266 167.86 113.945 167.86 114.755V121H165.949V114.985C165.949 114.273 165.764 113.717 165.393 113.317C165.022 112.912 164.513 112.71 163.865 112.71C163.422 112.71 163.028 112.805 162.683 112.997C162.342 113.189 162.071 113.47 161.871 113.841C161.675 114.207 161.577 114.651 161.577 115.17Z" fill="white"/>
<path d="M44.3636 139C44.2386 138.617 44.0739 138.275 43.8693 137.972C43.6686 137.665 43.428 137.403 43.1477 137.188C42.8712 136.972 42.5568 136.807 42.2045 136.693C41.8523 136.58 41.4659 136.523 41.0455 136.523C40.3561 136.523 39.7292 136.701 39.1648 137.057C38.6004 137.413 38.1515 137.938 37.8182 138.631C37.4848 139.324 37.3182 140.174 37.3182 141.182C37.3182 142.189 37.4867 143.04 37.8239 143.733C38.161 144.426 38.6174 144.951 39.1932 145.307C39.7689 145.663 40.4167 145.841 41.1364 145.841C41.803 145.841 42.3902 145.699 42.8977 145.415C43.4091 145.127 43.8068 144.722 44.0909 144.199C44.3788 143.672 44.5227 143.053 44.5227 142.341L44.9545 142.432H41.4545V141.182H45.8864V142.432C45.8864 143.39 45.6818 144.223 45.2727 144.932C44.8674 145.64 44.3068 146.189 43.5909 146.58C42.8788 146.966 42.0606 147.159 41.1364 147.159C40.1061 147.159 39.2008 146.917 38.4205 146.432C37.6439 145.947 37.0379 145.258 36.6023 144.364C36.1705 143.47 35.9545 142.409 35.9545 141.182C35.9545 140.261 36.0777 139.434 36.3239 138.699C36.5739 137.96 36.9261 137.331 37.3807 136.812C37.8352 136.294 38.3731 135.896 38.9943 135.619C39.6155 135.343 40.2992 135.205 41.0455 135.205C41.6591 135.205 42.2311 135.297 42.7614 135.483C43.2955 135.665 43.7708 135.924 44.1875 136.261C44.608 136.595 44.9583 136.994 45.2386 137.46C45.5189 137.922 45.7121 138.436 45.8182 139H44.3636ZM51.777 147.182C50.9361 147.182 50.2107 146.996 49.6009 146.625C48.9948 146.25 48.527 145.727 48.1974 145.057C47.8717 144.383 47.7088 143.598 47.7088 142.705C47.7088 141.811 47.8717 141.023 48.1974 140.341C48.527 139.655 48.9853 139.121 49.5724 138.739C50.1634 138.352 50.8527 138.159 51.6406 138.159C52.0952 138.159 52.544 138.235 52.9872 138.386C53.4304 138.538 53.8338 138.784 54.1974 139.125C54.5611 139.462 54.8509 139.909 55.0668 140.466C55.2827 141.023 55.3906 141.708 55.3906 142.523V143.091H48.6634V141.932H54.027C54.027 141.439 53.9285 141 53.7315 140.614C53.5384 140.227 53.2618 139.922 52.902 139.699C52.5459 139.475 52.1255 139.364 51.6406 139.364C51.1065 139.364 50.6444 139.496 50.2543 139.761C49.8679 140.023 49.5705 140.364 49.3622 140.784C49.1539 141.205 49.0497 141.655 49.0497 142.136V142.909C49.0497 143.568 49.1634 144.127 49.3906 144.585C49.6217 145.04 49.9418 145.386 50.3509 145.625C50.7599 145.86 51.2353 145.977 51.777 145.977C52.1293 145.977 52.4474 145.928 52.7315 145.83C53.0194 145.727 53.2675 145.576 53.4759 145.375C53.6842 145.17 53.8452 144.917 53.9588 144.614L55.2543 144.977C55.1179 145.417 54.8887 145.803 54.5668 146.136C54.2448 146.466 53.8471 146.723 53.3736 146.909C52.9001 147.091 52.3679 147.182 51.777 147.182ZM58.7713 141.75V147H57.4304V138.273H58.7259V139.636H58.8395C59.044 139.193 59.3546 138.837 59.7713 138.568C60.188 138.295 60.7259 138.159 61.3849 138.159C61.9759 138.159 62.4929 138.28 62.9361 138.523C63.3793 138.761 63.724 139.125 63.9702 139.614C64.2164 140.098 64.3395 140.712 64.3395 141.455V147H62.9986V141.545C62.9986 140.86 62.8205 140.326 62.4645 139.943C62.1084 139.557 61.6198 139.364 60.9986 139.364C60.5705 139.364 60.188 139.456 59.8509 139.642C59.5175 139.828 59.2543 140.098 59.0611 140.455C58.8679 140.811 58.7713 141.242 58.7713 141.75ZM70.4489 147.182C69.608 147.182 68.8826 146.996 68.2727 146.625C67.6667 146.25 67.1989 145.727 66.8693 145.057C66.5436 144.383 66.3807 143.598 66.3807 142.705C66.3807 141.811 66.5436 141.023 66.8693 140.341C67.1989 139.655 67.6572 139.121 68.2443 138.739C68.8352 138.352 69.5246 138.159 70.3125 138.159C70.767 138.159 71.2159 138.235 71.6591 138.386C72.1023 138.538 72.5057 138.784 72.8693 139.125C73.233 139.462 73.5227 139.909 73.7386 140.466C73.9545 141.023 74.0625 141.708 74.0625 142.523V143.091H67.3352V141.932H72.6989C72.6989 141.439 72.6004 141 72.4034 140.614C72.2102 140.227 71.9337 139.922 71.5739 139.699C71.2178 139.475 70.7973 139.364 70.3125 139.364C69.7784 139.364 69.3163 139.496 68.9261 139.761C68.5398 140.023 68.2424 140.364 68.0341 140.784C67.8258 141.205 67.7216 141.655 67.7216 142.136V142.909C67.7216 143.568 67.8352 144.127 68.0625 144.585C68.2936 145.04 68.6136 145.386 69.0227 145.625C69.4318 145.86 69.9072 145.977 70.4489 145.977C70.8011 145.977 71.1193 145.928 71.4034 145.83C71.6913 145.727 71.9394 145.576 72.1477 145.375C72.3561 145.17 72.517 144.917 72.6307 144.614L73.9261 144.977C73.7898 145.417 73.5606 145.803 73.2386 146.136C72.9167 146.466 72.5189 146.723 72.0455 146.909C71.572 147.091 71.0398 147.182 70.4489 147.182ZM76.1023 147V138.273H77.3977V139.591H77.4886C77.6477 139.159 77.9356 138.809 78.3523 138.54C78.7689 138.271 79.2386 138.136 79.7614 138.136C79.8598 138.136 79.983 138.138 80.1307 138.142C80.2784 138.146 80.3902 138.152 80.4659 138.159V139.523C80.4205 139.511 80.3163 139.494 80.1534 139.472C79.9943 139.445 79.8258 139.432 79.6477 139.432C79.2235 139.432 78.8447 139.521 78.5114 139.699C78.1818 139.873 77.9205 140.116 77.7273 140.426C77.5379 140.733 77.4432 141.083 77.4432 141.477V147H76.1023ZM84.6236 147.205C84.0705 147.205 83.5687 147.1 83.1179 146.892C82.6671 146.68 82.3092 146.375 82.044 145.977C81.7789 145.576 81.6463 145.091 81.6463 144.523C81.6463 144.023 81.7448 143.617 81.9418 143.307C82.1387 142.992 82.402 142.746 82.7315 142.568C83.0611 142.39 83.4247 142.258 83.8224 142.17C84.224 142.08 84.6274 142.008 85.0327 141.955C85.563 141.886 85.9929 141.835 86.3224 141.801C86.6558 141.763 86.8982 141.701 87.0497 141.614C87.205 141.527 87.2827 141.375 87.2827 141.159V141.114C87.2827 140.553 87.1293 140.117 86.8224 139.807C86.5194 139.496 86.0592 139.341 85.4418 139.341C84.8016 139.341 84.2997 139.481 83.9361 139.761C83.5724 140.042 83.3168 140.341 83.169 140.659L81.8963 140.205C82.1236 139.674 82.4266 139.261 82.8054 138.966C83.188 138.667 83.6046 138.458 84.0554 138.341C84.5099 138.22 84.9569 138.159 85.3963 138.159C85.6766 138.159 85.9986 138.193 86.3622 138.261C86.7296 138.326 87.0838 138.46 87.4247 138.665C87.7694 138.869 88.0554 139.178 88.2827 139.591C88.5099 140.004 88.6236 140.557 88.6236 141.25V147H87.2827V145.818H87.2145C87.1236 146.008 86.9721 146.21 86.7599 146.426C86.5478 146.642 86.2656 146.826 85.9134 146.977C85.5611 147.129 85.1312 147.205 84.6236 147.205ZM84.8281 146C85.3584 146 85.8054 145.896 86.169 145.688C86.5365 145.479 86.813 145.21 86.9986 144.881C87.188 144.551 87.2827 144.205 87.2827 143.841V142.614C87.2259 142.682 87.1009 142.744 86.9077 142.801C86.7183 142.854 86.4986 142.902 86.2486 142.943C86.0024 142.981 85.7618 143.015 85.527 143.045C85.2959 143.072 85.1084 143.095 84.9645 143.114C84.616 143.159 84.2902 143.233 83.9872 143.335C83.688 143.434 83.4455 143.583 83.2599 143.784C83.0781 143.981 82.9872 144.25 82.9872 144.591C82.9872 145.057 83.1596 145.409 83.5043 145.648C83.8527 145.883 84.294 146 84.8281 146ZM94.8665 138.273V139.409H90.3438V138.273H94.8665ZM91.6619 136.182H93.0028V144.5C93.0028 144.879 93.0578 145.163 93.1676 145.352C93.2813 145.538 93.4252 145.663 93.5994 145.727C93.7775 145.788 93.965 145.818 94.1619 145.818C94.3097 145.818 94.4309 145.811 94.5256 145.795C94.6203 145.777 94.696 145.761 94.7528 145.75L95.0256 146.955C94.9347 146.989 94.8078 147.023 94.6449 147.057C94.482 147.095 94.2756 147.114 94.0256 147.114C93.6468 147.114 93.2756 147.032 92.9119 146.869C92.5521 146.706 92.2528 146.458 92.0142 146.125C91.7794 145.792 91.6619 145.371 91.6619 144.864V136.182ZM100.449 147.182C99.608 147.182 98.8826 146.996 98.2727 146.625C97.6667 146.25 97.1989 145.727 96.8693 145.057C96.5436 144.383 96.3807 143.598 96.3807 142.705C96.3807 141.811 96.5436 141.023 96.8693 140.341C97.1989 139.655 97.6572 139.121 98.2443 138.739C98.8352 138.352 99.5246 138.159 100.312 138.159C100.767 138.159 101.216 138.235 101.659 138.386C102.102 138.538 102.506 138.784 102.869 139.125C103.233 139.462 103.523 139.909 103.739 140.466C103.955 141.023 104.062 141.708 104.062 142.523V143.091H97.3352V141.932H102.699C102.699 141.439 102.6 141 102.403 140.614C102.21 140.227 101.934 139.922 101.574 139.699C101.218 139.475 100.797 139.364 100.312 139.364C99.7784 139.364 99.3163 139.496 98.9261 139.761C98.5398 140.023 98.2424 140.364 98.0341 140.784C97.8258 141.205 97.7216 141.655 97.7216 142.136V142.909C97.7216 143.568 97.8352 144.127 98.0625 144.585C98.2936 145.04 98.6136 145.386 99.0227 145.625C99.4318 145.86 99.9072 145.977 100.449 145.977C100.801 145.977 101.119 145.928 101.403 145.83C101.691 145.727 101.939 145.576 102.148 145.375C102.356 145.17 102.517 144.917 102.631 144.614L103.926 144.977C103.79 145.417 103.561 145.803 103.239 146.136C102.917 146.466 102.519 146.723 102.045 146.909C101.572 147.091 101.04 147.182 100.449 147.182ZM113.17 147.205C112.617 147.205 112.116 147.1 111.665 146.892C111.214 146.68 110.856 146.375 110.591 145.977C110.326 145.576 110.193 145.091 110.193 144.523C110.193 144.023 110.292 143.617 110.489 143.307C110.686 142.992 110.949 142.746 111.278 142.568C111.608 142.39 111.972 142.258 112.369 142.17C112.771 142.08 113.174 142.008 113.58 141.955C114.11 141.886 114.54 141.835 114.869 141.801C115.203 141.763 115.445 141.701 115.597 141.614C115.752 141.527 115.83 141.375 115.83 141.159V141.114C115.83 140.553 115.676 140.117 115.369 139.807C115.066 139.496 114.606 139.341 113.989 139.341C113.348 139.341 112.847 139.481 112.483 139.761C112.119 140.042 111.864 140.341 111.716 140.659L110.443 140.205C110.67 139.674 110.973 139.261 111.352 138.966C111.735 138.667 112.152 138.458 112.602 138.341C113.057 138.22 113.504 138.159 113.943 138.159C114.223 138.159 114.545 138.193 114.909 138.261C115.277 138.326 115.631 138.46 115.972 138.665C116.316 138.869 116.602 139.178 116.83 139.591C117.057 140.004 117.17 140.557 117.17 141.25V147H115.83V145.818H115.761C115.67 146.008 115.519 146.21 115.307 146.426C115.095 146.642 114.813 146.826 114.46 146.977C114.108 147.129 113.678 147.205 113.17 147.205ZM113.375 146C113.905 146 114.352 145.896 114.716 145.688C115.083 145.479 115.36 145.21 115.545 144.881C115.735 144.551 115.83 144.205 115.83 143.841V142.614C115.773 142.682 115.648 142.744 115.455 142.801C115.265 142.854 115.045 142.902 114.795 142.943C114.549 142.981 114.309 143.015 114.074 143.045C113.843 143.072 113.655 143.095 113.511 143.114C113.163 143.159 112.837 143.233 112.534 143.335C112.235 143.434 111.992 143.583 111.807 143.784C111.625 143.981 111.534 144.25 111.534 144.591C111.534 145.057 111.706 145.409 112.051 145.648C112.4 145.883 112.841 146 113.375 146ZM127.913 138.273V139.409H123.391V138.273H127.913ZM124.709 136.182H126.05V144.5C126.05 144.879 126.105 145.163 126.214 145.352C126.328 145.538 126.472 145.663 126.646 145.727C126.824 145.788 127.012 145.818 127.209 145.818C127.357 145.818 127.478 145.811 127.572 145.795C127.667 145.777 127.743 145.761 127.8 145.75L128.072 146.955C127.982 146.989 127.855 147.023 127.692 147.057C127.529 147.095 127.322 147.114 127.072 147.114C126.694 147.114 126.322 147.032 125.959 146.869C125.599 146.706 125.3 146.458 125.061 146.125C124.826 145.792 124.709 145.371 124.709 144.864V136.182ZM130.794 150.273C130.567 150.273 130.364 150.254 130.186 150.216C130.008 150.182 129.885 150.148 129.817 150.114L130.158 148.932C130.483 149.015 130.771 149.045 131.021 149.023C131.271 149 131.493 148.888 131.686 148.688C131.883 148.491 132.063 148.17 132.226 147.727L132.476 147.045L129.249 138.273H130.703L133.112 145.227H133.203L135.612 138.273H137.067L133.362 148.273C133.196 148.723 132.989 149.097 132.743 149.392C132.497 149.691 132.211 149.913 131.885 150.057C131.563 150.201 131.199 150.273 130.794 150.273ZM138.837 150.273V138.273H140.132V139.659H140.291C140.39 139.508 140.526 139.314 140.7 139.08C140.878 138.841 141.132 138.629 141.462 138.443C141.795 138.254 142.246 138.159 142.814 138.159C143.549 138.159 144.196 138.343 144.757 138.71C145.318 139.078 145.755 139.598 146.07 140.273C146.384 140.947 146.541 141.742 146.541 142.659C146.541 143.583 146.384 144.384 146.07 145.062C145.755 145.737 145.32 146.259 144.763 146.631C144.206 146.998 143.564 147.182 142.837 147.182C142.276 147.182 141.827 147.089 141.49 146.903C141.153 146.714 140.893 146.5 140.712 146.261C140.53 146.019 140.39 145.818 140.291 145.659H140.178V150.273H138.837ZM140.155 142.636C140.155 143.295 140.251 143.877 140.445 144.381C140.638 144.881 140.92 145.273 141.291 145.557C141.662 145.837 142.117 145.977 142.655 145.977C143.215 145.977 143.683 145.83 144.058 145.534C144.437 145.235 144.721 144.833 144.911 144.33C145.104 143.822 145.2 143.258 145.2 142.636C145.2 142.023 145.106 141.47 144.916 140.977C144.731 140.481 144.448 140.089 144.07 139.801C143.695 139.509 143.223 139.364 142.655 139.364C142.109 139.364 141.651 139.502 141.28 139.778C140.909 140.051 140.628 140.434 140.439 140.926C140.25 141.415 140.155 141.985 140.155 142.636ZM152.246 147.182C151.405 147.182 150.679 146.996 150.07 146.625C149.464 146.25 148.996 145.727 148.666 145.057C148.34 144.383 148.178 143.598 148.178 142.705C148.178 141.811 148.34 141.023 148.666 140.341C148.996 139.655 149.454 139.121 150.041 138.739C150.632 138.352 151.321 138.159 152.109 138.159C152.564 138.159 153.013 138.235 153.456 138.386C153.899 138.538 154.303 138.784 154.666 139.125C155.03 139.462 155.32 139.909 155.536 140.466C155.751 141.023 155.859 141.708 155.859 142.523V143.091H149.132V141.932H154.496C154.496 141.439 154.397 141 154.2 140.614C154.007 140.227 153.731 139.922 153.371 139.699C153.015 139.475 152.594 139.364 152.109 139.364C151.575 139.364 151.113 139.496 150.723 139.761C150.337 140.023 150.039 140.364 149.831 140.784C149.623 141.205 149.518 141.655 149.518 142.136V142.909C149.518 143.568 149.632 144.127 149.859 144.585C150.09 145.04 150.411 145.386 150.82 145.625C151.229 145.86 151.704 145.977 152.246 145.977C152.598 145.977 152.916 145.928 153.2 145.83C153.488 145.727 153.736 145.576 153.945 145.375C154.153 145.17 154.314 144.917 154.428 144.614L155.723 144.977C155.587 145.417 155.357 145.803 155.036 146.136C154.714 146.466 154.316 146.723 153.842 146.909C153.369 147.091 152.837 147.182 152.246 147.182ZM164.081 140.227L162.876 140.568C162.801 140.367 162.689 140.172 162.541 139.983C162.397 139.79 162.2 139.631 161.95 139.506C161.7 139.381 161.38 139.318 160.99 139.318C160.456 139.318 160.011 139.441 159.655 139.688C159.303 139.93 159.126 140.239 159.126 140.614C159.126 140.947 159.248 141.21 159.49 141.403C159.732 141.597 160.111 141.758 160.626 141.886L161.922 142.205C162.702 142.394 163.284 142.684 163.666 143.074C164.049 143.46 164.24 143.958 164.24 144.568C164.24 145.068 164.096 145.515 163.808 145.909C163.524 146.303 163.126 146.614 162.615 146.841C162.104 147.068 161.509 147.182 160.831 147.182C159.941 147.182 159.204 146.989 158.621 146.602C158.037 146.216 157.668 145.652 157.513 144.909L158.786 144.591C158.907 145.061 159.136 145.413 159.473 145.648C159.814 145.883 160.259 146 160.808 146C161.433 146 161.929 145.867 162.297 145.602C162.668 145.333 162.854 145.011 162.854 144.636C162.854 144.333 162.748 144.08 162.536 143.875C162.323 143.667 161.998 143.511 161.558 143.409L160.104 143.068C159.304 142.879 158.717 142.585 158.342 142.188C157.971 141.786 157.786 141.284 157.786 140.682C157.786 140.189 157.924 139.754 158.2 139.375C158.481 138.996 158.861 138.699 159.342 138.483C159.827 138.267 160.376 138.159 160.99 138.159C161.854 138.159 162.532 138.348 163.024 138.727C163.52 139.106 163.873 139.606 164.081 140.227ZM168.827 147.205C168.274 147.205 167.772 147.1 167.321 146.892C166.87 146.68 166.512 146.375 166.247 145.977C165.982 145.576 165.849 145.091 165.849 144.523C165.849 144.023 165.948 143.617 166.145 143.307C166.342 142.992 166.605 142.746 166.935 142.568C167.264 142.39 167.628 142.258 168.026 142.17C168.427 142.08 168.83 142.008 169.236 141.955C169.766 141.886 170.196 141.835 170.526 141.801C170.859 141.763 171.101 141.701 171.253 141.614C171.408 141.527 171.486 141.375 171.486 141.159V141.114C171.486 140.553 171.332 140.117 171.026 139.807C170.723 139.496 170.262 139.341 169.645 139.341C169.005 139.341 168.503 139.481 168.139 139.761C167.776 140.042 167.52 140.341 167.372 140.659L166.099 140.205C166.327 139.674 166.63 139.261 167.009 138.966C167.391 138.667 167.808 138.458 168.259 138.341C168.713 138.22 169.16 138.159 169.599 138.159C169.88 138.159 170.202 138.193 170.565 138.261C170.933 138.326 171.287 138.46 171.628 138.665C171.973 138.869 172.259 139.178 172.486 139.591C172.713 140.004 172.827 140.557 172.827 141.25V147H171.486V145.818H171.418C171.327 146.008 171.175 146.21 170.963 146.426C170.751 146.642 170.469 146.826 170.116 146.977C169.764 147.129 169.334 147.205 168.827 147.205ZM169.031 146C169.562 146 170.009 145.896 170.372 145.688C170.74 145.479 171.016 145.21 171.202 144.881C171.391 144.551 171.486 144.205 171.486 143.841V142.614C171.429 142.682 171.304 142.744 171.111 142.801C170.921 142.854 170.702 142.902 170.452 142.943C170.205 142.981 169.965 143.015 169.73 143.045C169.499 143.072 169.312 143.095 169.168 143.114C168.819 143.159 168.493 143.233 168.19 143.335C167.891 143.434 167.649 143.583 167.463 143.784C167.281 143.981 167.19 144.25 167.19 144.591C167.19 145.057 167.363 145.409 167.707 145.648C168.056 145.883 168.497 146 169.031 146ZM179.161 138.273V139.409H174.456V138.273H179.161ZM175.865 147V137.068C175.865 136.568 175.982 136.152 176.217 135.818C176.452 135.485 176.757 135.235 177.132 135.068C177.507 134.902 177.903 134.818 178.32 134.818C178.649 134.818 178.918 134.845 179.126 134.898C179.335 134.951 179.49 135 179.592 135.045L179.206 136.205C179.138 136.182 179.043 136.153 178.922 136.119C178.804 136.085 178.649 136.068 178.456 136.068C178.013 136.068 177.693 136.18 177.496 136.403C177.303 136.627 177.206 136.955 177.206 137.386V147H175.865ZM184.339 147.182C183.499 147.182 182.773 146.996 182.163 146.625C181.557 146.25 181.089 145.727 180.76 145.057C180.434 144.383 180.271 143.598 180.271 142.705C180.271 141.811 180.434 141.023 180.76 140.341C181.089 139.655 181.548 139.121 182.135 138.739C182.726 138.352 183.415 138.159 184.203 138.159C184.658 138.159 185.107 138.235 185.55 138.386C185.993 138.538 186.396 138.784 186.76 139.125C187.124 139.462 187.413 139.909 187.629 140.466C187.845 141.023 187.953 141.708 187.953 142.523V143.091H181.226V141.932H186.589C186.589 141.439 186.491 141 186.294 140.614C186.101 140.227 185.824 139.922 185.464 139.699C185.108 139.475 184.688 139.364 184.203 139.364C183.669 139.364 183.207 139.496 182.817 139.761C182.43 140.023 182.133 140.364 181.925 140.784C181.716 141.205 181.612 141.655 181.612 142.136V142.909C181.612 143.568 181.726 144.127 181.953 144.585C182.184 145.04 182.504 145.386 182.913 145.625C183.322 145.86 183.798 145.977 184.339 145.977C184.692 145.977 185.01 145.928 185.294 145.83C185.582 145.727 185.83 145.576 186.038 145.375C186.247 145.17 186.408 144.917 186.521 144.614L187.817 144.977C187.68 145.417 187.451 145.803 187.129 146.136C186.807 146.466 186.41 146.723 185.936 146.909C185.463 147.091 184.93 147.182 184.339 147.182ZM201.038 138.273C200.97 137.697 200.694 137.25 200.209 136.932C199.724 136.614 199.129 136.455 198.425 136.455C197.91 136.455 197.459 136.538 197.072 136.705C196.69 136.871 196.391 137.1 196.175 137.392C195.963 137.684 195.857 138.015 195.857 138.386C195.857 138.697 195.93 138.964 196.078 139.188C196.23 139.407 196.423 139.591 196.658 139.739C196.893 139.883 197.139 140.002 197.396 140.097C197.654 140.187 197.891 140.261 198.107 140.318L199.288 140.636C199.591 140.716 199.929 140.826 200.3 140.966C200.675 141.106 201.033 141.297 201.374 141.54C201.718 141.778 202.002 142.085 202.226 142.46C202.449 142.835 202.561 143.295 202.561 143.841C202.561 144.47 202.396 145.038 202.067 145.545C201.741 146.053 201.264 146.456 200.635 146.756C200.01 147.055 199.25 147.205 198.357 147.205C197.523 147.205 196.802 147.07 196.192 146.801C195.586 146.532 195.108 146.157 194.76 145.676C194.415 145.195 194.22 144.636 194.175 144H195.629C195.667 144.439 195.815 144.803 196.072 145.091C196.334 145.375 196.663 145.587 197.061 145.727C197.463 145.864 197.894 145.932 198.357 145.932C198.894 145.932 199.377 145.845 199.805 145.67C200.233 145.492 200.572 145.246 200.822 144.932C201.072 144.614 201.197 144.242 201.197 143.818C201.197 143.432 201.089 143.117 200.874 142.875C200.658 142.633 200.374 142.436 200.021 142.284C199.669 142.133 199.288 142 198.879 141.886L197.447 141.477C196.538 141.216 195.819 140.843 195.288 140.358C194.758 139.873 194.493 139.239 194.493 138.455C194.493 137.803 194.669 137.235 195.021 136.75C195.377 136.261 195.855 135.883 196.453 135.614C197.055 135.341 197.728 135.205 198.47 135.205C199.22 135.205 199.887 135.339 200.47 135.608C201.054 135.873 201.516 136.237 201.857 136.699C202.201 137.161 202.383 137.686 202.402 138.273H201.038ZM208.469 147H204.878V135.364H208.628C209.757 135.364 210.723 135.597 211.526 136.062C212.329 136.525 212.944 137.189 213.372 138.057C213.8 138.92 214.014 139.955 214.014 141.159C214.014 142.371 213.798 143.415 213.366 144.29C212.935 145.161 212.306 145.831 211.48 146.301C210.654 146.767 209.651 147 208.469 147ZM206.287 145.75H208.378C209.34 145.75 210.137 145.564 210.77 145.193C211.402 144.822 211.874 144.294 212.185 143.608C212.495 142.922 212.651 142.106 212.651 141.159C212.651 140.22 212.497 139.411 212.19 138.733C211.884 138.051 211.425 137.528 210.815 137.165C210.205 136.797 209.446 136.614 208.537 136.614H206.287V145.75ZM216.378 147V135.364H217.787V141.136H217.923L223.151 135.364H224.991L220.105 140.614L224.991 147H223.287L219.241 141.591L217.787 143.227V147H216.378ZM233.702 147.205C233.149 147.205 232.647 147.1 232.196 146.892C231.745 146.68 231.387 146.375 231.122 145.977C230.857 145.576 230.724 145.091 230.724 144.523C230.724 144.023 230.823 143.617 231.02 143.307C231.217 142.992 231.48 142.746 231.81 142.568C232.139 142.39 232.503 142.258 232.901 142.17C233.302 142.08 233.705 142.008 234.111 141.955C234.641 141.886 235.071 141.835 235.401 141.801C235.734 141.763 235.976 141.701 236.128 141.614C236.283 141.527 236.361 141.375 236.361 141.159V141.114C236.361 140.553 236.207 140.117 235.901 139.807C235.598 139.496 235.137 139.341 234.52 139.341C233.88 139.341 233.378 139.481 233.014 139.761C232.651 140.042 232.395 140.341 232.247 140.659L230.974 140.205C231.202 139.674 231.505 139.261 231.884 138.966C232.266 138.667 232.683 138.458 233.134 138.341C233.588 138.22 234.035 138.159 234.474 138.159C234.755 138.159 235.077 138.193 235.44 138.261C235.808 138.326 236.162 138.46 236.503 138.665C236.848 138.869 237.134 139.178 237.361 139.591C237.588 140.004 237.702 140.557 237.702 141.25V147H236.361V145.818H236.293C236.202 146.008 236.05 146.21 235.838 146.426C235.626 146.642 235.344 146.826 234.991 146.977C234.639 147.129 234.209 147.205 233.702 147.205ZM233.906 146C234.437 146 234.884 145.896 235.247 145.688C235.615 145.479 235.891 145.21 236.077 144.881C236.266 144.551 236.361 144.205 236.361 143.841V142.614C236.304 142.682 236.179 142.744 235.986 142.801C235.796 142.854 235.577 142.902 235.327 142.943C235.08 142.981 234.84 143.015 234.605 143.045C234.374 143.072 234.187 143.095 234.043 143.114C233.694 143.159 233.368 143.233 233.065 143.335C232.766 143.434 232.524 143.583 232.338 143.784C232.156 143.981 232.065 144.25 232.065 144.591C232.065 145.057 232.238 145.409 232.582 145.648C232.931 145.883 233.372 146 233.906 146ZM241.49 141.75V147H240.149V138.273H241.445V139.636H241.558C241.763 139.193 242.073 138.837 242.49 138.568C242.907 138.295 243.445 138.159 244.104 138.159C244.695 138.159 245.212 138.28 245.655 138.523C246.098 138.761 246.443 139.125 246.689 139.614C246.935 140.098 247.058 140.712 247.058 141.455V147H245.717V141.545C245.717 140.86 245.539 140.326 245.183 139.943C244.827 139.557 244.339 139.364 243.717 139.364C243.289 139.364 242.907 139.456 242.57 139.642C242.236 139.828 241.973 140.098 241.78 140.455C241.587 140.811 241.49 141.242 241.49 141.75ZM252.804 147.182C252.077 147.182 251.435 146.998 250.878 146.631C250.321 146.259 249.885 145.737 249.571 145.062C249.257 144.384 249.099 143.583 249.099 142.659C249.099 141.742 249.257 140.947 249.571 140.273C249.885 139.598 250.323 139.078 250.884 138.71C251.444 138.343 252.092 138.159 252.827 138.159C253.395 138.159 253.844 138.254 254.173 138.443C254.507 138.629 254.76 138.841 254.935 139.08C255.113 139.314 255.251 139.508 255.349 139.659H255.463V135.364H256.804V147H255.509V145.659H255.349C255.251 145.818 255.111 146.019 254.929 146.261C254.747 146.5 254.488 146.714 254.151 146.903C253.813 147.089 253.365 147.182 252.804 147.182ZM252.986 145.977C253.524 145.977 253.978 145.837 254.349 145.557C254.721 145.273 255.003 144.881 255.196 144.381C255.389 143.877 255.486 143.295 255.486 142.636C255.486 141.985 255.391 141.415 255.202 140.926C255.012 140.434 254.732 140.051 254.361 139.778C253.99 139.502 253.531 139.364 252.986 139.364C252.418 139.364 251.944 139.509 251.565 139.801C251.19 140.089 250.908 140.481 250.719 140.977C250.533 141.47 250.44 142.023 250.44 142.636C250.44 143.258 250.535 143.822 250.724 144.33C250.918 144.833 251.202 145.235 251.577 145.534C251.955 145.83 252.425 145.977 252.986 145.977ZM267.491 147.182C266.673 147.182 265.969 146.989 265.378 146.602C264.787 146.216 264.332 145.684 264.014 145.006C263.696 144.328 263.537 143.553 263.537 142.682C263.537 141.795 263.7 141.013 264.026 140.335C264.355 139.653 264.813 139.121 265.401 138.739C265.991 138.352 266.681 138.159 267.469 138.159C268.082 138.159 268.635 138.273 269.128 138.5C269.62 138.727 270.024 139.045 270.338 139.455C270.652 139.864 270.848 140.341 270.923 140.886H269.582C269.48 140.489 269.253 140.136 268.901 139.83C268.552 139.519 268.082 139.364 267.491 139.364C266.969 139.364 266.51 139.5 266.116 139.773C265.726 140.042 265.421 140.422 265.202 140.915C264.986 141.403 264.878 141.977 264.878 142.636C264.878 143.311 264.984 143.898 265.196 144.398C265.412 144.898 265.715 145.286 266.105 145.562C266.499 145.839 266.961 145.977 267.491 145.977C267.84 145.977 268.156 145.917 268.44 145.795C268.724 145.674 268.965 145.5 269.162 145.273C269.359 145.045 269.499 144.773 269.582 144.455H270.923C270.848 144.97 270.66 145.434 270.361 145.847C270.065 146.256 269.673 146.581 269.185 146.824C268.7 147.062 268.135 147.182 267.491 147.182ZM276.429 147.182C275.641 147.182 274.95 146.994 274.355 146.619C273.764 146.244 273.302 145.72 272.969 145.045C272.639 144.371 272.474 143.583 272.474 142.682C272.474 141.773 272.639 140.979 272.969 140.301C273.302 139.623 273.764 139.097 274.355 138.722C274.95 138.347 275.641 138.159 276.429 138.159C277.217 138.159 277.906 138.347 278.497 138.722C279.092 139.097 279.554 139.623 279.884 140.301C280.217 140.979 280.384 141.773 280.384 142.682C280.384 143.583 280.217 144.371 279.884 145.045C279.554 145.72 279.092 146.244 278.497 146.619C277.906 146.994 277.217 147.182 276.429 147.182ZM276.429 145.977C277.027 145.977 277.52 145.824 277.906 145.517C278.293 145.21 278.579 144.807 278.764 144.307C278.95 143.807 279.043 143.265 279.043 142.682C279.043 142.098 278.95 141.555 278.764 141.051C278.579 140.547 278.293 140.14 277.906 139.83C277.52 139.519 277.027 139.364 276.429 139.364C275.83 139.364 275.338 139.519 274.952 139.83C274.565 140.14 274.279 140.547 274.094 141.051C273.908 141.555 273.815 142.098 273.815 142.682C273.815 143.265 273.908 143.807 274.094 144.307C274.279 144.807 274.565 145.21 274.952 145.517C275.338 145.824 275.83 145.977 276.429 145.977ZM282.43 147V138.273H283.726V139.636H283.839C284.021 139.17 284.315 138.809 284.72 138.551C285.125 138.29 285.612 138.159 286.18 138.159C286.756 138.159 287.235 138.29 287.618 138.551C288.004 138.809 288.305 139.17 288.521 139.636H288.612C288.836 139.186 289.171 138.828 289.618 138.562C290.065 138.294 290.601 138.159 291.226 138.159C292.006 138.159 292.644 138.403 293.141 138.892C293.637 139.377 293.885 140.133 293.885 141.159V147H292.544V141.159C292.544 140.515 292.368 140.055 292.016 139.778C291.663 139.502 291.249 139.364 290.771 139.364C290.158 139.364 289.682 139.549 289.345 139.92C289.008 140.288 288.839 140.754 288.839 141.318V147H287.476V141.023C287.476 140.527 287.315 140.127 286.993 139.824C286.671 139.517 286.256 139.364 285.749 139.364C285.4 139.364 285.074 139.456 284.771 139.642C284.472 139.828 284.23 140.085 284.044 140.415C283.862 140.741 283.771 141.117 283.771 141.545V147H282.43ZM296.337 150.273V138.273H297.632V139.659H297.791C297.89 139.508 298.026 139.314 298.2 139.08C298.378 138.841 298.632 138.629 298.962 138.443C299.295 138.254 299.746 138.159 300.314 138.159C301.049 138.159 301.696 138.343 302.257 138.71C302.818 139.078 303.255 139.598 303.57 140.273C303.884 140.947 304.041 141.742 304.041 142.659C304.041 143.583 303.884 144.384 303.57 145.062C303.255 145.737 302.82 146.259 302.263 146.631C301.706 146.998 301.064 147.182 300.337 147.182C299.776 147.182 299.327 147.089 298.99 146.903C298.653 146.714 298.393 146.5 298.212 146.261C298.03 146.019 297.89 145.818 297.791 145.659H297.678V150.273H296.337ZM297.655 142.636C297.655 143.295 297.751 143.877 297.945 144.381C298.138 144.881 298.42 145.273 298.791 145.557C299.162 145.837 299.617 145.977 300.155 145.977C300.715 145.977 301.183 145.83 301.558 145.534C301.937 145.235 302.221 144.833 302.411 144.33C302.604 143.822 302.7 143.258 302.7 142.636C302.7 142.023 302.606 141.47 302.416 140.977C302.231 140.481 301.948 140.089 301.57 139.801C301.195 139.509 300.723 139.364 300.155 139.364C299.609 139.364 299.151 139.502 298.78 139.778C298.409 140.051 298.128 140.434 297.939 140.926C297.75 141.415 297.655 141.985 297.655 142.636ZM307.428 135.364V147H306.087V135.364H307.428ZM313.543 147.182C312.702 147.182 311.976 146.996 311.366 146.625C310.76 146.25 310.293 145.727 309.963 145.057C309.637 144.383 309.474 143.598 309.474 142.705C309.474 141.811 309.637 141.023 309.963 140.341C310.293 139.655 310.751 139.121 311.338 138.739C311.929 138.352 312.618 138.159 313.406 138.159C313.861 138.159 314.31 138.235 314.753 138.386C315.196 138.538 315.599 138.784 315.963 139.125C316.327 139.462 316.616 139.909 316.832 140.466C317.048 141.023 317.156 141.708 317.156 142.523V143.091H310.429V141.932H315.793C315.793 141.439 315.694 141 315.497 140.614C315.304 140.227 315.027 139.922 314.668 139.699C314.312 139.475 313.891 139.364 313.406 139.364C312.872 139.364 312.41 139.496 312.02 139.761C311.634 140.023 311.336 140.364 311.128 140.784C310.92 141.205 310.815 141.655 310.815 142.136V142.909C310.815 143.568 310.929 144.127 311.156 144.585C311.387 145.04 311.707 145.386 312.116 145.625C312.526 145.86 313.001 145.977 313.543 145.977C313.895 145.977 314.213 145.928 314.497 145.83C314.785 145.727 315.033 145.576 315.241 145.375C315.45 145.17 315.611 144.917 315.724 144.614L317.02 144.977C316.884 145.417 316.654 145.803 316.332 146.136C316.01 146.466 315.613 146.723 315.139 146.909C314.666 147.091 314.134 147.182 313.543 147.182ZM322.991 138.273V139.409H318.469V138.273H322.991ZM319.787 136.182H321.128V144.5C321.128 144.879 321.183 145.163 321.293 145.352C321.406 145.538 321.55 145.663 321.724 145.727C321.902 145.788 322.09 145.818 322.287 145.818C322.435 145.818 322.556 145.811 322.651 145.795C322.745 145.777 322.821 145.761 322.878 145.75L323.151 146.955C323.06 146.989 322.933 147.023 322.77 147.057C322.607 147.095 322.401 147.114 322.151 147.114C321.772 147.114 321.401 147.032 321.037 146.869C320.677 146.706 320.378 146.458 320.139 146.125C319.904 145.792 319.787 145.371 319.787 144.864V136.182ZM328.574 147.182C327.733 147.182 327.008 146.996 326.398 146.625C325.792 146.25 325.324 145.727 324.994 145.057C324.669 144.383 324.506 143.598 324.506 142.705C324.506 141.811 324.669 141.023 324.994 140.341C325.324 139.655 325.782 139.121 326.369 138.739C326.96 138.352 327.65 138.159 328.438 138.159C328.892 138.159 329.341 138.235 329.784 138.386C330.227 138.538 330.631 138.784 330.994 139.125C331.358 139.462 331.648 139.909 331.864 140.466C332.08 141.023 332.188 141.708 332.188 142.523V143.091H325.46V141.932H330.824C330.824 141.439 330.725 141 330.528 140.614C330.335 140.227 330.059 139.922 329.699 139.699C329.343 139.475 328.922 139.364 328.438 139.364C327.903 139.364 327.441 139.496 327.051 139.761C326.665 140.023 326.367 140.364 326.159 140.784C325.951 141.205 325.847 141.655 325.847 142.136V142.909C325.847 143.568 325.96 144.127 326.188 144.585C326.419 145.04 326.739 145.386 327.148 145.625C327.557 145.86 328.032 145.977 328.574 145.977C328.926 145.977 329.244 145.928 329.528 145.83C329.816 145.727 330.064 145.576 330.273 145.375C330.481 145.17 330.642 144.917 330.756 144.614L332.051 144.977C331.915 145.417 331.686 145.803 331.364 146.136C331.042 146.466 330.644 146.723 330.17 146.909C329.697 147.091 329.165 147.182 328.574 147.182ZM345.273 138.273C345.205 137.697 344.928 137.25 344.443 136.932C343.958 136.614 343.364 136.455 342.659 136.455C342.144 136.455 341.693 136.538 341.307 136.705C340.924 136.871 340.625 137.1 340.409 137.392C340.197 137.684 340.091 138.015 340.091 138.386C340.091 138.697 340.165 138.964 340.312 139.188C340.464 139.407 340.657 139.591 340.892 139.739C341.127 139.883 341.373 140.002 341.631 140.097C341.888 140.187 342.125 140.261 342.341 140.318L343.523 140.636C343.826 140.716 344.163 140.826 344.534 140.966C344.909 141.106 345.267 141.297 345.608 141.54C345.953 141.778 346.237 142.085 346.46 142.46C346.684 142.835 346.795 143.295 346.795 143.841C346.795 144.47 346.631 145.038 346.301 145.545C345.975 146.053 345.498 146.456 344.869 146.756C344.244 147.055 343.485 147.205 342.591 147.205C341.758 147.205 341.036 147.07 340.426 146.801C339.82 146.532 339.343 146.157 338.994 145.676C338.65 145.195 338.455 144.636 338.409 144H339.864C339.902 144.439 340.049 144.803 340.307 145.091C340.568 145.375 340.898 145.587 341.295 145.727C341.697 145.864 342.129 145.932 342.591 145.932C343.129 145.932 343.612 145.845 344.04 145.67C344.468 145.492 344.807 145.246 345.057 144.932C345.307 144.614 345.432 144.242 345.432 143.818C345.432 143.432 345.324 143.117 345.108 142.875C344.892 142.633 344.608 142.436 344.256 142.284C343.903 142.133 343.523 142 343.114 141.886L341.682 141.477C340.773 141.216 340.053 140.843 339.523 140.358C338.992 139.873 338.727 139.239 338.727 138.455C338.727 137.803 338.903 137.235 339.256 136.75C339.612 136.261 340.089 135.883 340.688 135.614C341.29 135.341 341.962 135.205 342.705 135.205C343.455 135.205 344.121 135.339 344.705 135.608C345.288 135.873 345.75 136.237 346.091 136.699C346.436 137.161 346.617 137.686 346.636 138.273H345.273ZM352.703 147H349.112V135.364H352.862C353.991 135.364 354.957 135.597 355.76 136.062C356.563 136.525 357.179 137.189 357.607 138.057C358.035 138.92 358.249 139.955 358.249 141.159C358.249 142.371 358.033 143.415 357.601 144.29C357.169 145.161 356.54 145.831 355.714 146.301C354.889 146.767 353.885 147 352.703 147ZM350.521 145.75H352.612C353.574 145.75 354.372 145.564 355.004 145.193C355.637 144.822 356.108 144.294 356.419 143.608C356.73 142.922 356.885 142.106 356.885 141.159C356.885 140.22 356.732 139.411 356.425 138.733C356.118 138.051 355.66 137.528 355.05 137.165C354.44 136.797 353.68 136.614 352.771 136.614H350.521V145.75ZM360.612 147V135.364H362.021V141.136H362.158L367.385 135.364H369.226L364.339 140.614L369.226 147H367.521L363.476 141.591L362.021 143.227V147H360.612ZM375.368 147V138.273H376.709V147H375.368ZM376.05 136.818C375.788 136.818 375.563 136.729 375.374 136.551C375.188 136.373 375.095 136.159 375.095 135.909C375.095 135.659 375.188 135.445 375.374 135.267C375.563 135.089 375.788 135 376.05 135C376.311 135 376.535 135.089 376.72 135.267C376.91 135.445 377.004 135.659 377.004 135.909C377.004 136.159 376.91 136.373 376.72 136.551C376.535 136.729 376.311 136.818 376.05 136.818ZM380.506 141.75V147H379.165V138.273H380.46V139.636H380.574C380.778 139.193 381.089 138.837 381.506 138.568C381.922 138.295 382.46 138.159 383.119 138.159C383.71 138.159 384.227 138.28 384.67 138.523C385.114 138.761 385.458 139.125 385.705 139.614C385.951 140.098 386.074 140.712 386.074 141.455V147H384.733V141.545C384.733 140.86 384.555 140.326 384.199 139.943C383.843 139.557 383.354 139.364 382.733 139.364C382.305 139.364 381.922 139.456 381.585 139.642C381.252 139.828 380.989 140.098 380.795 140.455C380.602 140.811 380.506 141.242 380.506 141.75ZM42.4091 159.227L41.2045 159.568C41.1288 159.367 41.017 159.172 40.8693 158.983C40.7254 158.79 40.5284 158.631 40.2784 158.506C40.0284 158.381 39.7083 158.318 39.3182 158.318C38.7841 158.318 38.339 158.441 37.983 158.688C37.6307 158.93 37.4545 159.239 37.4545 159.614C37.4545 159.947 37.5758 160.21 37.8182 160.403C38.0606 160.597 38.4394 160.758 38.9545 160.886L40.25 161.205C41.0303 161.394 41.6117 161.684 41.9943 162.074C42.3769 162.46 42.5682 162.958 42.5682 163.568C42.5682 164.068 42.4242 164.515 42.1364 164.909C41.8523 165.303 41.4545 165.614 40.9432 165.841C40.4318 166.068 39.8371 166.182 39.1591 166.182C38.2689 166.182 37.5322 165.989 36.9489 165.602C36.3655 165.216 35.9962 164.652 35.8409 163.909L37.1136 163.591C37.2348 164.061 37.464 164.413 37.8011 164.648C38.142 164.883 38.5871 165 39.1364 165C39.7614 165 40.2576 164.867 40.625 164.602C40.9962 164.333 41.1818 164.011 41.1818 163.636C41.1818 163.333 41.0758 163.08 40.8636 162.875C40.6515 162.667 40.3258 162.511 39.8864 162.409L38.4318 162.068C37.6326 161.879 37.0455 161.585 36.6705 161.188C36.2992 160.786 36.1136 160.284 36.1136 159.682C36.1136 159.189 36.2519 158.754 36.5284 158.375C36.8087 157.996 37.1894 157.699 37.6705 157.483C38.1553 157.267 38.7045 157.159 39.3182 157.159C40.1818 157.159 40.8598 157.348 41.3523 157.727C41.8485 158.106 42.2008 158.606 42.4091 159.227ZM48.2457 166.182C47.4048 166.182 46.6795 165.996 46.0696 165.625C45.4635 165.25 44.9957 164.727 44.6662 164.057C44.3404 163.383 44.1776 162.598 44.1776 161.705C44.1776 160.811 44.3404 160.023 44.6662 159.341C44.9957 158.655 45.4541 158.121 46.0412 157.739C46.6321 157.352 47.3215 157.159 48.1094 157.159C48.5639 157.159 49.0128 157.235 49.456 157.386C49.8991 157.538 50.3026 157.784 50.6662 158.125C51.0298 158.462 51.3196 158.909 51.5355 159.466C51.7514 160.023 51.8594 160.708 51.8594 161.523V162.091H45.1321V160.932H50.4957C50.4957 160.439 50.3973 160 50.2003 159.614C50.0071 159.227 49.7306 158.922 49.3707 158.699C49.0147 158.475 48.5942 158.364 48.1094 158.364C47.5753 158.364 47.1132 158.496 46.723 158.761C46.3366 159.023 46.0393 159.364 45.831 159.784C45.6226 160.205 45.5185 160.655 45.5185 161.136V161.909C45.5185 162.568 45.6321 163.127 45.8594 163.585C46.0904 164.04 46.4105 164.386 46.8196 164.625C47.2287 164.86 47.7041 164.977 48.2457 164.977C48.598 164.977 48.9162 164.928 49.2003 164.83C49.4882 164.727 49.7363 164.576 49.9446 164.375C50.1529 164.17 50.3139 163.917 50.4276 163.614L51.723 163.977C51.5866 164.417 51.3575 164.803 51.0355 165.136C50.7135 165.466 50.3158 165.723 49.8423 165.909C49.3688 166.091 48.8366 166.182 48.2457 166.182ZM60.7699 157.273L57.5426 166H56.179L52.9517 157.273H54.4062L56.8153 164.227H56.9062L59.3153 157.273H60.7699ZM65.8864 166.182C65.0455 166.182 64.3201 165.996 63.7102 165.625C63.1042 165.25 62.6364 164.727 62.3068 164.057C61.9811 163.383 61.8182 162.598 61.8182 161.705C61.8182 160.811 61.9811 160.023 62.3068 159.341C62.6364 158.655 63.0947 158.121 63.6818 157.739C64.2727 157.352 64.9621 157.159 65.75 157.159C66.2045 157.159 66.6534 157.235 67.0966 157.386C67.5398 157.538 67.9432 157.784 68.3068 158.125C68.6705 158.462 68.9602 158.909 69.1761 159.466C69.392 160.023 69.5 160.708 69.5 161.523V162.091H62.7727V160.932H68.1364C68.1364 160.439 68.0379 160 67.8409 159.614C67.6477 159.227 67.3712 158.922 67.0114 158.699C66.6553 158.475 66.2348 158.364 65.75 158.364C65.2159 158.364 64.7538 158.496 64.3636 158.761C63.9773 159.023 63.6799 159.364 63.4716 159.784C63.2633 160.205 63.1591 160.655 63.1591 161.136V161.909C63.1591 162.568 63.2727 163.127 63.5 163.585C63.7311 164.04 64.0511 164.386 64.4602 164.625C64.8693 164.86 65.3447 164.977 65.8864 164.977C66.2386 164.977 66.5568 164.928 66.8409 164.83C67.1288 164.727 67.3769 164.576 67.5852 164.375C67.7936 164.17 67.9545 163.917 68.0682 163.614L69.3636 163.977C69.2273 164.417 68.9981 164.803 68.6761 165.136C68.3542 165.466 67.9564 165.723 67.483 165.909C67.0095 166.091 66.4773 166.182 65.8864 166.182ZM71.5398 166V157.273H72.8352V158.591H72.9261C73.0852 158.159 73.3731 157.809 73.7898 157.54C74.2064 157.271 74.6761 157.136 75.1989 157.136C75.2973 157.136 75.4205 157.138 75.5682 157.142C75.7159 157.146 75.8277 157.152 75.9034 157.159V158.523C75.858 158.511 75.7538 158.494 75.5909 158.472C75.4318 158.445 75.2633 158.432 75.0852 158.432C74.661 158.432 74.2822 158.521 73.9489 158.699C73.6193 158.873 73.358 159.116 73.1648 159.426C72.9754 159.733 72.8807 160.083 72.8807 160.477V166H71.5398ZM80.0611 166.205C79.508 166.205 79.0062 166.1 78.5554 165.892C78.1046 165.68 77.7467 165.375 77.4815 164.977C77.2164 164.576 77.0838 164.091 77.0838 163.523C77.0838 163.023 77.1823 162.617 77.3793 162.307C77.5762 161.992 77.8395 161.746 78.169 161.568C78.4986 161.39 78.8622 161.258 79.2599 161.17C79.6615 161.08 80.0649 161.008 80.4702 160.955C81.0005 160.886 81.4304 160.835 81.7599 160.801C82.0933 160.763 82.3357 160.701 82.4872 160.614C82.6425 160.527 82.7202 160.375 82.7202 160.159V160.114C82.7202 159.553 82.5668 159.117 82.2599 158.807C81.9569 158.496 81.4967 158.341 80.8793 158.341C80.2391 158.341 79.7372 158.481 79.3736 158.761C79.0099 159.042 78.7543 159.341 78.6065 159.659L77.3338 159.205C77.5611 158.674 77.8641 158.261 78.2429 157.966C78.6255 157.667 79.0421 157.458 79.4929 157.341C79.9474 157.22 80.3944 157.159 80.8338 157.159C81.1141 157.159 81.4361 157.193 81.7997 157.261C82.1671 157.326 82.5213 157.46 82.8622 157.665C83.2069 157.869 83.4929 158.178 83.7202 158.591C83.9474 159.004 84.0611 159.557 84.0611 160.25V166H82.7202V164.818H82.652C82.5611 165.008 82.4096 165.21 82.1974 165.426C81.9853 165.642 81.7031 165.826 81.3509 165.977C80.9986 166.129 80.5687 166.205 80.0611 166.205ZM80.2656 165C80.7959 165 81.2429 164.896 81.6065 164.688C81.974 164.479 82.2505 164.21 82.4361 163.881C82.6255 163.551 82.7202 163.205 82.7202 162.841V161.614C82.6634 161.682 82.5384 161.744 82.3452 161.801C82.1558 161.854 81.9361 161.902 81.6861 161.943C81.4399 161.981 81.1993 162.015 80.9645 162.045C80.7334 162.072 80.5459 162.095 80.402 162.114C80.0535 162.159 79.7277 162.233 79.4247 162.335C79.1255 162.434 78.883 162.583 78.6974 162.784C78.5156 162.981 78.4247 163.25 78.4247 163.591C78.4247 164.057 78.5971 164.409 78.9418 164.648C79.2902 164.883 79.7315 165 80.2656 165ZM87.8494 154.364V166H86.5085V154.364H87.8494ZM96.1463 154.364V166H94.8054V154.364H96.1463ZM101.17 166.205C100.617 166.205 100.116 166.1 99.6648 165.892C99.214 165.68 98.8561 165.375 98.5909 164.977C98.3258 164.576 98.1932 164.091 98.1932 163.523C98.1932 163.023 98.2917 162.617 98.4886 162.307C98.6856 161.992 98.9489 161.746 99.2784 161.568C99.608 161.39 99.9716 161.258 100.369 161.17C100.771 161.08 101.174 161.008 101.58 160.955C102.11 160.886 102.54 160.835 102.869 160.801C103.203 160.763 103.445 160.701 103.597 160.614C103.752 160.527 103.83 160.375 103.83 160.159V160.114C103.83 159.553 103.676 159.117 103.369 158.807C103.066 158.496 102.606 158.341 101.989 158.341C101.348 158.341 100.847 158.481 100.483 158.761C100.119 159.042 99.8636 159.341 99.7159 159.659L98.4432 159.205C98.6705 158.674 98.9735 158.261 99.3523 157.966C99.7348 157.667 100.152 157.458 100.602 157.341C101.057 157.22 101.504 157.159 101.943 157.159C102.223 157.159 102.545 157.193 102.909 157.261C103.277 157.326 103.631 157.46 103.972 157.665C104.316 157.869 104.602 158.178 104.83 158.591C105.057 159.004 105.17 159.557 105.17 160.25V166H103.83V164.818H103.761C103.67 165.008 103.519 165.21 103.307 165.426C103.095 165.642 102.813 165.826 102.46 165.977C102.108 166.129 101.678 166.205 101.17 166.205ZM101.375 165C101.905 165 102.352 164.896 102.716 164.688C103.083 164.479 103.36 164.21 103.545 163.881C103.735 163.551 103.83 163.205 103.83 162.841V161.614C103.773 161.682 103.648 161.744 103.455 161.801C103.265 161.854 103.045 161.902 102.795 161.943C102.549 161.981 102.309 162.015 102.074 162.045C101.843 162.072 101.655 162.095 101.511 162.114C101.163 162.159 100.837 162.233 100.534 162.335C100.235 162.434 99.9924 162.583 99.8068 162.784C99.625 162.981 99.5341 163.25 99.5341 163.591C99.5341 164.057 99.7064 164.409 100.051 164.648C100.4 164.883 100.841 165 101.375 165ZM108.959 160.75V166H107.618V157.273H108.913V158.636H109.027C109.232 158.193 109.542 157.837 109.959 157.568C110.375 157.295 110.913 157.159 111.572 157.159C112.163 157.159 112.68 157.28 113.124 157.523C113.567 157.761 113.911 158.125 114.158 158.614C114.404 159.098 114.527 159.712 114.527 160.455V166H113.186V160.545C113.186 159.86 113.008 159.326 112.652 158.943C112.296 158.557 111.807 158.364 111.186 158.364C110.758 158.364 110.375 158.456 110.038 158.642C109.705 158.828 109.442 159.098 109.249 159.455C109.055 159.811 108.959 160.242 108.959 160.75ZM120.5 169.455C119.852 169.455 119.295 169.371 118.83 169.205C118.364 169.042 117.975 168.826 117.665 168.557C117.358 168.292 117.114 168.008 116.932 167.705L118 166.955C118.121 167.114 118.275 167.295 118.46 167.5C118.646 167.708 118.9 167.888 119.222 168.04C119.547 168.195 119.973 168.273 120.5 168.273C121.205 168.273 121.786 168.102 122.244 167.761C122.703 167.42 122.932 166.886 122.932 166.159V164.386H122.818C122.72 164.545 122.58 164.742 122.398 164.977C122.22 165.208 121.962 165.415 121.625 165.597C121.292 165.775 120.841 165.864 120.273 165.864C119.568 165.864 118.936 165.697 118.375 165.364C117.818 165.03 117.377 164.545 117.051 163.909C116.729 163.273 116.568 162.5 116.568 161.591C116.568 160.697 116.725 159.919 117.04 159.256C117.354 158.589 117.792 158.074 118.352 157.71C118.913 157.343 119.561 157.159 120.295 157.159C120.864 157.159 121.314 157.254 121.648 157.443C121.985 157.629 122.242 157.841 122.42 158.08C122.602 158.314 122.742 158.508 122.841 158.659H122.977V157.273H124.273V166.25C124.273 167 124.102 167.61 123.761 168.08C123.424 168.553 122.97 168.9 122.398 169.119C121.83 169.343 121.197 169.455 120.5 169.455ZM120.455 164.659C120.992 164.659 121.447 164.536 121.818 164.29C122.189 164.044 122.472 163.689 122.665 163.227C122.858 162.765 122.955 162.212 122.955 161.568C122.955 160.939 122.86 160.384 122.67 159.903C122.481 159.422 122.201 159.045 121.83 158.773C121.458 158.5 121 158.364 120.455 158.364C119.886 158.364 119.413 158.508 119.034 158.795C118.659 159.083 118.377 159.47 118.188 159.955C118.002 160.439 117.909 160.977 117.909 161.568C117.909 162.174 118.004 162.71 118.193 163.176C118.386 163.638 118.67 164.002 119.045 164.267C119.424 164.528 119.894 164.659 120.455 164.659ZM132.227 162.432V157.273H133.568V166H132.227V164.523H132.136C131.932 164.966 131.614 165.343 131.182 165.653C130.75 165.96 130.205 166.114 129.545 166.114C129 166.114 128.515 165.994 128.091 165.756C127.667 165.513 127.333 165.15 127.091 164.665C126.848 164.176 126.727 163.561 126.727 162.818V157.273H128.068V162.727C128.068 163.364 128.246 163.871 128.602 164.25C128.962 164.629 129.42 164.818 129.977 164.818C130.311 164.818 130.65 164.733 130.994 164.562C131.343 164.392 131.634 164.131 131.869 163.778C132.108 163.426 132.227 162.977 132.227 162.432ZM138.592 166.205C138.039 166.205 137.537 166.1 137.087 165.892C136.636 165.68 136.278 165.375 136.013 164.977C135.748 164.576 135.615 164.091 135.615 163.523C135.615 163.023 135.714 162.617 135.911 162.307C136.107 161.992 136.371 161.746 136.7 161.568C137.03 161.39 137.393 161.258 137.791 161.17C138.193 161.08 138.596 161.008 139.001 160.955C139.532 160.886 139.962 160.835 140.291 160.801C140.625 160.763 140.867 160.701 141.018 160.614C141.174 160.527 141.251 160.375 141.251 160.159V160.114C141.251 159.553 141.098 159.117 140.791 158.807C140.488 158.496 140.028 158.341 139.411 158.341C138.77 158.341 138.268 158.481 137.905 158.761C137.541 159.042 137.286 159.341 137.138 159.659L135.865 159.205C136.092 158.674 136.395 158.261 136.774 157.966C137.157 157.667 137.573 157.458 138.024 157.341C138.479 157.22 138.926 157.159 139.365 157.159C139.645 157.159 139.967 157.193 140.331 157.261C140.698 157.326 141.053 157.46 141.393 157.665C141.738 157.869 142.024 158.178 142.251 158.591C142.479 159.004 142.592 159.557 142.592 160.25V166H141.251V164.818H141.183C141.092 165.008 140.941 165.21 140.729 165.426C140.517 165.642 140.234 165.826 139.882 165.977C139.53 166.129 139.1 166.205 138.592 166.205ZM138.797 165C139.327 165 139.774 164.896 140.138 164.688C140.505 164.479 140.782 164.21 140.967 163.881C141.157 163.551 141.251 163.205 141.251 162.841V161.614C141.195 161.682 141.07 161.744 140.876 161.801C140.687 161.854 140.467 161.902 140.217 161.943C139.971 161.981 139.731 162.015 139.496 162.045C139.265 162.072 139.077 162.095 138.933 162.114C138.585 162.159 138.259 162.233 137.956 162.335C137.657 162.434 137.414 162.583 137.229 162.784C137.047 162.981 136.956 163.25 136.956 163.591C136.956 164.057 137.128 164.409 137.473 164.648C137.821 164.883 138.263 165 138.797 165ZM148.562 169.455C147.915 169.455 147.358 169.371 146.892 169.205C146.426 169.042 146.038 168.826 145.727 168.557C145.42 168.292 145.176 168.008 144.994 167.705L146.062 166.955C146.184 167.114 146.337 167.295 146.523 167.5C146.708 167.708 146.962 167.888 147.284 168.04C147.61 168.195 148.036 168.273 148.562 168.273C149.267 168.273 149.848 168.102 150.307 167.761C150.765 167.42 150.994 166.886 150.994 166.159V164.386H150.881C150.782 164.545 150.642 164.742 150.46 164.977C150.282 165.208 150.025 165.415 149.688 165.597C149.354 165.775 148.903 165.864 148.335 165.864C147.631 165.864 146.998 165.697 146.438 165.364C145.881 165.03 145.439 164.545 145.114 163.909C144.792 163.273 144.631 162.5 144.631 161.591C144.631 160.697 144.788 159.919 145.102 159.256C145.417 158.589 145.854 158.074 146.415 157.71C146.975 157.343 147.623 157.159 148.358 157.159C148.926 157.159 149.377 157.254 149.71 157.443C150.047 157.629 150.305 157.841 150.483 158.08C150.665 158.314 150.805 158.508 150.903 158.659H151.04V157.273H152.335V166.25C152.335 167 152.165 167.61 151.824 168.08C151.487 168.553 151.032 168.9 150.46 169.119C149.892 169.343 149.259 169.455 148.562 169.455ZM148.517 164.659C149.055 164.659 149.509 164.536 149.881 164.29C150.252 164.044 150.534 163.689 150.727 163.227C150.92 162.765 151.017 162.212 151.017 161.568C151.017 160.939 150.922 160.384 150.733 159.903C150.544 159.422 150.263 159.045 149.892 158.773C149.521 158.5 149.063 158.364 148.517 158.364C147.949 158.364 147.475 158.508 147.097 158.795C146.722 159.083 146.439 159.47 146.25 159.955C146.064 160.439 145.972 160.977 145.972 161.568C145.972 162.174 146.066 162.71 146.256 163.176C146.449 163.638 146.733 164.002 147.108 164.267C147.487 164.528 147.956 164.659 148.517 164.659ZM158.449 166.182C157.608 166.182 156.883 165.996 156.273 165.625C155.667 165.25 155.199 164.727 154.869 164.057C154.544 163.383 154.381 162.598 154.381 161.705C154.381 160.811 154.544 160.023 154.869 159.341C155.199 158.655 155.657 158.121 156.244 157.739C156.835 157.352 157.525 157.159 158.312 157.159C158.767 157.159 159.216 157.235 159.659 157.386C160.102 157.538 160.506 157.784 160.869 158.125C161.233 158.462 161.523 158.909 161.739 159.466C161.955 160.023 162.062 160.708 162.062 161.523V162.091H155.335V160.932H160.699C160.699 160.439 160.6 160 160.403 159.614C160.21 159.227 159.934 158.922 159.574 158.699C159.218 158.475 158.797 158.364 158.312 158.364C157.778 158.364 157.316 158.496 156.926 158.761C156.54 159.023 156.242 159.364 156.034 159.784C155.826 160.205 155.722 160.655 155.722 161.136V161.909C155.722 162.568 155.835 163.127 156.062 163.585C156.294 164.04 156.614 164.386 157.023 164.625C157.432 164.86 157.907 164.977 158.449 164.977C158.801 164.977 159.119 164.928 159.403 164.83C159.691 164.727 159.939 164.576 160.148 164.375C160.356 164.17 160.517 163.917 160.631 163.614L161.926 163.977C161.79 164.417 161.561 164.803 161.239 165.136C160.917 165.466 160.519 165.723 160.045 165.909C159.572 166.091 159.04 166.182 158.449 166.182ZM170.284 159.227L169.08 159.568C169.004 159.367 168.892 159.172 168.744 158.983C168.6 158.79 168.403 158.631 168.153 158.506C167.903 158.381 167.583 158.318 167.193 158.318C166.659 158.318 166.214 158.441 165.858 158.688C165.506 158.93 165.33 159.239 165.33 159.614C165.33 159.947 165.451 160.21 165.693 160.403C165.936 160.597 166.314 160.758 166.83 160.886L168.125 161.205C168.905 161.394 169.487 161.684 169.869 162.074C170.252 162.46 170.443 162.958 170.443 163.568C170.443 164.068 170.299 164.515 170.011 164.909C169.727 165.303 169.33 165.614 168.818 165.841C168.307 166.068 167.712 166.182 167.034 166.182C166.144 166.182 165.407 165.989 164.824 165.602C164.241 165.216 163.871 164.652 163.716 163.909L164.989 163.591C165.11 164.061 165.339 164.413 165.676 164.648C166.017 164.883 166.462 165 167.011 165C167.636 165 168.133 164.867 168.5 164.602C168.871 164.333 169.057 164.011 169.057 163.636C169.057 163.333 168.951 163.08 168.739 162.875C168.527 162.667 168.201 162.511 167.761 162.409L166.307 162.068C165.508 161.879 164.92 161.585 164.545 161.188C164.174 160.786 163.989 160.284 163.989 159.682C163.989 159.189 164.127 158.754 164.403 158.375C164.684 157.996 165.064 157.699 165.545 157.483C166.03 157.267 166.58 157.159 167.193 157.159C168.057 157.159 168.735 157.348 169.227 157.727C169.723 158.106 170.076 158.606 170.284 159.227ZM174.462 164.409L174.371 165.023C174.306 165.455 174.208 165.917 174.075 166.409C173.946 166.902 173.812 167.366 173.672 167.801C173.532 168.237 173.416 168.583 173.325 168.841H172.303C172.352 168.598 172.416 168.278 172.496 167.881C172.575 167.483 172.655 167.038 172.734 166.545C172.818 166.057 172.886 165.557 172.939 165.045L173.007 164.409H174.462Z" fill="#A0A1A9"/>
<g filter="url(#filter2_f_863_27)">
<ellipse cx="290.506" cy="261.352" rx="290.506" ry="261.352" transform="matrix(0.973022 -0.230714 0.289804 0.957086 -142.439 -196.579)" fill="url(#paint2_radial_863_27)" fill-opacity="0.1"/>
</g>
</g>
<rect x="0.5" y="68.5" width="453" height="141" rx="11.5" stroke="url(#paint3_linear_863_27)" stroke-opacity="0.1"/>
</g>
<g filter="url(#filter3_b_863_27)">
<rect x="733" y="15" width="454" height="322" rx="12" fill="#1B1A1C" fill-opacity="0.5"/>
<path d="M784.544 75H782.447L787.158 61.9091H789.44L794.151 75H792.055L788.354 64.2869H788.251L784.544 75ZM784.896 69.8736H791.697V71.5355H784.896V69.8736ZM796.042 75V61.9091H800.708C801.726 61.9091 802.57 62.0945 803.239 62.4652C803.908 62.8359 804.409 63.343 804.741 63.9865C805.074 64.6257 805.24 65.3459 805.24 66.147C805.24 66.9524 805.072 67.6768 804.735 68.3203C804.403 68.9595 803.9 69.4666 803.226 69.8416C802.557 70.2124 801.716 70.3977 800.702 70.3977H797.493V68.723H800.523C801.166 68.723 801.688 68.6122 802.089 68.3906C802.489 68.1648 802.783 67.858 802.971 67.4702C803.158 67.0824 803.252 66.6413 803.252 66.147C803.252 65.6527 803.158 65.2138 802.971 64.8303C802.783 64.4467 802.487 64.1463 802.082 63.929C801.682 63.7116 801.153 63.603 800.497 63.603H798.017V75H796.042ZM809.531 61.9091V75H807.555V61.9091H809.531ZM820.693 75.1918C819.9 75.1918 819.193 74.9893 818.57 74.5845C817.953 74.1754 817.467 73.5937 817.113 72.8395C816.764 72.081 816.589 71.1712 816.589 70.1101C816.589 69.049 816.766 68.1413 817.119 67.3871C817.477 66.6328 817.968 66.0554 818.59 65.6548C819.212 65.2543 819.917 65.054 820.705 65.054C821.315 65.054 821.805 65.1562 822.176 65.3608C822.551 65.5611 822.84 65.7955 823.045 66.0639C823.254 66.3324 823.416 66.5689 823.531 66.7734H823.646V61.9091H825.557V75H823.691V73.4723H823.531C823.416 73.6811 823.249 73.9197 823.032 74.1882C822.819 74.4567 822.525 74.6911 822.15 74.8913C821.775 75.0916 821.289 75.1918 820.693 75.1918ZM821.115 73.5618C821.664 73.5618 822.129 73.4169 822.508 73.1271C822.892 72.8331 823.181 72.4261 823.377 71.9062C823.578 71.3864 823.678 70.7812 823.678 70.0909C823.678 69.4091 823.58 68.8125 823.384 68.3011C823.188 67.7898 822.9 67.3913 822.521 67.1058C822.142 66.8203 821.673 66.6776 821.115 66.6776C820.539 66.6776 820.06 66.8267 819.676 67.125C819.293 67.4233 819.003 67.8303 818.807 68.3459C818.615 68.8615 818.519 69.4432 818.519 70.0909C818.519 70.7472 818.617 71.3374 818.813 71.8615C819.009 72.3857 819.299 72.8011 819.683 73.108C820.07 73.4105 820.548 73.5618 821.115 73.5618ZM832.42 75.1982C831.5 75.1982 830.697 74.9872 830.011 74.5653C829.325 74.1435 828.792 73.5533 828.413 72.7947C828.033 72.0362 827.844 71.1499 827.844 70.1357C827.844 69.1172 828.033 68.2266 828.413 67.4638C828.792 66.701 829.325 66.1087 830.011 65.6868C830.697 65.2649 831.5 65.054 832.42 65.054C833.341 65.054 834.144 65.2649 834.83 65.6868C835.516 66.1087 836.049 66.701 836.428 67.4638C836.808 68.2266 836.997 69.1172 836.997 70.1357C836.997 71.1499 836.808 72.0362 836.428 72.7947C836.049 73.5533 835.516 74.1435 834.83 74.5653C834.144 74.9872 833.341 75.1982 832.42 75.1982ZM832.427 73.5938C833.023 73.5938 833.518 73.4361 833.91 73.1207C834.302 72.8054 834.592 72.3857 834.779 71.8615C834.971 71.3374 835.067 70.7599 835.067 70.1293C835.067 69.5028 834.971 68.9276 834.779 68.4034C834.592 67.875 834.302 67.451 833.91 67.1314C833.518 66.8118 833.023 66.652 832.427 66.652C831.826 66.652 831.327 66.8118 830.931 67.1314C830.539 67.451 830.247 67.875 830.055 68.4034C829.868 68.9276 829.774 69.5028 829.774 70.1293C829.774 70.7599 829.868 71.3374 830.055 71.8615C830.247 72.3857 830.539 72.8054 830.931 73.1207C831.327 73.4361 831.826 73.5938 832.427 73.5938ZM843.266 75.1982C842.316 75.1982 841.498 74.983 840.812 74.5526C840.13 74.1179 839.606 73.5192 839.239 72.7564C838.873 71.9936 838.689 71.12 838.689 70.1357C838.689 69.1385 838.877 68.2585 839.252 67.4957C839.627 66.7287 840.155 66.13 840.837 65.6996C841.519 65.2692 842.322 65.054 843.247 65.054C843.993 65.054 844.657 65.1925 845.241 65.4695C845.825 65.7422 846.296 66.1257 846.654 66.62C847.016 67.1143 847.231 67.6918 847.3 68.3523H845.439C845.337 67.892 845.103 67.4957 844.736 67.1634C844.374 66.831 843.888 66.6648 843.279 66.6648C842.746 66.6648 842.28 66.8054 841.879 67.0866C841.483 67.3636 841.174 67.7599 840.952 68.2756C840.731 68.7869 840.62 69.392 840.62 70.0909C840.62 70.8068 840.729 71.4247 840.946 71.9446C841.163 72.4645 841.47 72.8672 841.866 73.1527C842.267 73.4382 842.738 73.581 843.279 73.581C843.641 73.581 843.969 73.5149 844.263 73.3828C844.562 73.2464 844.811 73.0526 845.011 72.8011C845.216 72.5497 845.358 72.2472 845.439 71.8935H847.3C847.231 72.5284 847.025 73.0952 846.68 73.5938C846.334 74.0923 845.872 74.4844 845.292 74.7699C844.717 75.0554 844.042 75.1982 843.266 75.1982ZM855.563 70.9283V65.1818H857.48V75H855.601V73.2997H855.499C855.273 73.8239 854.911 74.2607 854.412 74.6101C853.918 74.9553 853.302 75.1278 852.565 75.1278C851.934 75.1278 851.376 74.9893 850.89 74.7124C850.409 74.4311 850.029 74.0156 849.752 73.4659C849.48 72.9162 849.343 72.2365 849.343 71.4268V65.1818H851.255V71.1967C851.255 71.8658 851.44 72.3984 851.811 72.7947C852.181 73.1911 852.663 73.3892 853.255 73.3892C853.613 73.3892 853.969 73.2997 854.323 73.1207C854.681 72.9418 854.977 72.6712 855.211 72.3089C855.45 71.9467 855.567 71.4865 855.563 70.9283ZM860.048 75V65.1818H861.883V66.7798H862.004C862.209 66.2386 862.544 65.8168 863.008 65.5142C863.472 65.2074 864.029 65.054 864.676 65.054C865.333 65.054 865.882 65.2074 866.325 65.5142C866.773 65.821 867.103 66.2429 867.316 66.7798H867.419C867.653 66.2557 868.026 65.8381 868.537 65.527C869.048 65.2116 869.658 65.054 870.365 65.054C871.256 65.054 871.982 65.3331 872.545 65.8913C873.112 66.4496 873.395 67.2912 873.395 68.4162V75H871.484V68.5952C871.484 67.9304 871.303 67.4489 870.941 67.1506C870.578 66.8523 870.146 66.7031 869.643 66.7031C869.021 66.7031 868.537 66.8949 868.192 67.2784C867.847 67.6577 867.674 68.1456 867.674 68.7422V75H865.769V68.4737C865.769 67.9411 865.603 67.5128 865.271 67.1889C864.938 66.8651 864.506 66.7031 863.973 66.7031C863.611 66.7031 863.276 66.799 862.97 66.9908C862.667 67.1783 862.422 67.4403 862.235 67.777C862.051 68.1136 861.96 68.5036 861.96 68.9467V75H860.048ZM880.188 75.1982C879.221 75.1982 878.388 74.9915 877.689 74.5781C876.994 74.1605 876.457 73.5746 876.078 72.8203C875.703 72.0618 875.516 71.1733 875.516 70.1548C875.516 69.1491 875.703 68.2628 876.078 67.4957C876.457 66.7287 876.986 66.13 877.663 65.6996C878.345 65.2692 879.142 65.054 880.054 65.054C880.608 65.054 881.145 65.1456 881.665 65.3288C882.185 65.5121 882.651 65.7997 883.065 66.1918C883.478 66.5838 883.804 67.093 884.043 67.7195C884.281 68.3416 884.401 69.098 884.401 69.9886V70.6662H876.596V69.2344H882.528C882.528 68.7315 882.425 68.2862 882.221 67.8984C882.016 67.5064 881.729 67.1974 881.358 66.9716C880.991 66.7457 880.561 66.6328 880.067 66.6328C879.53 66.6328 879.061 66.7649 878.661 67.0291C878.264 67.2891 877.957 67.63 877.74 68.0518C877.527 68.4695 877.42 68.9233 877.42 69.4134V70.532C877.42 71.1882 877.536 71.7464 877.766 72.2067C878 72.6669 878.326 73.0185 878.744 73.2614C879.161 73.5 879.649 73.6193 880.207 73.6193C880.57 73.6193 880.9 73.5682 881.198 73.4659C881.496 73.3594 881.754 73.2017 881.972 72.9929C882.189 72.7841 882.355 72.5263 882.47 72.2195L884.279 72.5455C884.134 73.0781 883.874 73.5447 883.499 73.9453C883.129 74.3416 882.662 74.6506 882.099 74.8722C881.541 75.0895 880.904 75.1982 880.188 75.1982ZM888.432 69.1705V75H886.521V65.1818H888.356V66.7798H888.477C888.703 66.2599 889.057 65.8423 889.538 65.527C890.024 65.2116 890.635 65.054 891.373 65.054C892.042 65.054 892.628 65.1946 893.131 65.4759C893.633 65.7528 894.023 66.1662 894.3 66.7159C894.577 67.2656 894.716 67.9453 894.716 68.755V75H892.805V68.9851C892.805 68.2734 892.619 67.7173 892.248 67.3168C891.878 66.9119 891.368 66.7095 890.721 66.7095C890.278 66.7095 889.883 66.8054 889.538 66.9972C889.197 67.1889 888.927 67.4702 888.726 67.8409C888.53 68.2074 888.432 68.6506 888.432 69.1705ZM901.862 65.1818V66.7159H896.499V65.1818H901.862ZM897.937 62.8295H899.849V72.1172C899.849 72.4879 899.904 72.767 900.015 72.9545C900.126 73.1378 900.268 73.2635 900.443 73.3317C900.622 73.3956 900.816 73.4276 901.025 73.4276C901.178 73.4276 901.312 73.4169 901.427 73.3956C901.542 73.3743 901.632 73.3572 901.696 73.3445L902.041 74.9233C901.93 74.9659 901.773 75.0085 901.568 75.0511C901.363 75.098 901.108 75.1236 900.801 75.1278C900.298 75.1364 899.829 75.0469 899.395 74.8594C898.96 74.6719 898.608 74.3821 898.34 73.9901C898.072 73.598 897.937 73.1058 897.937 72.5135V62.8295ZM906.833 75.2173C906.211 75.2173 905.649 75.1023 905.146 74.8722C904.643 74.6378 904.245 74.299 903.951 73.8558C903.661 73.4126 903.516 72.8693 903.516 72.2259C903.516 71.6719 903.623 71.2159 903.836 70.858C904.049 70.5 904.336 70.2166 904.699 70.0078C905.061 69.799 905.466 69.6413 905.913 69.5348C906.36 69.4283 906.816 69.3473 907.281 69.2919C907.869 69.2237 908.346 69.1683 908.713 69.1257C909.079 69.0788 909.346 69.0043 909.512 68.902C909.678 68.7997 909.761 68.6335 909.761 68.4034V68.3587C909.761 67.8004 909.603 67.3679 909.288 67.0611C908.977 66.7543 908.512 66.6009 907.895 66.6009C907.251 66.6009 906.744 66.7436 906.373 67.0291C906.007 67.3104 905.753 67.6236 905.613 67.9688L903.816 67.5597C904.029 66.9631 904.341 66.4815 904.75 66.1151C905.163 65.7443 905.638 65.4759 906.175 65.3097C906.712 65.1392 907.277 65.054 907.869 65.054C908.261 65.054 908.676 65.1009 909.115 65.1946C909.559 65.2841 909.972 65.4503 910.355 65.6932C910.743 65.9361 911.061 66.2834 911.308 66.7351C911.555 67.1825 911.679 67.7642 911.679 68.4801V75H909.812V73.6577H909.735C909.612 73.9048 909.426 74.1477 909.179 74.3864C908.932 74.625 908.615 74.8232 908.227 74.9808C907.839 75.1385 907.375 75.2173 906.833 75.2173ZM907.249 73.6832C907.777 73.6832 908.229 73.5788 908.604 73.37C908.983 73.1612 909.271 72.8885 909.467 72.5518C909.667 72.2109 909.767 71.8466 909.767 71.4588V70.1932C909.699 70.2614 909.567 70.3253 909.371 70.3849C909.179 70.4403 908.96 70.4893 908.713 70.532C908.466 70.5703 908.225 70.6065 907.99 70.6406C907.756 70.6705 907.56 70.696 907.402 70.7173C907.032 70.7642 906.693 70.843 906.386 70.9538C906.083 71.0646 905.841 71.2244 905.657 71.4332C905.478 71.6378 905.389 71.9105 905.389 72.2514C905.389 72.7244 905.564 73.0824 905.913 73.3253C906.262 73.5639 906.708 73.6832 907.249 73.6832ZM918.807 65.1818V66.7159H913.444V65.1818H918.807ZM914.883 62.8295H916.794V72.1172C916.794 72.4879 916.849 72.767 916.96 72.9545C917.071 73.1378 917.214 73.2635 917.388 73.3317C917.567 73.3956 917.761 73.4276 917.97 73.4276C918.123 73.4276 918.258 73.4169 918.373 73.3956C918.488 73.3743 918.577 73.3572 918.641 73.3445L918.986 74.9233C918.876 74.9659 918.718 75.0085 918.513 75.0511C918.309 75.098 918.053 75.1236 917.746 75.1278C917.243 75.1364 916.775 75.0469 916.34 74.8594C915.905 74.6719 915.554 74.3821 915.285 73.9901C915.017 73.598 914.883 73.1058 914.883 72.5135V62.8295ZM920.922 75V65.1818H922.833V75H920.922ZM921.887 63.6669C921.554 63.6669 921.269 63.5561 921.03 63.3345C920.796 63.1087 920.679 62.8402 920.679 62.5291C920.679 62.2138 920.796 61.9453 921.03 61.7237C921.269 61.4979 921.554 61.3849 921.887 61.3849C922.219 61.3849 922.502 61.4979 922.737 61.7237C922.975 61.9453 923.095 62.2138 923.095 62.5291C923.095 62.8402 922.975 63.1087 922.737 63.3345C922.502 63.5561 922.219 63.6669 921.887 63.6669ZM929.54 75.1982C928.619 75.1982 927.816 74.9872 927.13 74.5653C926.444 74.1435 925.911 73.5533 925.532 72.7947C925.153 72.0362 924.963 71.1499 924.963 70.1357C924.963 69.1172 925.153 68.2266 925.532 67.4638C925.911 66.701 926.444 66.1087 927.13 65.6868C927.816 65.2649 928.619 65.054 929.54 65.054C930.46 65.054 931.263 65.2649 931.949 65.6868C932.635 66.1087 933.168 66.701 933.547 67.4638C933.927 68.2266 934.116 69.1172 934.116 70.1357C934.116 71.1499 933.927 72.0362 933.547 72.7947C933.168 73.5533 932.635 74.1435 931.949 74.5653C931.263 74.9872 930.46 75.1982 929.54 75.1982ZM929.546 73.5938C930.143 73.5938 930.637 73.4361 931.029 73.1207C931.421 72.8054 931.711 72.3857 931.898 71.8615C932.09 71.3374 932.186 70.7599 932.186 70.1293C932.186 69.5028 932.09 68.9276 931.898 68.4034C931.711 67.875 931.421 67.451 931.029 67.1314C930.637 66.8118 930.143 66.652 929.546 66.652C928.945 66.652 928.447 66.8118 928.05 67.1314C927.658 67.451 927.366 67.875 927.175 68.4034C926.987 68.9276 926.893 69.5028 926.893 70.1293C926.893 70.7599 926.987 71.3374 927.175 71.8615C927.366 72.3857 927.658 72.8054 928.05 73.1207C928.447 73.4361 928.945 73.5938 929.546 73.5938ZM938.161 69.1705V75H936.25V65.1818H938.084V66.7798H938.206C938.431 66.2599 938.785 65.8423 939.267 65.527C939.752 65.2116 940.364 65.054 941.101 65.054C941.77 65.054 942.356 65.1946 942.859 65.4759C943.362 65.7528 943.752 66.1662 944.029 66.7159C944.306 67.2656 944.444 67.9453 944.444 68.755V75H942.533V68.9851C942.533 68.2734 942.348 67.7173 941.977 67.3168C941.606 66.9119 941.097 66.7095 940.449 66.7095C940.006 66.7095 939.612 66.8054 939.267 66.9972C938.926 67.1889 938.655 67.4702 938.455 67.8409C938.259 68.2074 938.161 68.6506 938.161 69.1705Z" fill="white"/>
<rect x="782" y="98" width="127" height="12" rx="4" fill="white" fill-opacity="0.06"/>
<rect x="1061" y="98" width="100" height="12" rx="4" fill="white" fill-opacity="0.06"/>
<rect x="1061" y="122" width="100" height="12" rx="4" fill="white" fill-opacity="0.06"/>
<rect x="1061" y="146" width="100" height="12" rx="4" fill="white" fill-opacity="0.06"/>
<rect x="782" y="122" width="229" height="12" rx="4" fill="white" fill-opacity="0.06"/>
<rect x="780" y="181" width="129" height="12" rx="4" fill="white" fill-opacity="0.06"/>
<rect x="780" y="212" width="229" height="12" rx="4" fill="white" fill-opacity="0.06"/>
<rect x="780" y="267" width="229" height="12" rx="4" fill="white" fill-opacity="0.06"/>
<rect x="780" y="236" width="229" height="12" rx="4" fill="white" fill-opacity="0.06"/>
<rect x="780" y="291" width="229" height="12" rx="4" fill="white" fill-opacity="0.06"/>
<rect x="733.5" y="15.5" width="453" height="321" rx="11.5" stroke="url(#paint4_linear_863_27)" stroke-opacity="0.1"/>
</g>
<rect x="713.5" y="0.5" width="47" height="47" rx="3.5" fill="#100F10"/>
<g clip-path="url(#clip1_863_27)">
<path d="M736.375 17.7775C735.069 16.9411 733.551 16.4977 732 16.5C731.077 16.4991 730.162 16.6555 729.292 16.9625C729.17 17.0056 729.064 17.0854 728.99 17.1909C728.915 17.2964 728.875 17.4224 728.875 17.5517V29.4267C728.875 29.5267 728.899 29.6252 728.945 29.714C728.991 29.8027 729.058 29.8792 729.139 29.9369C729.221 29.9946 729.315 30.0319 729.414 30.0457C729.513 30.0594 729.614 30.0492 729.708 30.0158C730.444 29.7562 731.219 29.624 732 29.625C733.662 29.625 735.186 30.2142 736.375 31.1967V17.7775ZM737.625 31.1967C738.855 30.1785 740.403 29.6225 742 29.625C742.805 29.625 743.575 29.7633 744.292 30.0167C744.386 30.05 744.487 30.0602 744.586 30.0465C744.685 30.0327 744.779 29.9953 744.861 29.9375C744.943 29.8797 745.009 29.8031 745.055 29.7142C745.101 29.6253 745.125 29.5267 745.125 29.4267V17.5517C745.125 17.4224 745.085 17.2964 745.01 17.1909C744.936 17.0854 744.83 17.0056 744.708 16.9625C743.838 16.6555 742.923 16.4991 742 16.5C740.449 16.4977 738.931 16.9411 737.625 17.7775V31.1967Z" fill="white"/>
</g>
<rect x="713.5" y="0.5" width="47" height="47" rx="3.5" stroke="#1D1C1D"/>
<rect x="430.5" y="44.5" width="47" height="47" rx="3.5" fill="#100F10"/>
<path fill-rule="evenodd" clip-rule="evenodd" d="M446.5 63C446.5 62.337 446.763 61.7011 447.232 61.2322C447.701 60.7634 448.337 60.5 449 60.5H459C459.663 60.5 460.299 60.7634 460.768 61.2322C461.237 61.7011 461.5 62.337 461.5 63V73C461.5 73.663 461.237 74.2989 460.768 74.7678C460.299 75.2366 459.663 75.5 459 75.5H449C448.337 75.5 447.701 75.2366 447.232 74.7678C446.763 74.2989 446.5 73.663 446.5 73V63ZM458.375 68C458.375 68.1657 458.309 68.3246 458.192 68.4417L456.317 70.3167C456.259 70.3781 456.19 70.4273 456.114 70.4615C456.037 70.4956 455.954 70.514 455.87 70.5155C455.787 70.517 455.703 70.5015 455.625 70.4701C455.548 70.4387 455.477 70.3919 455.417 70.3325C455.358 70.2732 455.311 70.2025 455.28 70.1247C455.248 70.0468 455.233 69.9635 455.235 69.8796C455.236 69.7956 455.254 69.7129 455.289 69.6362C455.323 69.5596 455.372 69.4906 455.433 69.4333L456.867 68L455.433 66.5667C455.372 66.5094 455.323 66.4404 455.289 66.3638C455.254 66.2871 455.236 66.2044 455.235 66.1204C455.233 66.0365 455.248 65.9532 455.28 65.8753C455.311 65.7975 455.358 65.7268 455.417 65.6675C455.477 65.6081 455.548 65.5613 455.625 65.5299C455.703 65.4985 455.787 65.483 455.87 65.4845C455.954 65.486 456.037 65.5044 456.114 65.5385C456.19 65.5727 456.259 65.6219 456.317 65.6833L458.192 67.5583C458.309 67.675 458.375 67.8342 458.375 68ZM449.808 67.5583C449.691 67.6755 449.626 67.8344 449.626 68C449.626 68.1656 449.691 68.3245 449.808 68.4417L451.683 70.3167C451.741 70.3781 451.81 70.4273 451.886 70.4615C451.963 70.4956 452.046 70.514 452.13 70.5155C452.213 70.517 452.297 70.5015 452.375 70.4701C452.452 70.4387 452.523 70.3919 452.583 70.3325C452.642 70.2732 452.689 70.2025 452.72 70.1247C452.752 70.0468 452.767 69.9635 452.765 69.8796C452.764 69.7956 452.746 69.7129 452.711 69.6362C452.677 69.5596 452.628 69.4906 452.567 69.4333L451.133 68L452.567 66.5667C452.628 66.5094 452.677 66.4404 452.711 66.3638C452.746 66.2871 452.764 66.2044 452.765 66.1204C452.767 66.0365 452.752 65.9532 452.72 65.8753C452.689 65.7975 452.642 65.7268 452.583 65.6675C452.523 65.6081 452.452 65.5613 452.375 65.5299C452.297 65.4985 452.213 65.483 452.13 65.4845C452.046 65.486 451.963 65.5044 451.886 65.5385C451.81 65.5727 451.741 65.6219 451.683 65.6833L449.808 67.5583Z" fill="white"/>
<rect x="430.5" y="44.5" width="47" height="47" rx="3.5" stroke="#1D1C1D"/>
<path d="M572.078 183.493C572.025 183.022 571.806 182.658 571.422 182.399C571.037 182.137 570.553 182.006 569.97 182.006C569.552 182.006 569.191 182.073 568.886 182.205C568.581 182.335 568.344 182.513 568.175 182.742C568.01 182.968 567.927 183.224 567.927 183.513C567.927 183.755 567.983 183.964 568.096 184.139C568.212 184.315 568.362 184.462 568.548 184.582C568.737 184.698 568.939 184.795 569.155 184.875C569.37 184.951 569.577 185.014 569.776 185.064L570.77 185.322C571.095 185.402 571.428 185.51 571.77 185.646C572.111 185.781 572.428 185.96 572.719 186.183C573.011 186.405 573.246 186.68 573.425 187.008C573.608 187.336 573.699 187.729 573.699 188.186C573.699 188.763 573.55 189.275 573.251 189.722C572.956 190.17 572.527 190.523 571.964 190.781C571.403 191.04 570.726 191.169 569.93 191.169C569.168 191.169 568.508 191.048 567.952 190.806C567.395 190.564 566.959 190.221 566.644 189.777C566.329 189.33 566.155 188.799 566.122 188.186H567.663C567.693 188.554 567.812 188.861 568.021 189.106C568.233 189.348 568.503 189.528 568.831 189.648C569.163 189.764 569.526 189.822 569.92 189.822C570.354 189.822 570.741 189.754 571.079 189.618C571.42 189.479 571.688 189.286 571.884 189.041C572.08 188.793 572.177 188.503 572.177 188.171C572.177 187.87 572.091 187.623 571.919 187.43C571.75 187.238 571.519 187.079 571.228 186.953C570.939 186.827 570.613 186.716 570.248 186.62L569.045 186.292C568.23 186.07 567.584 185.743 567.106 185.312C566.632 184.882 566.395 184.312 566.395 183.602C566.395 183.016 566.554 182.504 566.873 182.066C567.191 181.629 567.622 181.289 568.165 181.047C568.709 180.802 569.322 180.679 570.005 180.679C570.694 180.679 571.302 180.8 571.829 181.042C572.36 181.284 572.777 181.617 573.082 182.041C573.387 182.462 573.546 182.946 573.559 183.493H572.078ZM575.452 182.141V180.818H583.332V182.141H580.155V191H578.624V182.141H575.452ZM592.041 180.818H593.582V187.515C593.582 188.228 593.415 188.859 593.08 189.409C592.745 189.956 592.275 190.387 591.668 190.702C591.062 191.013 590.351 191.169 589.535 191.169C588.723 191.169 588.014 191.013 587.408 190.702C586.801 190.387 586.33 189.956 585.996 189.409C585.661 188.859 585.494 188.228 585.494 187.515V180.818H587.03V187.391C587.03 187.851 587.131 188.261 587.333 188.619C587.539 188.977 587.829 189.258 588.203 189.464C588.578 189.666 589.022 189.767 589.535 189.767C590.053 189.767 590.498 189.666 590.873 189.464C591.251 189.258 591.539 188.977 591.738 188.619C591.94 188.261 592.041 187.851 592.041 187.391V180.818ZM599.532 191H596.236V180.818H599.636C600.634 180.818 601.491 181.022 602.207 181.43C602.923 181.834 603.471 182.416 603.852 183.175C604.237 183.93 604.429 184.837 604.429 185.894C604.429 186.955 604.235 187.866 603.847 188.629C603.463 189.391 602.906 189.978 602.177 190.388C601.448 190.796 600.566 191 599.532 191ZM597.772 189.658H599.447C600.223 189.658 600.868 189.512 601.381 189.22C601.895 188.925 602.28 188.499 602.535 187.942C602.79 187.382 602.918 186.7 602.918 185.894C602.918 185.095 602.79 184.418 602.535 183.861C602.283 183.304 601.907 182.881 601.406 182.593C600.906 182.305 600.284 182.161 599.542 182.161H597.772V189.658ZM608.296 180.818V191H606.759V180.818H608.296ZM619.797 185.909C619.797 186.996 619.598 187.931 619.201 188.713C618.803 189.492 618.258 190.092 617.565 190.513C616.876 190.93 616.092 191.139 615.213 191.139C614.332 191.139 613.545 190.93 612.852 190.513C612.163 190.092 611.619 189.49 611.221 188.708C610.824 187.926 610.625 186.993 610.625 185.909C610.625 184.822 610.824 183.889 611.221 183.11C611.619 182.328 612.163 181.728 612.852 181.31C613.545 180.889 614.332 180.679 615.213 180.679C616.092 180.679 616.876 180.889 617.565 181.31C618.258 181.728 618.803 182.328 619.201 183.11C619.598 183.889 619.797 184.822 619.797 185.909ZM618.276 185.909C618.276 185.08 618.142 184.383 617.873 183.816C617.608 183.246 617.244 182.815 616.779 182.523C616.319 182.228 615.797 182.081 615.213 182.081C614.627 182.081 614.103 182.228 613.642 182.523C613.182 182.815 612.817 183.246 612.549 183.816C612.284 184.383 612.151 185.08 612.151 185.909C612.151 186.738 612.284 187.437 612.549 188.007C612.817 188.574 613.182 189.005 613.642 189.3C614.103 189.591 614.627 189.737 615.213 189.737C615.797 189.737 616.319 189.591 616.779 189.3C617.244 189.005 617.608 188.574 617.873 188.007C618.142 187.437 618.276 186.738 618.276 185.909Z" fill="white" fill-opacity="0.6"/>
<defs>
<filter id="filter0_b_863_27" x="533" y="126" width="120" height="120" filterUnits="userSpaceOnUse" color-interpolation-filters="sRGB">
<feFlood flood-opacity="0" result="BackgroundImageFix"/>
<feGaussianBlur in="BackgroundImageFix" stdDeviation="6"/>
<feComposite in2="SourceAlpha" operator="in" result="effect1_backgroundBlur_863_27"/>
<feBlend mode="normal" in="SourceGraphic" in2="effect1_backgroundBlur_863_27" result="shape"/>
</filter>
<filter id="filter1_b_863_27" x="-49" y="19" width="552" height="240" filterUnits="userSpaceOnUse" color-interpolation-filters="sRGB">
<feFlood flood-opacity="0" result="BackgroundImageFix"/>
<feGaussianBlur in="BackgroundImageFix" stdDeviation="24.5"/>
<feComposite in2="SourceAlpha" operator="in" result="effect1_backgroundBlur_863_27"/>
<feBlend mode="normal" in="SourceGraphic" in2="effect1_backgroundBlur_863_27" result="shape"/>
</filter>
<filter id="filter2_f_863_27" x="-117.743" y="-313.491" width="667.425" height="600.048" filterUnits="userSpaceOnUse" color-interpolation-filters="sRGB">
<feFlood flood-opacity="0" result="BackgroundImageFix"/>
<feBlend mode="normal" in="SourceGraphic" in2="BackgroundImageFix" result="shape"/>
<feGaussianBlur stdDeviation="20.5" result="effect1_foregroundBlur_863_27"/>
</filter>
<filter id="filter3_b_863_27" x="684" y="-34" width="552" height="420" filterUnits="userSpaceOnUse" color-interpolation-filters="sRGB">
<feFlood flood-opacity="0" result="BackgroundImageFix"/>
<feGaussianBlur in="BackgroundImageFix" stdDeviation="24.5"/>
<feComposite in2="SourceAlpha" operator="in" result="effect1_backgroundBlur_863_27"/>
<feBlend mode="normal" in="SourceGraphic" in2="effect1_backgroundBlur_863_27" result="shape"/>
</filter>
<linearGradient id="paint0_linear_863_27" x1="650" y1="173" x2="734" y2="131.5" gradientUnits="userSpaceOnUse">
<stop stop-color="#3C3B81"/>
<stop offset="1" stop-color="#1F1E1F"/>
</linearGradient>
<linearGradient id="paint1_linear_863_27" x1="546.592" y1="181.533" x2="456.487" y2="130.421" gradientUnits="userSpaceOnUse">
<stop stop-color="#3C3B81"/>
<stop offset="1" stop-color="#1F1E1F"/>
</linearGradient>
<radialGradient id="paint2_radial_863_27" cx="0" cy="0" r="1" gradientUnits="userSpaceOnUse" gradientTransform="translate(290.506 261.352) rotate(90) scale(261.352 290.506)">
<stop stop-color="white"/>
<stop offset="1" stop-color="white" stop-opacity="0"/>
</radialGradient>
<linearGradient id="paint3_linear_863_27" x1="0" y1="210" x2="410.735" y2="-12.034" gradientUnits="userSpaceOnUse">
<stop stop-color="white" stop-opacity="0.75"/>
<stop offset="0.505208" stop-color="white" stop-opacity="0"/>
<stop offset="1" stop-color="white" stop-opacity="0.5"/>
</linearGradient>
<linearGradient id="paint4_linear_863_27" x1="733" y1="337" x2="1235.22" y2="217.275" gradientUnits="userSpaceOnUse">
<stop stop-color="white" stop-opacity="0.75"/>
<stop offset="0.505208" stop-color="white" stop-opacity="0"/>
<stop offset="1" stop-color="white" stop-opacity="0.5"/>
</linearGradient>
<clipPath id="clip0_863_27">
<rect y="68" width="454" height="142" rx="12" fill="white"/>
</clipPath>
<clipPath id="clip1_863_27">
<rect x="727" y="14" width="20" height="20" rx="4" fill="white"/>
</clipPath>
</defs>
</svg>
