<svg width="918" height="226" viewBox="0 0 918 226" fill="none" xmlns="http://www.w3.org/2000/svg">
<g filter="url(#filter0_b_890_417)">
<rect x="12" y="84" width="56" height="56" rx="6" fill="#1B1A1C" fill-opacity="0.25"/>
<path fill-rule="evenodd" clip-rule="evenodd" d="M31 106C31 105.204 31.3161 104.441 31.8787 103.879C32.4413 103.316 33.2044 103 34 103H46C46.7956 103 47.5587 103.316 48.1213 103.879C48.6839 104.441 49 105.204 49 106V118C49 118.796 48.6839 119.559 48.1213 120.121C47.5587 120.684 46.7956 121 46 121H34C33.2044 121 32.4413 120.684 31.8787 120.121C31.3161 119.559 31 118.796 31 118V106ZM45.25 112C45.2498 112.199 45.1707 112.389 45.03 112.53L42.78 114.78C42.7113 114.854 42.6285 114.913 42.5365 114.954C42.4445 114.995 42.3452 115.017 42.2445 115.019C42.1438 115.02 42.0438 115.002 41.9504 114.964C41.857 114.926 41.7722 114.87 41.701 114.799C41.6297 114.728 41.5736 114.643 41.5359 114.55C41.4982 114.456 41.4796 114.356 41.4814 114.255C41.4832 114.155 41.5052 114.055 41.5462 113.963C41.5872 113.871 41.6463 113.789 41.72 113.72L43.44 112L41.72 110.28C41.6463 110.211 41.5872 110.129 41.5462 110.037C41.5052 109.945 41.4832 109.845 41.4814 109.745C41.4796 109.644 41.4982 109.544 41.5359 109.45C41.5736 109.357 41.6297 109.272 41.701 109.201C41.7722 109.13 41.857 109.074 41.9504 109.036C42.0438 108.998 42.1438 108.98 42.2445 108.981C42.3452 108.983 42.4445 109.005 42.5365 109.046C42.6285 109.087 42.7113 109.146 42.78 109.22L45.03 111.47C45.171 111.61 45.25 111.801 45.25 112ZM34.97 111.47C34.8295 111.611 34.7507 111.801 34.7507 112C34.7507 112.199 34.8295 112.389 34.97 112.53L37.22 114.78C37.2887 114.854 37.3715 114.913 37.4635 114.954C37.5555 114.995 37.6548 115.017 37.7555 115.019C37.8562 115.02 37.9562 115.002 38.0496 114.964C38.143 114.926 38.2278 114.87 38.299 114.799C38.3703 114.728 38.4264 114.643 38.4641 114.55C38.5018 114.456 38.5204 114.356 38.5186 114.255C38.5168 114.155 38.4948 114.055 38.4538 113.963C38.4128 113.871 38.3537 113.789 38.28 113.72L36.56 112L38.28 110.28C38.3537 110.211 38.4128 110.129 38.4538 110.037C38.4948 109.945 38.5168 109.845 38.5186 109.745C38.5204 109.644 38.5018 109.544 38.4641 109.45C38.4264 109.357 38.3703 109.272 38.299 109.201C38.2278 109.13 38.143 109.074 38.0496 109.036C37.9562 108.998 37.8562 108.98 37.7555 108.981C37.6548 108.983 37.5555 109.005 37.4635 109.046C37.3715 109.087 37.2887 109.146 37.22 109.22L34.97 111.47Z" fill="white"/>
<rect x="12.5" y="84.5" width="55" height="55" rx="5.5" stroke="white" stroke-opacity="0.1"/>
</g>
<rect x="6.5" y="78.5" width="67" height="67" rx="9.5" stroke="white" stroke-opacity="0.05"/>
<rect x="0.5" y="72.5" width="79" height="79" rx="11.5" stroke="white" stroke-opacity="0.02"/>
<path d="M3.7704 165.818H5.51543L8.17523 170.447H8.28461L10.9444 165.818H12.6894L8.99554 172.003V176H7.46429V172.003L3.7704 165.818ZM16.6794 176.154C15.9635 176.154 15.3387 175.99 14.8051 175.662C14.2715 175.334 13.8572 174.875 13.5622 174.285C13.2672 173.695 13.1197 173.005 13.1197 172.217C13.1197 171.424 13.2672 170.732 13.5622 170.138C13.8572 169.545 14.2715 169.085 14.8051 168.756C15.3387 168.428 15.9635 168.264 16.6794 168.264C17.3953 168.264 18.0201 168.428 18.5537 168.756C19.0873 169.085 19.5016 169.545 19.7966 170.138C20.0916 170.732 20.239 171.424 20.239 172.217C20.239 173.005 20.0916 173.695 19.7966 174.285C19.5016 174.875 19.0873 175.334 18.5537 175.662C18.0201 175.99 17.3953 176.154 16.6794 176.154ZM16.6844 174.906C17.1484 174.906 17.5328 174.784 17.8378 174.538C18.1427 174.293 18.3681 173.967 18.5139 173.559C18.6631 173.151 18.7376 172.702 18.7376 172.212C18.7376 171.724 18.6631 171.277 18.5139 170.869C18.3681 170.458 18.1427 170.129 17.8378 169.88C17.5328 169.631 17.1484 169.507 16.6844 169.507C16.217 169.507 15.8292 169.631 15.521 169.88C15.2161 170.129 14.989 170.458 14.8399 170.869C14.6941 171.277 14.6211 171.724 14.6211 172.212C14.6211 172.702 14.6941 173.151 14.8399 173.559C14.989 173.967 15.2161 174.293 15.521 174.538C15.8292 174.784 16.217 174.906 16.6844 174.906ZM27.4357 172.833V168.364H28.9271V176H27.4655V174.678H27.386C27.2103 175.085 26.9286 175.425 26.5408 175.697C26.1563 175.965 25.6774 176.099 25.104 176.099C24.6135 176.099 24.1793 175.992 23.8014 175.776C23.4269 175.558 23.1319 175.234 22.9165 174.807C22.7044 174.379 22.5983 173.851 22.5983 173.221V168.364H24.0848V173.042C24.0848 173.562 24.229 173.977 24.5173 174.285C24.8057 174.593 25.1802 174.747 25.6409 174.747C25.9193 174.747 26.1961 174.678 26.4712 174.538C26.7496 174.399 26.9799 174.189 27.1622 173.907C27.3478 173.625 27.439 173.267 27.4357 172.833ZM31.6245 176V168.364H33.0613V169.577H33.1408C33.28 169.166 33.5253 168.843 33.8766 168.607C34.2313 168.369 34.6323 168.249 35.0797 168.249C35.1725 168.249 35.2819 168.253 35.4079 168.259C35.5371 168.266 35.6382 168.274 35.7111 168.284V169.706C35.6515 169.689 35.5454 169.671 35.393 169.651C35.2405 169.628 35.088 169.616 34.9356 169.616C34.5842 169.616 34.271 169.691 33.9959 169.84C33.7242 169.986 33.5087 170.19 33.3496 170.452C33.1905 170.71 33.111 171.005 33.111 171.337V176H31.6245ZM45.3192 176.154C44.5801 176.154 43.9438 175.987 43.4101 175.652C42.8798 175.314 42.4722 174.848 42.1871 174.255C41.9021 173.662 41.7596 172.982 41.7596 172.217C41.7596 171.441 41.9054 170.757 42.1971 170.163C42.4887 169.567 42.8997 169.101 43.43 168.766C43.9603 168.432 44.5851 168.264 45.3043 168.264C45.8843 168.264 46.4014 168.372 46.8555 168.587C47.3095 168.799 47.6758 169.098 47.9542 169.482C48.2359 169.867 48.4033 170.316 48.4563 170.83H47.0096C46.93 170.472 46.7477 170.163 46.4627 169.905C46.181 169.646 45.8031 169.517 45.3292 169.517C44.9149 169.517 44.5519 169.626 44.2404 169.845C43.9322 170.061 43.6919 170.369 43.5195 170.77C43.3472 171.168 43.261 171.638 43.261 172.182C43.261 172.739 43.3455 173.219 43.5145 173.624C43.6836 174.028 43.9222 174.341 44.2305 174.563C44.542 174.785 44.9082 174.896 45.3292 174.896C45.6109 174.896 45.8661 174.845 46.0948 174.742C46.3268 174.636 46.5207 174.485 46.6765 174.29C46.8356 174.094 46.9466 173.859 47.0096 173.584H48.4563C48.4033 174.078 48.2425 174.518 47.9741 174.906C47.7056 175.294 47.346 175.599 46.8952 175.821C46.4478 176.043 45.9225 176.154 45.3192 176.154ZM53.9626 176.154C53.2467 176.154 52.6219 175.99 52.0883 175.662C51.5547 175.334 51.1404 174.875 50.8454 174.285C50.5504 173.695 50.4029 173.005 50.4029 172.217C50.4029 171.424 50.5504 170.732 50.8454 170.138C51.1404 169.545 51.5547 169.085 52.0883 168.756C52.6219 168.428 53.2467 168.264 53.9626 168.264C54.6785 168.264 55.3033 168.428 55.8369 168.756C56.3705 169.085 56.7848 169.545 57.0798 170.138C57.3748 170.732 57.5222 171.424 57.5222 172.217C57.5222 173.005 57.3748 173.695 57.0798 174.285C56.7848 174.875 56.3705 175.334 55.8369 175.662C55.3033 175.99 54.6785 176.154 53.9626 176.154ZM53.9676 174.906C54.4316 174.906 54.816 174.784 55.121 174.538C55.4259 174.293 55.6513 173.967 55.7971 173.559C55.9463 173.151 56.0208 172.702 56.0208 172.212C56.0208 171.724 55.9463 171.277 55.7971 170.869C55.6513 170.458 55.4259 170.129 55.121 169.88C54.816 169.631 54.4316 169.507 53.9676 169.507C53.5002 169.507 53.1124 169.631 52.8042 169.88C52.4993 170.129 52.2722 170.458 52.1231 170.869C51.9773 171.277 51.9044 171.724 51.9044 172.212C51.9044 172.702 51.9773 173.151 52.1231 173.559C52.2722 173.967 52.4993 174.293 52.8042 174.538C53.1124 174.784 53.5002 174.906 53.9676 174.906ZM62.7402 176.149C62.1237 176.149 61.5735 175.992 61.0896 175.677C60.609 175.359 60.2312 174.906 59.9561 174.32C59.6843 173.73 59.5484 173.022 59.5484 172.197C59.5484 171.371 59.686 170.665 59.9611 170.079C60.2395 169.492 60.6206 169.043 61.1045 168.732C61.5884 168.42 62.137 168.264 62.7501 168.264C63.2241 168.264 63.6052 168.344 63.8936 168.503C64.1853 168.659 64.4106 168.841 64.5697 169.05C64.7321 169.259 64.8581 169.442 64.9476 169.602H65.0371V165.818H66.5236V176H65.0719V174.812H64.9476C64.8581 174.974 64.7288 175.16 64.5598 175.369C64.3941 175.577 64.1654 175.76 63.8737 175.915C63.582 176.071 63.2042 176.149 62.7402 176.149ZM63.0683 174.881C63.4959 174.881 63.8571 174.769 64.1521 174.543C64.4504 174.315 64.6758 173.998 64.8283 173.594C64.984 173.189 65.0619 172.719 65.0619 172.182C65.0619 171.652 64.9857 171.187 64.8332 170.79C64.6808 170.392 64.457 170.082 64.1621 169.86C63.8671 169.638 63.5025 169.527 63.0683 169.527C62.6209 169.527 62.248 169.643 61.9497 169.875C61.6514 170.107 61.426 170.424 61.2736 170.825C61.1244 171.226 61.0498 171.678 61.0498 172.182C61.0498 172.692 61.1261 173.151 61.2785 173.559C61.431 173.967 61.6564 174.29 61.9547 174.528C62.2563 174.764 62.6275 174.881 63.0683 174.881ZM72.6364 176.154C71.884 176.154 71.2361 175.993 70.6925 175.672C70.1522 175.347 69.7346 174.891 69.4397 174.305C69.148 173.715 69.0022 173.024 69.0022 172.232C69.0022 171.449 69.148 170.76 69.4397 170.163C69.7346 169.567 70.1456 169.101 70.6726 168.766C71.2029 168.432 71.8227 168.264 72.532 168.264C72.9629 168.264 73.3805 168.335 73.7848 168.478C74.1892 168.621 74.5521 168.844 74.8736 169.149C75.1951 169.454 75.4486 169.85 75.6343 170.337C75.8199 170.821 75.9127 171.41 75.9127 172.102V172.629H69.8424V171.516H74.456C74.456 171.125 74.3764 170.778 74.2174 170.477C74.0583 170.172 73.8345 169.931 73.5462 169.756C73.2611 169.58 72.9264 169.492 72.5419 169.492C72.1243 169.492 71.7597 169.595 71.4482 169.8C71.1399 170.003 70.9013 170.268 70.7323 170.596C70.5665 170.921 70.4837 171.274 70.4837 171.655V172.525C70.4837 173.035 70.5732 173.469 70.7522 173.827C70.9344 174.185 71.188 174.459 71.5128 174.648C71.8376 174.833 72.2171 174.926 72.6513 174.926C72.933 174.926 73.1899 174.886 73.4219 174.807C73.6539 174.724 73.8544 174.601 74.0235 174.439C74.1925 174.277 74.3218 174.076 74.4112 173.837L75.8182 174.091C75.7055 174.505 75.5033 174.868 75.2117 175.18C74.9233 175.488 74.5604 175.728 74.1229 175.901C73.6887 176.07 73.1932 176.154 72.6364 176.154Z" fill="white" fill-opacity="0.75"/>
<line x1="313" y1="112.5" x2="68" y2="112.5" stroke="url(#paint0_linear_890_417)"/>
<g clip-path="url(#clip0_890_417)">
<rect x="690" width="64" height="64" rx="12" fill="#252326" fill-opacity="0.25"/>
<g filter="url(#filter1_f_890_417)">
<circle cx="704" cy="52" r="14" fill="url(#paint1_radial_890_417)"/>
</g>
<path d="M722 26.042C720.352 24.5634 718.214 23.747 716 23.75C714.948 23.75 713.938 23.93 713 24.262V38.512C713.964 38.172 714.978 37.9989 716 38C718.305 38 720.408 38.867 722 40.292M722 26.042C723.648 24.5633 725.786 23.7469 728 23.75C729.052 23.75 730.062 23.93 731 24.262V38.512C730.036 38.172 729.022 37.9989 728 38C725.786 37.997 723.648 38.8134 722 40.292M722 26.042V40.292" stroke="url(#paint2_linear_890_417)" stroke-width="1.5" stroke-linecap="round" stroke-linejoin="round"/>
</g>
<rect x="690.5" y="0.5" width="63" height="63" rx="11.5" stroke="#27282C"/>
<path d="M779.979 37.5H778.348L782.012 27.3182H783.787L787.451 37.5H785.82L782.942 29.1676H782.862L779.979 37.5ZM780.252 33.5128H785.542V34.8054H780.252V33.5128ZM789.621 37.5V27.3182H793.251C794.043 27.3182 794.699 27.4624 795.219 27.7507C795.74 28.0391 796.129 28.4335 796.388 28.9339C796.646 29.4311 796.775 29.9912 796.775 30.6143C796.775 31.2408 796.645 31.8042 796.383 32.3047C796.124 32.8018 795.733 33.1963 795.209 33.4879C794.689 33.7763 794.034 33.9205 793.246 33.9205H790.75V32.6179H793.106C793.607 32.6179 794.013 32.5317 794.324 32.3594C794.636 32.1837 794.865 31.9451 795.011 31.6435C795.156 31.3419 795.229 30.9988 795.229 30.6143C795.229 30.2299 795.156 29.8885 795.011 29.5902C794.865 29.2919 794.634 29.0582 794.319 28.8892C794.008 28.7202 793.597 28.6357 793.087 28.6357H791.158V37.5H789.621ZM800.813 27.3182V37.5H799.276V27.3182H800.813ZM811.451 37.5H808.155V27.3182H811.556C812.553 27.3182 813.41 27.522 814.126 27.9297C814.842 28.334 815.39 28.9157 815.771 29.6747C816.156 30.4304 816.348 31.3369 816.348 32.3942C816.348 33.4548 816.154 34.3662 815.766 35.1286C815.382 35.8909 814.825 36.4775 814.096 36.8885C813.367 37.2962 812.485 37.5 811.451 37.5ZM809.691 36.1577H811.367C812.142 36.1577 812.787 36.0118 813.301 35.7202C813.814 35.4252 814.199 34.9993 814.454 34.4425C814.709 33.8823 814.837 33.1996 814.837 32.3942C814.837 31.5954 814.709 30.9176 814.454 30.3608C814.202 29.804 813.826 29.3814 813.325 29.093C812.825 28.8047 812.203 28.6605 811.461 28.6605H809.691V36.1577ZM822.056 37.6541C821.34 37.6541 820.715 37.4901 820.181 37.1619C819.648 36.8338 819.234 36.3748 818.939 35.7848C818.644 35.1948 818.496 34.5054 818.496 33.7166C818.496 32.9245 818.644 32.2318 818.939 31.6385C819.234 31.0452 819.648 30.5845 820.181 30.2564C820.715 29.9283 821.34 29.7642 822.056 29.7642C822.772 29.7642 823.396 29.9283 823.93 30.2564C824.464 30.5845 824.878 31.0452 825.173 31.6385C825.468 32.2318 825.615 32.9245 825.615 33.7166C825.615 34.5054 825.468 35.1948 825.173 35.7848C824.878 36.3748 824.464 36.8338 823.93 37.1619C823.396 37.4901 822.772 37.6541 822.056 37.6541ZM822.061 36.4062C822.525 36.4062 822.909 36.2836 823.214 36.0384C823.519 35.7931 823.744 35.4666 823.89 35.0589C824.039 34.6513 824.114 34.2022 824.114 33.7116C824.114 33.2244 824.039 32.777 823.89 32.3693C823.744 31.9583 823.519 31.6286 823.214 31.38C822.909 31.1314 822.525 31.0071 822.061 31.0071C821.593 31.0071 821.206 31.1314 820.897 31.38C820.592 31.6286 820.365 31.9583 820.216 32.3693C820.07 32.777 819.998 33.2244 819.998 33.7116C819.998 34.2022 820.07 34.6513 820.216 35.0589C820.365 35.4666 820.592 35.7931 820.897 36.0384C821.206 36.2836 821.593 36.4062 822.061 36.4062ZM831.191 37.6541C830.452 37.6541 829.816 37.4867 829.282 37.152C828.752 36.8139 828.344 36.3482 828.059 35.755C827.774 35.1617 827.632 34.4822 827.632 33.7166C827.632 32.9411 827.777 32.2566 828.069 31.6634C828.361 31.0668 828.772 30.6011 829.302 30.2663C829.832 29.9316 830.457 29.7642 831.176 29.7642C831.756 29.7642 832.273 29.8719 832.728 30.0874C833.182 30.2995 833.548 30.5978 833.826 30.9822C834.108 31.3667 834.275 31.8158 834.328 32.3295H832.882C832.802 31.9716 832.62 31.6634 832.335 31.4048C832.053 31.1463 831.675 31.017 831.201 31.017C830.787 31.017 830.424 31.1264 830.112 31.3452C829.804 31.5606 829.564 31.8688 829.392 32.2699C829.219 32.6676 829.133 33.1383 829.133 33.6818C829.133 34.2386 829.218 34.7192 829.387 35.1236C829.556 35.5279 829.794 35.8411 830.103 36.0632C830.414 36.2853 830.78 36.3963 831.201 36.3963C831.483 36.3963 831.738 36.3449 831.967 36.2422C832.199 36.1361 832.393 35.9853 832.549 35.7898C832.708 35.5942 832.819 35.3589 832.882 35.0838H834.328C834.275 35.5777 834.115 36.0185 833.846 36.4062C833.578 36.794 833.218 37.099 832.767 37.321C832.32 37.5431 831.795 37.6541 831.191 37.6541ZM841.455 34.3331V29.8636H842.947V37.5H841.485V36.1776H841.406C841.23 36.5852 840.948 36.925 840.561 37.1967C840.176 37.4652 839.697 37.5994 839.124 37.5994C838.633 37.5994 838.199 37.4917 837.821 37.2763C837.447 37.0575 837.152 36.7344 836.936 36.3068C836.724 35.8793 836.618 35.3506 836.618 34.7209V29.8636H838.105V34.5419C838.105 35.0623 838.249 35.4766 838.537 35.7848C838.825 36.093 839.2 36.2472 839.661 36.2472C839.939 36.2472 840.216 36.1776 840.491 36.0384C840.769 35.8991 841 35.6887 841.182 35.407C841.368 35.1252 841.459 34.7673 841.455 34.3331ZM845.644 37.5V29.8636H847.071V31.1065H847.166C847.325 30.6856 847.585 30.3575 847.946 30.1222C848.307 29.8835 848.74 29.7642 849.244 29.7642C849.754 29.7642 850.182 29.8835 850.526 30.1222C850.874 30.3608 851.131 30.6889 851.297 31.1065H851.376C851.559 30.6989 851.849 30.3741 852.246 30.1321C852.644 29.8868 853.118 29.7642 853.668 29.7642C854.361 29.7642 854.926 29.9813 855.364 30.4155C855.804 30.8497 856.025 31.5043 856.025 32.3793V37.5H854.538V32.5185C854.538 32.0014 854.398 31.6269 854.116 31.3949C853.834 31.1629 853.498 31.0469 853.107 31.0469C852.623 31.0469 852.246 31.196 851.978 31.4943C851.71 31.7893 851.575 32.1688 851.575 32.6328V37.5H850.094V32.424C850.094 32.0097 849.965 31.6766 849.706 31.4247C849.447 31.1728 849.111 31.0469 848.697 31.0469C848.415 31.0469 848.155 31.1214 847.916 31.2706C847.681 31.4164 847.49 31.6203 847.344 31.8821C847.202 32.1439 847.131 32.4472 847.131 32.7919V37.5H845.644ZM862.008 37.6541C861.256 37.6541 860.608 37.4934 860.065 37.1719C859.524 36.8471 859.107 36.3913 858.812 35.8047C858.52 35.2147 858.374 34.5237 858.374 33.7315C858.374 32.9493 858.52 32.2599 858.812 31.6634C859.107 31.0668 859.518 30.6011 860.045 30.2663C860.575 29.9316 861.195 29.7642 861.904 29.7642C862.335 29.7642 862.753 29.8355 863.157 29.978C863.561 30.1205 863.924 30.3442 864.246 30.6491C864.567 30.9541 864.821 31.3501 865.006 31.8374C865.192 32.3213 865.285 32.9096 865.285 33.6023V34.1293H859.214V33.0156H863.828C863.828 32.6245 863.749 32.2782 863.589 31.9766C863.43 31.6716 863.207 31.4313 862.918 31.2557C862.633 31.08 862.298 30.9922 861.914 30.9922C861.496 30.9922 861.132 31.0949 860.82 31.3004C860.512 31.5026 860.273 31.7678 860.104 32.0959C859.939 32.4207 859.856 32.7737 859.856 33.1548V34.0249C859.856 34.5353 859.945 34.9695 860.124 35.3274C860.307 35.6854 860.56 35.9588 860.885 36.1477C861.21 36.3333 861.589 36.4261 862.023 36.4261C862.305 36.4261 862.562 36.3864 862.794 36.3068C863.026 36.224 863.226 36.1013 863.396 35.9389C863.565 35.7765 863.694 35.576 863.783 35.3374L865.19 35.5909C865.078 36.0052 864.875 36.3681 864.584 36.6797C864.295 36.9879 863.932 37.2282 863.495 37.4006C863.061 37.5696 862.565 37.6541 862.008 37.6541ZM869.121 32.9659V37.5H867.634V29.8636H869.061V31.1065H869.155C869.331 30.7022 869.606 30.3774 869.981 30.1321C870.358 29.8868 870.834 29.7642 871.407 29.7642C871.928 29.7642 872.384 29.8736 872.775 30.0923C873.166 30.3078 873.469 30.6293 873.684 31.0568C873.9 31.4844 874.008 32.013 874.008 32.6428V37.5H872.521V32.8217C872.521 32.2682 872.377 31.8357 872.089 31.5241C871.8 31.2093 871.404 31.0518 870.9 31.0518C870.556 31.0518 870.249 31.1264 869.981 31.2756C869.715 31.4247 869.505 31.6435 869.349 31.9318C869.197 32.2169 869.121 32.5616 869.121 32.9659ZM880.266 29.8636V31.0568H876.095V29.8636H880.266ZM877.213 28.0341H878.7V35.2578C878.7 35.5462 878.743 35.7633 878.829 35.9091C878.915 36.0516 879.026 36.1494 879.162 36.2024C879.301 36.2521 879.452 36.277 879.615 36.277C879.734 36.277 879.838 36.2687 879.928 36.2521C880.017 36.2356 880.087 36.2223 880.137 36.2124L880.405 37.4403C880.319 37.4735 880.196 37.5066 880.037 37.5398C879.878 37.5762 879.679 37.5961 879.441 37.5994C879.049 37.6061 878.685 37.5365 878.347 37.3906C878.009 37.2448 877.735 37.0194 877.527 36.7145C877.318 36.4096 877.213 36.0268 877.213 35.5661V28.0341ZM884.833 37.669C884.349 37.669 883.911 37.5795 883.52 37.4006C883.129 37.2183 882.819 36.9548 882.59 36.6101C882.365 36.2654 882.252 35.8428 882.252 35.3423C882.252 34.9115 882.335 34.5568 882.501 34.2784C882.667 34 882.89 33.7796 883.172 33.6172C883.454 33.4548 883.769 33.3321 884.117 33.2493C884.465 33.1664 884.819 33.1035 885.181 33.0604C885.638 33.0073 886.009 32.9643 886.294 32.9311C886.579 32.8946 886.786 32.8366 886.916 32.7571C887.045 32.6776 887.11 32.5483 887.11 32.3693V32.3345C887.11 31.9003 886.987 31.5639 886.742 31.3253C886.5 31.0866 886.138 30.9673 885.658 30.9673C885.157 30.9673 884.763 31.0784 884.475 31.3004C884.19 31.5192 883.992 31.7628 883.883 32.0312L882.486 31.7131C882.652 31.2491 882.894 30.8745 883.212 30.5895C883.533 30.3011 883.903 30.0923 884.32 29.9631C884.738 29.8305 885.177 29.7642 885.638 29.7642C885.943 29.7642 886.266 29.8007 886.607 29.8736C886.952 29.9432 887.274 30.0724 887.572 30.2614C887.873 30.4503 888.12 30.7204 888.313 31.0717C888.505 31.4197 888.601 31.8722 888.601 32.429V37.5H887.149V36.456H887.09C886.994 36.6482 886.849 36.8371 886.657 37.0227C886.465 37.2083 886.218 37.3625 885.916 37.4851C885.615 37.6077 885.253 37.669 884.833 37.669ZM885.156 36.4759C885.567 36.4759 885.918 36.3946 886.21 36.2322C886.505 36.0698 886.728 35.8577 886.881 35.5959C887.037 35.3307 887.114 35.0473 887.114 34.7457V33.7614C887.061 33.8144 886.959 33.8641 886.806 33.9105C886.657 33.9536 886.486 33.9917 886.294 34.0249C886.102 34.0547 885.915 34.0829 885.732 34.1094C885.55 34.1326 885.398 34.1525 885.275 34.169C884.987 34.2055 884.723 34.2668 884.485 34.353C884.249 34.4392 884.06 34.5634 883.918 34.7259C883.779 34.8849 883.709 35.0971 883.709 35.3622C883.709 35.7301 883.845 36.0085 884.117 36.1974C884.388 36.383 884.735 36.4759 885.156 36.4759ZM894.846 29.8636V31.0568H890.674V29.8636H894.846ZM891.793 28.0341H893.28V35.2578C893.28 35.5462 893.323 35.7633 893.409 35.9091C893.495 36.0516 893.606 36.1494 893.742 36.2024C893.881 36.2521 894.032 36.277 894.194 36.277C894.314 36.277 894.418 36.2687 894.507 36.2521C894.597 36.2356 894.667 36.2223 894.716 36.2124L894.985 37.4403C894.899 37.4735 894.776 37.5066 894.617 37.5398C894.458 37.5762 894.259 37.5961 894.02 37.5994C893.629 37.6061 893.265 37.5365 892.927 37.3906C892.588 37.2448 892.315 37.0194 892.106 36.7145C891.897 36.4096 891.793 36.0268 891.793 35.5661V28.0341ZM897.19 37.5V29.8636H898.676V37.5H897.19ZM897.941 28.6854C897.682 28.6854 897.46 28.5992 897.274 28.4268C897.092 28.2512 897.001 28.0424 897.001 27.8004C897.001 27.5552 897.092 27.3464 897.274 27.174C897.46 26.9983 897.682 26.9105 897.941 26.9105C898.199 26.9105 898.42 26.9983 898.602 27.174C898.787 27.3464 898.88 27.5552 898.88 27.8004C898.88 28.0424 898.787 28.2512 898.602 28.4268C898.42 28.5992 898.199 28.6854 897.941 28.6854ZM904.593 37.6541C903.877 37.6541 903.252 37.4901 902.719 37.1619C902.185 36.8338 901.771 36.3748 901.476 35.7848C901.181 35.1948 901.033 34.5054 901.033 33.7166C901.033 32.9245 901.181 32.2318 901.476 31.6385C901.771 31.0452 902.185 30.5845 902.719 30.2564C903.252 29.9283 903.877 29.7642 904.593 29.7642C905.309 29.7642 905.934 29.9283 906.467 30.2564C907.001 30.5845 907.415 31.0452 907.71 31.6385C908.005 32.2318 908.153 32.9245 908.153 33.7166C908.153 34.5054 908.005 35.1948 907.71 35.7848C907.415 36.3748 907.001 36.8338 906.467 37.1619C905.934 37.4901 905.309 37.6541 904.593 37.6541ZM904.598 36.4062C905.062 36.4062 905.446 36.2836 905.751 36.0384C906.056 35.7931 906.282 35.4666 906.427 35.0589C906.577 34.6513 906.651 34.2022 906.651 33.7116C906.651 33.2244 906.577 32.777 906.427 32.3693C906.282 31.9583 906.056 31.6286 905.751 31.38C905.446 31.1314 905.062 31.0071 904.598 31.0071C904.131 31.0071 903.743 31.1314 903.434 31.38C903.13 31.6286 902.903 31.9583 902.753 32.3693C902.608 32.777 902.535 33.2244 902.535 33.7116C902.535 34.2022 902.608 34.6513 902.753 35.0589C902.903 35.4666 903.13 35.7931 903.434 36.0384C903.743 36.2836 904.131 36.4062 904.598 36.4062ZM911.998 32.9659V37.5H910.512V29.8636H911.939V31.1065H912.033C912.209 30.7022 912.484 30.3774 912.858 30.1321C913.236 29.8868 913.712 29.7642 914.285 29.7642C914.806 29.7642 915.261 29.8736 915.652 30.0923C916.044 30.3078 916.347 30.6293 916.562 31.0568C916.778 31.4844 916.885 32.013 916.885 32.6428V37.5H915.399V32.8217C915.399 32.2682 915.255 31.8357 914.966 31.5241C914.678 31.2093 914.282 31.0518 913.778 31.0518C913.433 31.0518 913.127 31.1264 912.858 31.2756C912.593 31.4247 912.383 31.6435 912.227 31.9318C912.075 32.2169 911.998 32.5616 911.998 32.9659Z" fill="white" fill-opacity="0.75"/>
<g clip-path="url(#clip1_890_417)">
<rect x="690" y="162" width="64" height="64" rx="12" fill="#252326" fill-opacity="0.25"/>
<g filter="url(#filter2_f_890_417)">
<circle cx="704" cy="214" r="14" fill="url(#paint3_radial_890_417)"/>
</g>
<path d="M716.75 189.5L719.75 191.75L716.75 194M721.25 194H724.25M715.25 202.25H728.75C729.347 202.25 729.919 202.013 730.341 201.591C730.763 201.169 731 200.597 731 200V188C731 187.403 730.763 186.831 730.341 186.409C729.919 185.987 729.347 185.75 728.75 185.75H715.25C714.653 185.75 714.081 185.987 713.659 186.409C713.237 186.831 713 187.403 713 188V200C713 200.597 713.237 201.169 713.659 201.591C714.081 202.013 714.653 202.25 715.25 202.25Z" stroke="url(#paint4_linear_890_417)" stroke-width="1.5" stroke-linecap="round" stroke-linejoin="round"/>
</g>
<rect x="690.5" y="162.5" width="63" height="63" rx="11.5" stroke="#27282C"/>
<path d="M781.055 199.5H779.425L783.089 189.318H784.864L788.528 199.5H786.897L784.019 191.168H783.939L781.055 199.5ZM781.329 195.513H786.619V196.805H781.329V195.513ZM790.698 199.5V189.318H794.327C795.12 189.318 795.776 189.462 796.296 189.751C796.816 190.039 797.206 190.433 797.464 190.934C797.723 191.431 797.852 191.991 797.852 192.614C797.852 193.241 797.721 193.804 797.459 194.305C797.201 194.802 796.81 195.196 796.286 195.488C795.766 195.776 795.111 195.92 794.322 195.92H791.827V194.618H794.183C794.684 194.618 795.09 194.532 795.401 194.359C795.713 194.184 795.941 193.945 796.087 193.643C796.233 193.342 796.306 192.999 796.306 192.614C796.306 192.23 796.233 191.888 796.087 191.59C795.941 191.292 795.711 191.058 795.396 190.889C795.085 190.72 794.674 190.636 794.163 190.636H792.234V199.5H790.698ZM801.889 189.318V199.5H800.353V189.318H801.889ZM814.785 191.993C814.732 191.522 814.513 191.158 814.129 190.899C813.744 190.637 813.26 190.506 812.677 190.506C812.259 190.506 811.898 190.573 811.593 190.705C811.288 190.835 811.051 191.013 810.882 191.242C810.717 191.468 810.634 191.724 810.634 192.013C810.634 192.255 810.69 192.464 810.803 192.639C810.919 192.815 811.07 192.962 811.255 193.082C811.444 193.198 811.646 193.295 811.862 193.375C812.077 193.451 812.284 193.514 812.483 193.564L813.477 193.822C813.802 193.902 814.135 194.01 814.477 194.146C814.818 194.281 815.135 194.46 815.426 194.683C815.718 194.905 815.953 195.18 816.132 195.508C816.315 195.836 816.406 196.229 816.406 196.686C816.406 197.263 816.257 197.775 815.958 198.222C815.663 198.67 815.234 199.023 814.671 199.281C814.11 199.54 813.433 199.669 812.637 199.669C811.875 199.669 811.215 199.548 810.659 199.306C810.102 199.064 809.666 198.721 809.351 198.277C809.036 197.83 808.862 197.299 808.829 196.686H810.37C810.4 197.054 810.519 197.361 810.728 197.606C810.94 197.848 811.21 198.028 811.539 198.148C811.87 198.264 812.233 198.322 812.627 198.322C813.061 198.322 813.448 198.254 813.786 198.118C814.127 197.979 814.396 197.786 814.591 197.541C814.787 197.293 814.884 197.003 814.884 196.671C814.884 196.37 814.798 196.123 814.626 195.93C814.457 195.738 814.226 195.579 813.935 195.453C813.646 195.327 813.32 195.216 812.955 195.12L811.752 194.792C810.937 194.57 810.291 194.243 809.813 193.812C809.339 193.382 809.102 192.812 809.102 192.102C809.102 191.516 809.262 191.004 809.58 190.566C809.898 190.129 810.329 189.789 810.872 189.547C811.416 189.302 812.029 189.179 812.712 189.179C813.401 189.179 814.009 189.3 814.536 189.542C815.067 189.784 815.484 190.117 815.789 190.541C816.094 190.962 816.253 191.446 816.266 191.993H814.785ZM822.238 199.5H818.941V189.318H822.342C823.34 189.318 824.196 189.522 824.912 189.93C825.628 190.334 826.177 190.916 826.558 191.675C826.942 192.43 827.135 193.337 827.135 194.394C827.135 195.455 826.941 196.366 826.553 197.129C826.168 197.891 825.612 198.478 824.883 198.888C824.153 199.296 823.272 199.5 822.238 199.5ZM820.478 198.158H822.153C822.929 198.158 823.573 198.012 824.087 197.72C824.601 197.425 824.985 196.999 825.24 196.442C825.496 195.882 825.623 195.2 825.623 194.394C825.623 193.595 825.496 192.918 825.24 192.361C824.989 191.804 824.612 191.381 824.112 191.093C823.611 190.805 822.99 190.661 822.248 190.661H820.478V198.158ZM829.745 199.5V189.318H831.281V194.18H831.405L835.676 189.318H837.61L833.503 193.902L837.625 199.5H835.776L832.484 194.951L831.281 196.333V199.5H829.745Z" fill="white" fill-opacity="0.75"/>
<path d="M541 113C650.5 113 618.927 32 689 32" stroke="url(#paint5_linear_890_417)"/>
<path d="M541 113C655.5 113 618.927 194 689 194" stroke="url(#paint6_linear_890_417)"/>
<rect x="376.5" y="97.5" width="164" height="32" rx="16" fill="white" fill-opacity="0.04"/>
<path d="M401.531 119V108.818H405.26C405.982 108.818 406.58 108.937 407.054 109.176C407.528 109.411 407.883 109.731 408.118 110.136C408.354 110.537 408.471 110.989 408.471 111.493C408.471 111.917 408.393 112.275 408.238 112.567C408.082 112.855 407.873 113.087 407.611 113.263C407.353 113.435 407.068 113.561 406.756 113.641V113.74C407.094 113.757 407.424 113.866 407.745 114.068C408.07 114.267 408.339 114.55 408.551 114.918C408.763 115.286 408.869 115.734 408.869 116.261C408.869 116.781 408.746 117.248 408.501 117.663C408.259 118.074 407.885 118.4 407.378 118.642C406.87 118.881 406.222 119 405.434 119H401.531ZM403.067 117.683H405.284C406.02 117.683 406.547 117.54 406.865 117.255C407.184 116.97 407.343 116.614 407.343 116.186C407.343 115.865 407.261 115.57 407.099 115.301C406.937 115.033 406.705 114.819 406.403 114.66C406.105 114.501 405.75 114.421 405.339 114.421H403.067V117.683ZM403.067 113.223H405.125C405.47 113.223 405.78 113.157 406.055 113.024C406.333 112.892 406.554 112.706 406.716 112.467C406.882 112.225 406.965 111.94 406.965 111.612C406.965 111.191 406.817 110.838 406.522 110.553C406.227 110.268 405.775 110.126 405.165 110.126H403.067V113.223ZM411.391 119V108.818H415.02C415.809 108.818 416.464 108.954 416.984 109.226C417.508 109.498 417.899 109.874 418.157 110.354C418.416 110.832 418.545 111.384 418.545 112.01C418.545 112.633 418.414 113.182 418.152 113.656C417.894 114.126 417.503 114.492 416.979 114.754C416.459 115.016 415.804 115.147 415.015 115.147H412.266V113.825H414.876C415.373 113.825 415.778 113.753 416.089 113.611C416.404 113.468 416.634 113.261 416.78 112.989C416.926 112.718 416.999 112.391 416.999 112.01C416.999 111.625 416.924 111.292 416.775 111.011C416.629 110.729 416.399 110.513 416.084 110.364C415.773 110.212 415.363 110.136 414.856 110.136H412.927V119H411.391ZM416.417 114.406L418.933 119H417.183L414.717 114.406H416.417ZM422.651 108.818V119H421.115V108.818H422.651ZM428.884 119H425.588V108.818H428.989C429.986 108.818 430.843 109.022 431.559 109.43C432.275 109.834 432.823 110.416 433.204 111.175C433.589 111.93 433.781 112.837 433.781 113.894C433.781 114.955 433.587 115.866 433.199 116.629C432.815 117.391 432.258 117.978 431.529 118.388C430.8 118.796 429.918 119 428.884 119ZM427.124 117.658H428.8C429.575 117.658 430.22 117.512 430.734 117.22C431.247 116.925 431.632 116.499 431.887 115.942C432.142 115.382 432.27 114.7 432.27 113.894C432.27 113.095 432.142 112.418 431.887 111.861C431.635 111.304 431.259 110.881 430.758 110.593C430.258 110.305 429.636 110.161 428.894 110.161H427.124V117.658ZM443.282 112.035C443.186 111.733 443.057 111.463 442.894 111.224C442.735 110.982 442.545 110.777 442.323 110.608C442.101 110.436 441.847 110.305 441.562 110.215C441.28 110.126 440.97 110.081 440.632 110.081C440.059 110.081 439.542 110.228 439.081 110.523C438.62 110.818 438.256 111.251 437.987 111.821C437.722 112.388 437.59 113.082 437.59 113.904C437.59 114.729 437.724 115.427 437.992 115.997C438.261 116.567 438.629 117 439.096 117.295C439.563 117.59 440.095 117.737 440.692 117.737C441.245 117.737 441.728 117.625 442.139 117.399C442.553 117.174 442.873 116.856 443.098 116.445C443.327 116.03 443.441 115.543 443.441 114.983L443.839 115.058H440.926V113.79H444.928V114.948C444.928 115.803 444.745 116.546 444.381 117.175C444.02 117.802 443.519 118.286 442.879 118.627C442.243 118.969 441.514 119.139 440.692 119.139C439.77 119.139 438.962 118.927 438.266 118.503C437.573 118.079 437.033 117.477 436.645 116.698C436.257 115.916 436.063 114.988 436.063 113.914C436.063 113.102 436.176 112.373 436.401 111.727C436.627 111.08 436.943 110.532 437.351 110.081C437.762 109.627 438.244 109.281 438.798 109.042C439.355 108.8 439.963 108.679 440.622 108.679C441.172 108.679 441.685 108.76 442.159 108.923C442.636 109.085 443.06 109.315 443.431 109.614C443.806 109.912 444.116 110.267 444.361 110.678C444.606 111.085 444.772 111.538 444.858 112.035H443.282ZM447.578 119V108.818H453.961V110.141H449.114V113.243H453.628V114.56H449.114V117.678H454.021V119H447.578ZM466.672 111.493C466.619 111.022 466.4 110.658 466.015 110.399C465.631 110.137 465.147 110.006 464.564 110.006C464.146 110.006 463.785 110.073 463.48 110.205C463.175 110.335 462.938 110.513 462.769 110.742C462.603 110.968 462.52 111.224 462.52 111.513C462.52 111.755 462.577 111.964 462.689 112.139C462.805 112.315 462.956 112.462 463.142 112.582C463.331 112.698 463.533 112.795 463.748 112.875C463.964 112.951 464.171 113.014 464.37 113.064L465.364 113.322C465.689 113.402 466.022 113.51 466.363 113.646C466.705 113.781 467.021 113.96 467.313 114.183C467.605 114.405 467.84 114.68 468.019 115.008C468.201 115.336 468.292 115.729 468.292 116.186C468.292 116.763 468.143 117.275 467.845 117.722C467.55 118.17 467.121 118.523 466.557 118.781C465.997 119.04 465.319 119.169 464.524 119.169C463.762 119.169 463.102 119.048 462.545 118.806C461.988 118.564 461.553 118.221 461.238 117.777C460.923 117.33 460.749 116.799 460.716 116.186H462.257C462.287 116.554 462.406 116.861 462.615 117.106C462.827 117.348 463.097 117.528 463.425 117.648C463.757 117.764 464.12 117.822 464.514 117.822C464.948 117.822 465.334 117.754 465.672 117.618C466.014 117.479 466.282 117.286 466.478 117.041C466.673 116.793 466.771 116.503 466.771 116.171C466.771 115.87 466.685 115.623 466.513 115.43C466.344 115.238 466.113 115.079 465.822 114.953C465.533 114.827 465.207 114.716 464.842 114.62L463.639 114.292C462.824 114.07 462.177 113.743 461.7 113.312C461.226 112.882 460.989 112.312 460.989 111.602C460.989 111.016 461.148 110.504 461.466 110.066C461.785 109.629 462.215 109.289 462.759 109.047C463.303 108.802 463.916 108.679 464.599 108.679C465.288 108.679 465.896 108.8 466.423 109.042C466.953 109.284 467.371 109.617 467.676 110.041C467.981 110.462 468.14 110.946 468.153 111.493H466.672ZM470.326 110.141V108.818H478.206V110.141H475.029V119H473.498V110.141H470.326ZM487.195 108.818H488.736V115.515C488.736 116.228 488.569 116.859 488.234 117.409C487.899 117.956 487.429 118.387 486.822 118.702C486.216 119.013 485.505 119.169 484.689 119.169C483.877 119.169 483.168 119.013 482.561 118.702C481.955 118.387 481.484 117.956 481.149 117.409C480.815 116.859 480.647 116.228 480.647 115.515V108.818H482.184V115.391C482.184 115.851 482.285 116.261 482.487 116.619C482.692 116.977 482.982 117.258 483.357 117.464C483.731 117.666 484.175 117.767 484.689 117.767C485.206 117.767 485.652 117.666 486.027 117.464C486.404 117.258 486.693 116.977 486.892 116.619C487.094 116.261 487.195 115.851 487.195 115.391V108.818ZM494.966 119H491.67V108.818H495.07C496.068 108.818 496.925 109.022 497.64 109.43C498.356 109.834 498.905 110.416 499.286 111.175C499.671 111.93 499.863 112.837 499.863 113.894C499.863 114.955 499.669 115.866 499.281 116.629C498.897 117.391 498.34 117.978 497.611 118.388C496.881 118.796 496 119 494.966 119ZM493.206 117.658H494.881C495.657 117.658 496.301 117.512 496.815 117.22C497.329 116.925 497.713 116.499 497.969 115.942C498.224 115.382 498.351 114.7 498.351 113.894C498.351 113.095 498.224 112.418 497.969 111.861C497.717 111.304 497.341 110.881 496.84 110.593C496.34 110.305 495.718 110.161 494.976 110.161H493.206V117.658ZM504.009 108.818V119H502.473V108.818H504.009ZM515.791 113.909C515.791 114.996 515.592 115.931 515.194 116.713C514.797 117.492 514.251 118.092 513.559 118.513C512.869 118.93 512.086 119.139 511.207 119.139C510.326 119.139 509.538 118.93 508.846 118.513C508.156 118.092 507.613 117.49 507.215 116.708C506.817 115.926 506.618 114.993 506.618 113.909C506.618 112.822 506.817 111.889 507.215 111.11C507.613 110.328 508.156 109.728 508.846 109.31C509.538 108.889 510.326 108.679 511.207 108.679C512.086 108.679 512.869 108.889 513.559 109.31C514.251 109.728 514.797 110.328 515.194 111.11C515.592 111.889 515.791 112.822 515.791 113.909ZM514.27 113.909C514.27 113.08 514.135 112.383 513.867 111.816C513.602 111.246 513.237 110.815 512.773 110.523C512.313 110.228 511.791 110.081 511.207 110.081C510.621 110.081 510.097 110.228 509.636 110.523C509.175 110.815 508.811 111.246 508.542 111.816C508.277 112.383 508.145 113.08 508.145 113.909C508.145 114.738 508.277 115.437 508.542 116.007C508.811 116.574 509.175 117.005 509.636 117.3C510.097 117.591 510.621 117.737 511.207 117.737C511.791 117.737 512.313 117.591 512.773 117.3C513.237 117.005 513.602 116.574 513.867 116.007C514.135 115.437 514.27 114.738 514.27 113.909Z" fill="white"/>
<rect x="376.5" y="97.5" width="164" height="32" rx="16" stroke="url(#paint7_linear_890_417)"/>
<defs>
<filter id="filter0_b_890_417" x="-88" y="-16" width="256" height="256" filterUnits="userSpaceOnUse" color-interpolation-filters="sRGB">
<feFlood flood-opacity="0" result="BackgroundImageFix"/>
<feGaussianBlur in="BackgroundImageFix" stdDeviation="50"/>
<feComposite in2="SourceAlpha" operator="in" result="effect1_backgroundBlur_890_417"/>
<feBlend mode="normal" in="SourceGraphic" in2="effect1_backgroundBlur_890_417" result="shape"/>
</filter>
<filter id="filter1_f_890_417" x="649" y="-3" width="110" height="110" filterUnits="userSpaceOnUse" color-interpolation-filters="sRGB">
<feFlood flood-opacity="0" result="BackgroundImageFix"/>
<feBlend mode="normal" in="SourceGraphic" in2="BackgroundImageFix" result="shape"/>
<feGaussianBlur stdDeviation="20.5" result="effect1_foregroundBlur_890_417"/>
</filter>
<filter id="filter2_f_890_417" x="649" y="159" width="110" height="110" filterUnits="userSpaceOnUse" color-interpolation-filters="sRGB">
<feFlood flood-opacity="0" result="BackgroundImageFix"/>
<feBlend mode="normal" in="SourceGraphic" in2="BackgroundImageFix" result="shape"/>
<feGaussianBlur stdDeviation="20.5" result="effect1_foregroundBlur_890_417"/>
</filter>
<linearGradient id="paint0_linear_890_417" x1="313" y1="112" x2="68" y2="112" gradientUnits="userSpaceOnUse">
<stop stop-color="white" stop-opacity="0.1"/>
<stop offset="0.0885417" stop-color="white" stop-opacity="0.15"/>
<stop offset="0.296875" stop-color="white" stop-opacity="0.4"/>
<stop offset="0.453125" stop-color="white" stop-opacity="0.2"/>
<stop offset="0.619792" stop-color="white" stop-opacity="0.1"/>
<stop offset="0.880208" stop-color="white" stop-opacity="0.5"/>
<stop offset="1" stop-color="white" stop-opacity="0.1"/>
</linearGradient>
<radialGradient id="paint1_radial_890_417" cx="0" cy="0" r="1" gradientUnits="userSpaceOnUse" gradientTransform="translate(704 52) rotate(90) scale(14)">
<stop stop-color="white"/>
<stop offset="1" stop-color="white" stop-opacity="0"/>
</radialGradient>
<linearGradient id="paint2_linear_890_417" x1="727.131" y1="24.2501" x2="716.799" y2="35.5268" gradientUnits="userSpaceOnUse">
<stop stop-color="#59F7C8"/>
<stop offset="1" stop-color="#7D90D7"/>
</linearGradient>
<radialGradient id="paint3_radial_890_417" cx="0" cy="0" r="1" gradientUnits="userSpaceOnUse" gradientTransform="translate(704 214) rotate(90) scale(14)">
<stop stop-color="white"/>
<stop offset="1" stop-color="white" stop-opacity="0"/>
</radialGradient>
<linearGradient id="paint4_linear_890_417" x1="727.131" y1="186.249" x2="716.827" y2="197.523" gradientUnits="userSpaceOnUse">
<stop stop-color="#59F7C8"/>
<stop offset="1" stop-color="#7D90D7"/>
</linearGradient>
<linearGradient id="paint5_linear_890_417" x1="689" y1="31" x2="531.116" y2="82.977" gradientUnits="userSpaceOnUse">
<stop offset="0.0001" stop-color="white" stop-opacity="0.5"/>
<stop offset="0.296875" stop-color="white" stop-opacity="0.1"/>
<stop offset="0.4375" stop-color="white" stop-opacity="0.4"/>
<stop offset="0.713542" stop-color="white" stop-opacity="0.1"/>
<stop offset="1" stop-color="white" stop-opacity="0.1"/>
</linearGradient>
<linearGradient id="paint6_linear_890_417" x1="689" y1="195" x2="531.116" y2="143.023" gradientUnits="userSpaceOnUse">
<stop stop-color="white" stop-opacity="0.19"/>
<stop offset="0.510417" stop-color="white" stop-opacity="0.5"/>
<stop offset="0.645833" stop-color="white" stop-opacity="0.126727"/>
<stop offset="0.859375" stop-color="white" stop-opacity="0.1"/>
<stop offset="1" stop-color="white" stop-opacity="0.5"/>
</linearGradient>
<linearGradient id="paint7_linear_890_417" x1="505.531" y1="97.9977" x2="497.596" y2="137.795" gradientUnits="userSpaceOnUse">
<stop stop-color="#59F7C8"/>
<stop offset="1" stop-color="#7D90D7"/>
</linearGradient>
<clipPath id="clip0_890_417">
<rect x="690" width="64" height="64" rx="12" fill="white"/>
</clipPath>
<clipPath id="clip1_890_417">
<rect x="690" y="162" width="64" height="64" rx="12" fill="white"/>
</clipPath>
</defs>
</svg>
